# This file uses meters as units for non-parametric coordinates.

mtllib ceiling light.mtl
g default
v -433.397308 301.295929 9.398391
v -254.767059 301.295929 9.398391
v -433.397308 307.069794 9.398391
v -254.767059 307.069794 9.398391
v -433.397308 307.069794 -9.398391
v -254.767059 307.069794 -9.398391
v -433.397308 301.295929 -9.398391
v -254.767059 301.295929 -9.398391
v -269.041595 300.646454 -2.902195
v -269.041595 298.177704 -4.695849
v -269.041595 295.126160 -4.695849
v -269.041595 292.657410 -2.902194
v -269.041595 291.714447 0.000000
v -269.041595 292.657410 2.902194
v -269.041595 295.126160 4.695849
v -269.041595 298.177704 4.695849
v -269.041595 300.646454 2.902194
v -269.041595 301.589447 0.000000
v -418.583405 300.646454 -2.902195
v -418.583405 298.177704 -4.695849
v -418.583405 295.126160 -4.695849
v -418.583405 292.657410 -2.902194
v -418.583405 291.714447 0.000000
v -418.583405 292.657410 2.902194
v -418.583405 295.126160 4.695849
v -418.583405 298.177704 4.695849
v -418.583405 300.646454 2.902194
v -418.583405 301.589447 0.000000
v -263.375000 300.646454 -2.902195
v -263.375000 298.177704 -4.695849
v -263.375000 295.126160 -4.695849
v -263.375000 292.657410 -2.902194
v -263.375000 291.714447 0.000000
v -263.375000 292.657410 2.902194
v -263.375000 295.126160 4.695849
v -263.375000 298.177734 4.695849
v -263.375000 300.646484 2.902194
v -263.375000 301.589447 0.000000
v -424.250000 300.646515 -2.902195
v -424.250000 298.177765 -4.695849
v -424.250000 295.126160 -4.695849
v -424.250000 292.657410 -2.902194
v -424.250000 291.714447 0.000000
v -424.250000 292.657440 2.902194
v -424.250000 295.126190 4.695849
v -424.250000 298.177704 4.695849
v -424.250000 300.646454 2.902194
v -424.250000 301.589447 0.000000
v -261.186340 299.859528 -2.330478
v -261.186340 297.877106 -3.770792
v -258.288879 296.651947 0.000000
v -261.186340 295.426727 -3.770791
v -261.186340 293.444305 -2.330477
v -261.186340 292.687103 0.000000
v -261.186340 293.444305 2.330477
v -261.186340 295.426727 3.770791
v -261.186340 297.877136 3.770791
v -261.186340 299.859558 2.330477
v -261.186340 300.616791 -0.000000
v -426.438660 299.859650 -2.330482
v -426.438660 297.877197 -3.770798
v -429.336151 296.651947 0.000000
v -426.438660 295.426697 -3.770798
v -426.438660 293.444275 -2.330481
v -426.438660 292.687103 0.000000
v -426.438660 293.444336 2.330481
v -426.438660 295.426758 3.770797
v -426.438660 297.877167 3.770797
v -426.438660 299.859589 2.330481
v -426.438660 300.616791 -0.000000
v -269.041595 301.569794 -3.573027
v -269.041595 298.530396 -5.781279
v -263.375000 301.569794 -3.573027
v -263.375000 298.530396 -5.781279
v -269.041595 294.773499 -5.781278
v -263.375000 294.773468 -5.781278
v -269.041595 291.734100 -3.573027
v -263.375000 291.734070 -3.573027
v -269.041595 290.573151 0.000000
v -263.375000 290.573151 0.000000
v -269.041595 291.734100 3.573027
v -263.375000 291.734100 3.573027
v -269.041595 294.773499 5.781278
v -263.375000 294.773499 5.781278
v -269.041595 298.530396 5.781278
v -263.375000 298.530426 5.781278
v -269.041595 301.569794 3.573024
v -263.375000 301.569824 3.573024
v -269.041595 302.730743 -0.000002
v -263.375000 302.730743 -0.000002
v -418.583405 301.569794 -3.573025
v -418.583405 298.530396 -5.781279
v -424.250000 298.530426 -5.781279
v -424.250000 301.569824 -3.573025
v -418.583405 294.773499 -5.781278
v -424.250000 294.773499 -5.781278
v -418.583405 291.734100 -3.573027
v -424.250000 291.734100 -3.573027
v -418.583405 290.573151 0.000003
v -424.250000 290.573151 0.000003
v -418.583405 291.734100 3.573029
v -424.250000 291.734100 3.573029
v -418.583405 294.773499 5.781277
v -424.250000 294.773499 5.781277
v -418.583405 298.530396 5.781278
v -424.250000 298.530396 5.781278
v -418.583405 301.569794 3.573027
v -424.250000 301.569794 3.573027
v -418.583405 302.730743 0.000002
v -424.250000 302.730743 0.000002
v -259.930054 304.794525 -1.414213
v -261.344269 304.794525 -2.000000
v -262.758484 304.794525 -1.414213
v -263.344269 304.794525 0.000000
v -262.758484 304.794525 1.414213
v -261.344269 304.794525 2.000000
v -259.930054 304.794525 1.414214
v -259.344269 304.794525 0.000000
v -259.930054 404.794525 -1.414213
v -261.344269 404.794525 -2.000000
v -262.758484 404.794525 -1.414213
v -263.344269 404.794525 0.000000
v -262.758484 404.794525 1.414213
v -261.344269 404.794525 2.000000
v -259.930054 404.794525 1.414214
v -259.344269 404.794525 0.000000
v -423.278351 304.794525 -1.414213
v -424.692566 304.794525 -2.000000
v -426.106781 304.794525 -1.414213
v -426.692566 304.794525 0.000000
v -426.106781 304.794525 1.414213
v -424.692566 304.794525 2.000000
v -423.278351 304.794525 1.414214
v -422.692566 304.794525 0.000000
v -423.278351 404.794525 -1.414213
v -424.692566 404.794525 -2.000000
v -426.106781 404.794525 -1.414213
v -426.692566 404.794525 0.000000
v -426.106781 404.794525 1.414213
v -424.692566 404.794525 2.000000
v -423.278351 404.794525 1.414214
v -422.692566 404.794525 0.000000
v -340.203247 304.794525 -1.414213
v -341.617462 304.794525 -2.000000
v -343.031677 304.794525 -1.414213
v -343.617462 304.794525 0.000000
v -343.031677 304.794525 1.414213
v -341.617462 304.794525 2.000000
v -340.203247 304.794525 1.414214
v -339.617462 304.794525 0.000000
v -340.203247 404.794525 -1.414213
v -341.617462 404.794525 -2.000000
v -343.031677 404.794525 -1.414213
v -343.617462 404.794525 0.000000
v -343.031677 404.794525 1.414213
v -341.617462 404.794525 2.000000
v -340.203247 404.794525 1.414214
v -339.617462 404.794525 0.000000
vt 0.353371 0.906150
vt 0.369925 0.123047
vt 0.383955 0.906593
vt 0.400509 0.123490
vt 0.483521 0.908035
vt 0.500075 0.124931
vt 0.514104 0.908478
vt 0.530658 0.125374
vt 0.613670 0.909919
vt 0.630224 0.126816
vt 0.371667 0.040643
vt 0.402251 0.041086
vt 0.351629 0.988554
vt 0.382213 0.988997
vt 0.161930 0.137967
vt 0.176371 0.138309
vt 0.159464 0.845992
vt 0.145023 0.845650
vt 0.190813 0.138651
vt 0.173905 0.846334
vt 0.205254 0.138993
vt 0.188346 0.846677
vt 0.219696 0.139336
vt 0.202787 0.847019
vt 0.234137 0.139678
vt 0.217827 0.847378
vt 0.248578 0.140022
vt 0.232268 0.847722
vt 0.263620 0.140376
vt 0.246710 0.848064
vt 0.278061 0.140718
vt 0.261151 0.848406
vt 0.292502 0.141060
vt 0.275592 0.848748
vt 0.306943 0.141402
vt 0.290034 0.849090
vt 0.262337 0.084494
vt 0.268672 0.090137
vt 0.257003 0.097407
vt 0.253949 0.083769
vt 0.246754 0.088242
vt 0.243527 0.096216
vt 0.245489 0.104652
vt 0.251807 0.110317
vt 0.259982 0.111028
vt 0.267157 0.106530
vt 0.270508 0.098550
vt 0.203943 0.902896
vt 0.197621 0.897235
vt 0.209310 0.889999
vt 0.195807 0.888817
vt 0.199180 0.880848
vt 0.206367 0.876371
vt 0.214542 0.877103
vt 0.220845 0.882782
vt 0.222786 0.891222
vt 0.219539 0.899188
vt 0.212330 0.903643
vt 0.270111 0.058098
vt 0.289975 0.073328
vt 0.277409 0.084115
vt 0.266000 0.074373
vt 0.245153 0.057715
vt 0.251114 0.073389
vt 0.224828 0.072333
vt 0.238539 0.081540
vt 0.217178 0.096460
vt 0.233183 0.095745
vt 0.225637 0.121002
vt 0.237152 0.110611
vt 0.247357 0.136616
vt 0.248718 0.120446
vt 0.265480 0.136868
vt 0.262350 0.121393
vt 0.287665 0.121927
vt 0.275040 0.113158
vt 0.296876 0.097670
vt 0.280883 0.098920
vt 0.196080 0.929258
vt 0.176257 0.913962
vt 0.188866 0.903229
vt 0.200252 0.913004
vt 0.169431 0.889601
vt 0.185434 0.888416
vt 0.178711 0.865384
vt 0.191316 0.874195
vt 0.200923 0.850521
vt 0.204030 0.866000
vt 0.219045 0.850797
vt 0.217658 0.866979
vt 0.240728 0.866449
vt 0.229199 0.876838
vt 0.249137 0.891014
vt 0.233132 0.891713
vt 0.241428 0.915138
vt 0.227739 0.905908
vt 0.221051 0.929715
vt 0.215140 0.914029
vt 0.264660 0.077759
vt 0.274390 0.086065
vt 0.251974 0.076927
vt 0.241259 0.083890
vt 0.236682 0.096013
vt 0.240009 0.108688
vt 0.249775 0.117056
vt 0.261726 0.117859
vt 0.272459 0.110834
vt 0.277373 0.098691
vt 0.201601 0.909623
vt 0.191892 0.901289
vt 0.188943 0.888655
vt 0.193890 0.876528
vt 0.204643 0.869535
vt 0.216592 0.870367
vt 0.226337 0.878757
vt 0.229633 0.891438
vt 0.225024 0.903552
vt 0.214288 0.910489
vt 0.271547 0.054675
vt 0.293111 0.071381
vt 0.244346 0.054092
vt 0.222085 0.069857
vt 0.213556 0.096056
vt 0.222696 0.122819
vt 0.290233 0.124272
vt 0.300510 0.097922
vt 0.194630 0.932673
vt 0.173111 0.915894
vt 0.165797 0.889332
vt 0.176151 0.863026
vt 0.243670 0.864631
vt 0.252758 0.891421
vt 0.244165 0.917617
vt 0.221846 0.933340
vt 0.807983 0.053541
vt 0.821400 0.053672
vt 0.812830 0.930197
vt 0.799412 0.930066
vt 0.834817 0.053804
vt 0.826247 0.930328
vt 0.848235 0.053935
vt 0.839664 0.930459
vt 0.861652 0.054066
vt 0.853081 0.930590
vt 0.875069 0.054197
vt 0.866498 0.930722
vt 0.888486 0.054328
vt 0.879916 0.930853
vt 0.901904 0.054460
vt 0.893333 0.930984
vt 0.915321 0.054591
vt 0.906750 0.931115
vt 0.807983 0.053541
vt 0.821400 0.053672
vt 0.812830 0.930197
vt 0.799412 0.930066
vt 0.834817 0.053804
vt 0.826247 0.930328
vt 0.848235 0.053935
vt 0.839664 0.930459
vt 0.861652 0.054066
vt 0.853081 0.930590
vt 0.875069 0.054197
vt 0.866498 0.930722
vt 0.888486 0.054328
vt 0.879916 0.930853
vt 0.901904 0.054460
vt 0.893333 0.930984
vt 0.915321 0.054591
vt 0.906750 0.931115
vt 0.807983 0.053541
vt 0.821400 0.053672
vt 0.812830 0.930197
vt 0.799412 0.930066
vt 0.834817 0.053804
vt 0.826247 0.930328
vt 0.848235 0.053935
vt 0.839664 0.930459
vt 0.861652 0.054066
vt 0.853081 0.930590
vt 0.875069 0.054197
vt 0.866498 0.930722
vt 0.888486 0.054328
vt 0.879916 0.930853
vt 0.901904 0.054460
vt 0.893333 0.930984
vt 0.915321 0.054591
vt 0.906750 0.931115
vn 0.000000 0.000000 1.000000
vn 0.000000 0.000000 1.000000
vn 0.000000 0.000000 1.000000
vn 0.000000 0.000000 1.000000
vn 0.000000 1.000000 0.000000
vn 0.000000 1.000000 0.000000
vn 0.000000 1.000000 0.000000
vn 0.000000 1.000000 0.000000
vn 0.000000 0.000000 -1.000000
vn 0.000000 0.000000 -1.000000
vn 0.000000 0.000000 -1.000000
vn 0.000000 0.000000 -1.000000
vn 0.000000 -1.000000 0.000000
vn 0.000000 -1.000000 0.000000
vn 0.000000 -1.000000 0.000000
vn 0.000000 -1.000000 0.000000
vn 1.000000 0.000000 0.000000
vn 1.000000 0.000000 0.000000
vn 1.000000 0.000000 0.000000
vn 1.000000 0.000000 0.000000
vn -1.000000 0.000000 0.000000
vn -1.000000 0.000000 0.000000
vn -1.000000 0.000000 0.000000
vn -1.000000 0.000000 0.000000
vn 0.000000 0.809018 -0.587784
vn 0.000000 0.309017 -0.951057
vn 0.000000 0.309017 -0.951057
vn 0.000000 0.809018 -0.587784
vn 0.000000 -0.309017 -0.951057
vn 0.000000 -0.309017 -0.951057
vn 0.000000 -0.809020 -0.587781
vn 0.000000 -0.809020 -0.587781
vn 0.000000 -1.000000 0.000000
vn 0.000000 -1.000000 0.000000
vn 0.000000 -0.809020 0.587781
vn 0.000000 -0.809020 0.587781
vn 0.000000 -0.309017 0.951057
vn 0.000000 -0.309017 0.951057
vn 0.000000 0.309017 0.951057
vn 0.000000 0.309017 0.951057
vn 0.000000 0.809018 0.587784
vn 0.000000 0.809018 0.587784
vn 0.000000 1.000000 0.000000
vn 0.000000 1.000000 0.000000
vn 0.807383 0.182327 -0.561150
vn 0.807381 0.477344 -0.346813
vn 1.000000 0.000002 0.000001
vn 0.807384 -0.182328 -0.561148
vn 0.807384 -0.477345 -0.346803
vn 0.807379 -0.590033 -0.000000
vn 0.807385 -0.477344 0.346803
vn 0.807386 -0.182327 0.561146
vn 0.807385 0.182327 0.561147
vn 0.807382 0.477342 0.346813
vn 0.807381 0.590031 0.000001
vn -0.592112 0.651956 -0.473663
vn -0.592113 0.249020 -0.766415
vn -1.000000 -0.000000 -0.000002
vn -0.592111 -0.249021 -0.766415
vn -0.592112 -0.651957 -0.473662
vn -0.592111 -0.805856 0.000013
vn -0.592110 -0.651950 0.473674
vn -0.592113 -0.249024 0.766413
vn -0.592113 0.249026 0.766412
vn -0.592109 0.651954 0.473669
vn -0.592109 0.805858 0.000008
vn -0.000000 0.309018 -0.951056
vn 0.000000 0.809017 -0.587785
vn 0.000000 0.809017 -0.587785
vn -0.000000 0.309018 -0.951056
vn -0.000002 -0.309015 -0.951057
vn -0.000002 -0.309017 -0.951056
vn -0.000003 -0.809017 -0.587785
vn -0.000003 -0.809018 -0.587784
vn -0.000001 -1.000000 0.000006
vn -0.000001 -1.000000 0.000006
vn 0.000000 -0.809017 0.587785
vn 0.000000 -0.809017 0.587785
vn -0.000000 -0.309018 0.951056
vn -0.000000 -0.309018 0.951056
vn -0.000002 0.309015 0.951057
vn -0.000002 0.309017 0.951057
vn -0.000003 0.809017 0.587786
vn -0.000003 0.809017 0.587785
vn -0.000001 1.000000 -0.000003
vn -0.000001 1.000000 -0.000003
vn 0.000003 0.809017 -0.587785
vn 0.000002 0.309015 -0.951057
vn 0.000002 0.309017 -0.951057
vn 0.000003 0.809018 -0.587784
vn 0.000000 -0.309017 -0.951057
vn 0.000000 -0.309017 -0.951057
vn 0.000000 -0.809017 -0.587785
vn 0.000000 -0.809017 -0.587785
vn 0.000000 -1.000000 0.000000
vn 0.000000 -1.000000 0.000000
vn 0.000000 -0.809017 0.587785
vn 0.000000 -0.809017 0.587785
vn 0.000000 -0.309017 0.951057
vn 0.000000 -0.309017 0.951057
vn 0.000000 0.309017 0.951057
vn 0.000000 0.309017 0.951057
vn 0.000000 0.809016 0.587786
vn 0.000000 0.809016 0.587786
vn 0.000001 1.000000 0.000003
vn 0.000001 1.000000 0.000003
vn 0.406114 0.282387 -0.869097
vn 0.406117 0.739295 -0.537133
vn 0.406117 0.739293 -0.537136
vn 0.406114 0.282383 -0.869098
vn 0.406111 -0.282385 -0.869099
vn 0.406111 -0.282386 -0.869099
vn 0.406114 -0.739301 -0.537128
vn 0.406114 -0.739301 -0.537127
vn 0.406110 -0.913824 0.000001
vn 0.406110 -0.913824 0.000000
vn 0.406112 -0.739304 0.537124
vn 0.406112 -0.739305 0.537123
vn 0.406111 -0.282384 0.869099
vn 0.406111 -0.282384 0.869099
vn 0.406114 0.282387 0.869097
vn 0.406114 0.282383 0.869098
vn 0.406117 0.739298 0.537129
vn 0.406117 0.739297 0.537131
vn 0.406116 0.913821 -0.000005
vn 0.406116 0.913821 -0.000006
vn -0.406104 0.739305 -0.537129
vn -0.406108 0.282384 -0.869101
vn -0.406107 -0.282382 -0.869101
vn -0.406105 -0.739307 -0.537125
vn -0.406106 -0.913826 0.000009
vn -0.406110 -0.739298 0.537135
vn -0.406110 -0.282387 0.869098
vn -0.406109 0.282386 0.869099
vn -0.406104 0.739301 0.537135
vn -0.406100 0.913829 0.000008
vn -1.000000 -0.000004 0.000000
vn -1.000000 -0.000002 0.000000
vn -1.000000 -0.000002 0.000000
vn -1.000000 -0.000004 0.000000
vn 1.000000 0.000001 0.000000
vn 1.000000 0.000000 0.000000
vn 1.000000 0.000000 0.000000
vn 1.000000 0.000001 0.000000
vn -1.000000 0.000000 0.000000
vn -1.000000 0.000000 0.000000
vn 1.000000 0.000004 0.000000
vn 1.000000 0.000004 0.000000
vn -1.000000 0.000000 0.000000
vn -1.000000 0.000000 0.000000
vn 1.000000 0.000004 0.000000
vn 1.000000 0.000004 0.000000
vn -1.000000 -0.000002 0.000000
vn -1.000000 -0.000002 0.000000
vn 1.000000 0.000000 0.000000
vn 1.000000 0.000000 0.000000
vn -1.000000 0.000002 0.000000
vn -1.000000 0.000002 0.000000
vn 1.000000 0.000008 0.000000
vn 1.000000 0.000008 0.000000
vn -1.000000 0.000004 0.000000
vn -1.000000 0.000004 0.000000
vn 1.000000 0.000008 0.000000
vn 1.000000 0.000008 0.000000
vn -1.000000 0.000004 0.000000
vn -1.000000 0.000004 0.000000
vn 1.000000 0.000004 0.000000
vn 1.000000 0.000004 0.000000
vn -1.000000 -0.000002 0.000000
vn -1.000000 -0.000002 0.000000
vn 1.000000 0.000006 0.000000
vn 1.000000 0.000006 0.000000
vn -1.000000 -0.000004 0.000000
vn -1.000000 -0.000004 0.000000
vn 1.000000 0.000003 0.000000
vn 1.000000 0.000003 0.000000
vn 1.000000 0.000001 0.000000
vn 1.000000 0.000008 0.000000
vn 1.000000 0.000008 0.000000
vn 1.000000 0.000001 0.000000
vn -1.000000 0.000000 0.000000
vn -1.000000 -0.000000 0.000000
vn -1.000000 0.000000 0.000000
vn -1.000000 -0.000000 0.000000
vn 1.000000 -0.000000 0.000000
vn 1.000000 0.000000 0.000000
vn -1.000000 -0.000012 0.000000
vn -1.000000 -0.000012 0.000000
vn 1.000000 -0.000012 0.000000
vn 1.000000 -0.000012 0.000000
vn -1.000000 0.000004 0.000000
vn -1.000000 0.000004 0.000000
vn 1.000000 -0.000010 0.000000
vn 1.000000 -0.000010 0.000000
vn -1.000000 0.000017 0.000000
vn -1.000000 0.000017 0.000000
vn 1.000000 -0.000002 0.000000
vn 1.000000 -0.000002 0.000000
vn -1.000000 0.000008 0.000000
vn -1.000000 0.000008 0.000000
vn 1.000000 -0.000004 0.000000
vn 1.000000 -0.000004 0.000000
vn -1.000000 0.000004 0.000000
vn -1.000000 0.000004 0.000000
vn 1.000000 -0.000000 0.000000
vn 1.000000 0.000000 0.000000
vn -1.000000 0.000008 0.000000
vn -1.000000 0.000008 0.000000
vn 1.000000 0.000012 0.000000
vn 1.000000 0.000012 0.000000
vn -1.000000 0.000004 0.000000
vn -1.000000 0.000004 0.000000
vn 1.000000 0.000005 0.000000
vn 1.000000 0.000005 0.000000
vn -1.000000 -0.000009 0.000000
vn -1.000000 -0.000009 0.000000
vn 0.707107 0.000000 -0.707107
vn 0.000000 0.000000 -1.000000
vn 0.000000 0.000000 -1.000000
vn 0.707107 0.000000 -0.707107
vn -0.707107 0.000000 -0.707107
vn -0.707107 0.000000 -0.707107
vn -1.000000 0.000000 0.000000
vn -1.000000 0.000000 0.000000
vn -0.707107 0.000000 0.707107
vn -0.707107 0.000000 0.707107
vn -0.000000 0.000000 1.000000
vn -0.000000 0.000000 1.000000
vn 0.707107 0.000000 0.707107
vn 0.707107 0.000000 0.707107
vn 1.000000 0.000000 0.000000
vn 1.000000 0.000000 0.000000
vn 0.707107 0.000000 -0.707107
vn 0.000000 0.000000 -1.000000
vn 0.000000 0.000000 -1.000000
vn 0.707107 0.000000 -0.707107
vn -0.707107 0.000000 -0.707107
vn -0.707107 0.000000 -0.707107
vn -1.000000 0.000000 0.000000
vn -1.000000 0.000000 0.000000
vn -0.707107 0.000000 0.707107
vn -0.707107 0.000000 0.707107
vn -0.000000 0.000000 1.000000
vn -0.000000 0.000000 1.000000
vn 0.707107 0.000000 0.707107
vn 0.707107 0.000000 0.707107
vn 1.000000 0.000000 0.000000
vn 1.000000 0.000000 0.000000
vn 0.707107 0.000000 -0.707107
vn 0.000000 0.000000 -1.000000
vn 0.000000 0.000000 -1.000000
vn 0.707107 0.000000 -0.707107
vn -0.707107 0.000000 -0.707107
vn -0.707107 0.000000 -0.707107
vn -1.000000 0.000000 0.000000
vn -1.000000 0.000000 0.000000
vn -0.707107 0.000000 0.707107
vn -0.707107 0.000000 0.707107
vn -0.000000 0.000000 1.000000
vn -0.000000 0.000000 1.000000
vn 0.707107 0.000000 0.707107
vn 0.707107 0.000000 0.707107
vn 1.000000 0.000000 0.000000
vn 1.000000 0.000000 0.000000
s off
g Ceiling_light1
usemtl initialShadingGroup
f 1/1/1 2/2/2 4/4/3 3/3/4
f 3/3/5 4/4/6 6/6/7 5/5/8
f 5/5/9 6/6/10 8/8/11 7/7/12
f 7/7/13 8/8/14 2/10/15 1/9/16
f 2/2/17 8/11/18 6/12/19 4/4/20
f 7/13/21 1/1/22 3/3/23 5/14/24
s 1
f 9/15/25 10/16/26 20/17/27 19/18/28
f 10/16/26 11/19/29 21/20/30 20/17/27
f 11/19/29 12/21/31 22/22/32 21/20/30
f 12/21/31 13/23/33 23/24/34 22/22/32
f 13/23/33 14/25/35 24/26/36 23/24/34
f 14/25/35 15/27/37 25/28/38 24/26/36
f 15/27/37 16/29/39 26/30/40 25/28/38
f 16/29/39 17/31/41 27/32/42 26/30/40
f 17/31/41 18/33/43 28/34/44 27/32/42
f 18/33/43 9/35/25 19/36/28 28/34/44
s 2
f 50/37/45 49/38/46 51/39/47
f 52/40/48 50/37/45 51/39/47
f 53/41/49 52/40/48 51/39/47
f 54/42/50 53/41/49 51/39/47
f 55/43/51 54/42/50 51/39/47
f 56/44/52 55/43/51 51/39/47
f 57/45/53 56/44/52 51/39/47
f 58/46/54 57/45/53 51/39/47
f 59/47/55 58/46/54 51/39/47
f 49/38/46 59/47/55 51/39/47
s 3
f 60/48/56 61/49/57 62/50/58
f 61/49/57 63/51/59 62/50/58
f 63/51/59 64/52/60 62/50/58
f 64/52/60 65/53/61 62/50/58
f 65/53/61 66/54/62 62/50/58
f 66/54/62 67/55/63 62/50/58
f 67/55/63 68/56/64 62/50/58
f 68/56/64 69/57/65 62/50/58
f 69/57/65 70/58/66 62/50/58
f 70/58/66 60/48/56 62/50/58
s 4
f 72/59/67 71/60/68 73/61/69 74/62/70
f 75/63/71 72/59/67 74/62/70 76/64/72
f 77/65/73 75/63/71 76/64/72 78/66/74
f 79/67/75 77/65/73 78/66/74 80/68/76
f 81/69/77 79/67/75 80/68/76 82/70/78
f 83/71/79 81/69/77 82/70/78 84/72/80
f 85/73/81 83/71/79 84/72/80 86/74/82
f 87/75/83 85/73/81 86/74/82 88/76/84
f 89/77/85 87/75/83 88/76/84 90/78/86
f 71/60/68 89/77/85 90/78/86 73/61/69
s 5
f 91/79/87 92/80/88 93/81/89 94/82/90
f 92/80/88 95/83/91 96/84/92 93/81/89
f 95/83/91 97/85/93 98/86/94 96/84/92
f 97/85/93 99/87/95 100/88/96 98/86/94
f 99/87/95 101/89/97 102/90/98 100/88/96
f 101/89/97 103/91/99 104/92/100 102/90/98
f 103/91/99 105/93/101 106/94/102 104/92/100
f 105/93/101 107/95/103 108/96/104 106/94/102
f 107/95/103 109/97/105 110/98/106 108/96/104
f 109/97/105 91/79/87 94/82/90 110/98/106
s 6
f 30/99/107 29/100/108 49/38/109 50/37/110
f 31/101/111 30/99/107 50/37/110 52/40/112
f 32/102/113 31/101/111 52/40/112 53/41/114
f 33/103/115 32/102/113 53/41/114 54/42/116
f 34/104/117 33/103/115 54/42/116 55/43/118
f 35/105/119 34/104/117 55/43/118 56/44/120
f 36/106/121 35/105/119 56/44/120 57/45/122
f 37/107/123 36/106/121 57/45/122 58/46/124
f 38/108/125 37/107/123 58/46/124 59/47/126
f 29/100/108 38/108/125 59/47/126 49/38/109
s 3
f 39/109/127 40/110/128 61/49/57 60/48/56
f 40/110/128 41/111/129 63/51/59 61/49/57
f 41/111/129 42/112/130 64/52/60 63/51/59
f 42/112/130 43/113/131 65/53/61 64/52/60
f 43/113/131 44/114/132 66/54/62 65/53/61
f 44/114/132 45/115/133 67/55/63 66/54/62
f 45/115/133 46/116/134 68/56/64 67/55/63
f 46/116/134 47/117/135 69/57/65 68/56/64
f 47/117/135 48/118/136 70/58/66 69/57/65
f 48/118/136 39/109/127 60/48/56 70/58/66
s 7
f 10/119/137 9/120/138 71/60/139 72/59/140
s 8
f 29/100/141 30/99/142 74/62/143 73/61/144
s 7
f 11/121/145 10/119/137 72/59/140 75/63/146
s 8
f 30/99/142 31/101/147 76/64/148 74/62/143
s 7
f 12/122/149 11/121/145 75/63/146 77/65/150
s 8
f 31/101/147 32/102/151 78/66/152 76/64/148
s 7
f 13/123/153 12/122/149 77/65/150 79/67/154
s 8
f 32/102/151 33/103/155 80/68/156 78/66/152
s 7
f 14/124/157 13/123/153 79/67/154 81/69/158
s 8
f 33/103/155 34/104/159 82/70/160 80/68/156
s 7
f 15/27/161 14/124/157 81/69/158 83/71/162
s 8
f 34/104/159 35/105/163 84/72/164 82/70/160
s 7
f 16/29/165 15/27/161 83/71/162 85/73/166
s 8
f 35/105/163 36/106/167 86/74/168 84/72/164
s 7
f 17/125/169 16/29/165 85/73/166 87/75/170
s 8
f 36/106/167 37/107/171 88/76/172 86/74/168
s 7
f 18/126/173 17/125/169 87/75/170 89/77/174
s 8
f 37/107/171 38/108/175 90/78/176 88/76/172
s 7
f 9/120/138 18/126/173 89/77/174 71/60/139
s 8
f 38/108/175 29/100/141 73/61/144 90/78/176
s 9
f 19/127/177 20/128/178 92/80/179 91/79/180
s 10
f 40/110/181 39/109/182 94/82/183 93/81/184
s 9
f 20/128/178 21/129/185 95/83/186 92/80/179
s 10
f 41/111/187 40/110/181 93/81/184 96/84/188
s 9
f 21/129/185 22/130/189 97/85/190 95/83/186
s 10
f 42/112/191 41/111/187 96/84/188 98/86/192
s 9
f 22/130/189 23/24/193 99/87/194 97/85/190
s 10
f 43/113/195 42/112/191 98/86/192 100/88/196
s 9
f 23/24/193 24/26/197 101/89/198 99/87/194
s 10
f 44/114/199 43/113/195 100/88/196 102/90/200
s 9
f 24/26/197 25/131/201 103/91/202 101/89/198
s 10
f 45/115/203 44/114/199 102/90/200 104/92/204
s 9
f 25/131/201 26/132/205 105/93/206 103/91/202
s 10
f 46/116/207 45/115/203 104/92/204 106/94/208
s 9
f 26/132/205 27/133/209 107/95/210 105/93/206
s 10
f 47/117/211 46/116/207 106/94/208 108/96/212
s 9
f 27/133/209 28/134/213 109/97/214 107/95/210
s 10
f 48/118/215 47/117/211 108/96/212 110/98/216
s 9
f 28/134/213 19/127/177 91/79/180 109/97/214
s 10
f 39/109/182 48/118/215 110/98/216 94/82/183
s 11
f 111/135/217 112/136/218 120/137/219 119/138/220
f 112/136/218 113/139/221 121/140/222 120/137/219
f 113/139/221 114/141/223 122/142/224 121/140/222
f 114/141/223 115/143/225 123/144/226 122/142/224
f 115/143/225 116/145/227 124/146/228 123/144/226
f 116/145/227 117/147/229 125/148/230 124/146/228
f 117/147/229 118/149/231 126/150/232 125/148/230
f 118/149/231 111/151/217 119/152/220 126/150/232
s 12
f 127/153/233 128/154/234 136/155/235 135/156/236
f 128/154/234 129/157/237 137/158/238 136/155/235
f 129/157/237 130/159/239 138/160/240 137/158/238
f 130/159/239 131/161/241 139/162/242 138/160/240
f 131/161/241 132/163/243 140/164/244 139/162/242
f 132/163/243 133/165/245 141/166/246 140/164/244
f 133/165/245 134/167/247 142/168/248 141/166/246
f 134/167/247 127/169/233 135/170/236 142/168/248
s 13
f 143/171/249 144/172/250 152/173/251 151/174/252
f 144/172/250 145/175/253 153/176/254 152/173/251
f 145/175/253 146/177/255 154/178/256 153/176/254
f 146/177/255 147/179/257 155/180/258 154/178/256
f 147/179/257 148/181/259 156/182/260 155/180/258
f 148/181/259 149/183/261 157/184/262 156/182/260
f 149/183/261 150/185/263 158/186/264 157/184/262
f 150/185/263 143/187/249 151/188/252 158/186/264
