# This file uses meters as units for non-parametric coordinates.

mtllib hammer.mtl
g default
v -387.230042 161.279190 7.314453
v -386.724976 162.164581 6.205078
v -386.118530 162.164581 4.825928
v -385.642456 161.279190 3.703796
v -385.478577 159.846573 3.267303
v -385.689423 158.413971 3.683136
v -386.194519 157.528564 4.792511
v -386.800934 157.528564 6.171661
v -387.277008 158.413971 7.293793
v -387.440918 159.846573 7.730316
v -421.156250 161.942719 -7.602692
v -420.651154 162.828125 -8.712067
v -420.044739 162.828125 -10.091217
v -419.568665 161.942719 -11.213348
v -419.404755 160.510117 -11.649872
v -419.615601 159.077499 -11.234009
v -420.120728 158.192108 -10.124634
v -420.727112 158.192108 -8.745483
v -421.203186 159.077499 -7.623352
v -421.367126 160.510117 -7.186859
v -386.459747 159.846573 5.498810
v -420.385925 160.510117 -9.418365
v -410.730835 157.893311 -14.066193
v -411.118011 157.485275 -14.236420
v -410.943939 157.900742 -14.613831
v -416.090881 157.485275 -2.926605
v -415.700684 157.893311 -2.763214
v -415.505005 157.989960 -16.619293
v -415.679077 157.574478 -16.241882
v -416.052582 157.997391 -16.406128
v -421.012329 158.012283 -4.788361
v -420.900452 158.010681 -5.379944
v -420.636230 157.574890 -5.023621
v -415.423340 162.972488 -16.583405
v -415.970917 162.979919 -16.370239
v -415.583801 163.387955 -16.200012
v -420.540955 163.388351 -4.981720
v -420.821136 162.973572 -5.339600
v -420.931213 162.960159 -4.752686
v -410.862274 162.883270 -14.577942
v -411.022705 163.298752 -14.194519
v -410.649170 162.875839 -14.030304
v -415.619019 162.875839 -2.727325
v -415.995575 163.298752 -2.884705
v -419.524536 162.523819 4.984833
v -418.982697 162.526611 4.770660
v -419.351471 162.948029 4.616821
v -419.435242 157.837646 4.579987
v -419.052307 158.245773 4.738617
v -419.594421 158.261963 4.954132
v -420.207916 162.529388 4.684357
v -420.137695 162.962921 4.281769
v -420.545898 162.547165 4.190430
v -420.280151 158.279816 4.652588
v -420.615784 158.283554 4.159698
v -420.221436 157.853363 4.244934
vt 0.931216 0.053608
vt 0.948412 0.053939
vt 0.940290 0.477014
vt 0.923094 0.476684
vt 0.965608 0.054269
vt 0.957486 0.477344
vt 0.914021 0.053278
vt 0.905898 0.476354
vt 0.982804 0.054599
vt 0.974681 0.477675
vt 0.845237 0.051958
vt 0.862433 0.052288
vt 0.854311 0.475364
vt 0.837115 0.475033
vt 0.879629 0.052618
vt 0.871506 0.475694
vt 0.828041 0.051628
vt 0.819919 0.474703
vt 0.896825 0.052948
vt 0.888702 0.476024
vt 1.000000 0.054929
vt 0.991877 0.478005
vt 0.883107 0.042574
vt 0.905931 0.026652
vt 0.878107 0.026117
vt 0.883735 0.009865
vt 0.928126 0.043438
vt 0.897841 0.000025
vt 0.933754 0.027186
vt 0.915037 0.000355
vt 0.928754 0.010730
vt 0.874596 0.485864
vt 0.896792 0.502651
vt 0.868969 0.502116
vt 0.919616 0.486729
vt 0.873968 0.518573
vt 0.924616 0.503185
vt 0.887686 0.528947
vt 0.918988 0.519437
vt 0.904882 0.529277
vt 0.869699 0.892203
vt 0.869195 0.898734
vt 0.812818 0.900784
vt 0.811843 0.894127
vt 0.876503 0.891888
vt 0.863374 0.751095
vt 0.869980 0.750725
vt 0.875821 0.897680
vt 0.878102 0.955871
vt 0.871547 0.955352
vt 0.856541 0.657196
vt 0.863266 0.656839
vt 0.872569 0.961986
vt 0.814423 0.964053
vt 0.814975 0.957499
vt 0.940801 0.887833
vt 0.934049 0.888282
vt 0.926540 0.748623
vt 0.933238 0.750431
vt 0.931101 0.743330
vt 0.873119 0.656043
vt 0.879455 0.653694
vt 0.932807 0.743569
vt 0.989126 0.739823
vt 0.989684 0.746622
vt 0.808348 0.958552
vt 0.806263 0.900265
vt 0.747622 0.894993
vt 0.740905 0.895042
vt 0.737442 0.757647
vt 0.743961 0.755410
vt 0.739020 0.750477
vt 0.783846 0.657621
vt 0.790340 0.659496
vt 0.805050 0.894323
vt 0.800658 0.753327
vt 0.807285 0.753204
vt 0.800219 0.659575
vt 0.806936 0.659434
vt 0.807612 0.652951
vt 0.801194 0.654084
vt 0.800661 0.643371
vt 0.807064 0.644518
vt 0.855257 0.650623
vt 0.861765 0.651211
vt 0.855051 0.642209
vt 0.861278 0.640448
vt 0.805961 0.637884
vt 0.855459 0.635389
vt 0.997781 0.884039
vt 0.929883 0.641268
vt 0.978471 0.638035
vn -0.223328 0.808886 0.543900
vn -0.223328 0.808886 0.543900
vn -0.223328 0.808886 0.543900
vn -0.223328 0.808886 0.543900
vn 0.016387 0.999840 0.007205
vn 0.016387 0.999840 0.007205
vn 0.016387 0.999840 0.007205
vn 0.016387 0.999840 0.007205
vn 0.249845 0.808886 -0.532242
vn 0.249845 0.808886 -0.532242
vn 0.249845 0.808886 -0.532242
vn 0.249845 0.808886 -0.532242
vn 0.387868 0.308975 -0.868385
vn 0.387868 0.308975 -0.868385
vn 0.387868 0.308975 -0.868385
vn 0.387868 0.308975 -0.868385
vn 0.377735 -0.308971 -0.872842
vn 0.377735 -0.308971 -0.872842
vn 0.377735 -0.308971 -0.872842
vn 0.377735 -0.308971 -0.872842
vn 0.223328 -0.808886 -0.543900
vn 0.223328 -0.808886 -0.543900
vn 0.223328 -0.808886 -0.543900
vn 0.223328 -0.808886 -0.543900
vn -0.016387 -0.999840 -0.007205
vn -0.016387 -0.999840 -0.007205
vn -0.016387 -0.999840 -0.007205
vn -0.016387 -0.999840 -0.007205
vn -0.249843 -0.808889 0.532238
vn -0.249843 -0.808889 0.532238
vn -0.249843 -0.808889 0.532238
vn -0.249843 -0.808889 0.532238
vn -0.387865 -0.308972 0.868388
vn -0.387865 -0.308972 0.868388
vn -0.387865 -0.308972 0.868388
vn -0.387865 -0.308972 0.868388
vn -0.377739 0.308965 0.872842
vn -0.377739 0.308965 0.872842
vn -0.377739 0.308965 0.872842
vn -0.377739 0.308965 0.872842
vn 0.915271 -0.017903 0.402442
vn 0.915275 -0.017903 0.402432
vn 0.915272 -0.017899 0.402439
vn 0.915267 -0.017876 0.402452
vn 0.915271 -0.017911 0.402440
vn 0.915274 -0.017929 0.402434
vn 0.915273 -0.017894 0.402436
vn 0.915270 -0.017894 0.402442
vn 0.915269 -0.017894 0.402446
vn 0.915273 -0.017894 0.402436
vn 0.915275 -0.017894 0.402432
vn -0.915271 0.017911 -0.402441
vn -0.915270 0.017885 -0.402443
vn -0.915271 0.017903 -0.402440
vn -0.915271 0.017885 -0.402441
vn -0.915274 0.017894 -0.402435
vn -0.915272 0.017911 -0.402437
vn -0.915268 0.017929 -0.402446
vn -0.915272 0.017911 -0.402438
vn -0.915275 0.017911 -0.402431
vn -0.915270 0.017894 -0.402443
vn -0.915269 0.017894 -0.402445
vn 0.931795 -0.012660 -0.362764
vn 0.931795 -0.012660 -0.362764
vn 0.931795 -0.012660 -0.362764
vn 0.931795 -0.012660 -0.362764
vn 0.635594 -0.719665 0.279469
vn 0.635594 -0.719665 0.279469
vn 0.631465 -0.718060 0.292646
vn 0.631466 -0.718061 0.292642
vn 0.273020 -0.706987 -0.652403
vn 0.273020 -0.706987 -0.652403
vn 0.273020 -0.706987 -0.652403
vn 0.273020 -0.706987 -0.652403
vn 0.625001 -0.715375 0.312428
vn 0.625001 -0.715376 0.312428
vn -0.362592 0.012655 -0.931862
vn -0.362592 0.012655 -0.931862
vn -0.362592 0.012655 -0.931862
vn -0.362592 0.012655 -0.931862
vn -0.672258 -0.678609 -0.295904
vn -0.672258 -0.678609 -0.295904
vn -0.713793 -0.683980 -0.150569
vn -0.673888 -0.677772 -0.294109
vn -0.743111 -0.667305 0.049903
vn -0.722355 -0.682391 0.112007
vn -0.742458 -0.667160 0.060453
vn -0.919503 0.017891 -0.392676
vn -0.999476 0.016173 0.028041
vn -0.999479 0.016174 0.027932
vn -0.919485 0.017891 -0.392719
vn 0.296202 0.707016 -0.642178
vn 0.296202 0.707016 -0.642178
vn 0.296202 0.707016 -0.642178
vn 0.296202 0.707016 -0.642178
vn -0.646786 0.707454 -0.284915
vn -0.646786 0.707454 -0.284915
vn -0.648479 0.706662 -0.283026
vn -0.689308 0.710848 -0.139819
vn -0.720829 0.690519 0.059903
vn -0.720260 0.690123 0.070393
vn -0.699852 0.703773 0.122109
vn 0.658760 0.694362 0.289648
vn 0.658760 0.694362 0.289648
vn 0.654399 0.692918 0.302700
vn 0.654398 0.692917 0.302703
vn 0.647571 0.690482 0.322314
vn 0.647571 0.690482 0.322314
vn -0.281409 0.684258 0.672755
vn -0.281409 0.684258 0.672755
vn -0.350216 0.673283 0.651183
vn 0.368343 -0.012841 0.929601
vn 0.368343 -0.012841 0.929601
vn 0.368343 -0.012841 0.929601
vn 0.368343 -0.012841 0.929601
vn -0.302021 -0.685783 0.662182
vn -0.302021 -0.685783 0.662182
vn -0.371052 -0.672628 0.640228
vn -0.825785 0.009646 0.563902
vn -0.825785 0.009646 0.563902
vn -0.825785 0.009646 0.563902
vn -0.825785 0.009646 0.563902
vn -0.016387 -0.999840 -0.007202
vn -0.021473 -0.999762 0.003901
vn -0.020179 -0.999796 0.001075
vn -0.016387 -0.999840 -0.007202
vn -0.915272 0.017897 -0.402439
vn -0.915272 0.017897 -0.402439
vn 0.016386 0.999840 0.007205
vn 0.012593 0.999801 0.015483
vn 0.011298 0.999769 0.018308
vn 0.016386 0.999840 0.007205
vn 0.915272 -0.017897 0.402439
vn 0.914258 -0.017898 0.404737
vn 0.914258 -0.017898 0.404737
vn 0.915272 -0.017897 0.402439
vn -0.402521 0.000002 0.915411
vn -0.402521 0.000002 0.915411
vn -0.402521 0.000002 0.915411
vn -0.402521 0.000002 0.915411
vn 0.402502 -0.000005 -0.915419
vn 0.402502 -0.000005 -0.915419
vn 0.402502 -0.000005 -0.915419
vn 0.402502 -0.000005 -0.915419
vn 0.912561 -0.017901 0.408549
vn 0.912561 -0.017901 0.408549
vn -0.001405 0.998940 0.046001
vn -0.001405 0.998941 0.046001
vn -0.998912 0.016058 0.043781
vn -0.998912 0.016058 0.043781
vn -0.034150 -0.998917 0.031603
vn -0.034150 -0.998917 0.031603
vn 0.751340 -0.587611 -0.300336
vn 0.751340 -0.587611 -0.300336
vn 0.751340 -0.587611 -0.300335
vn -0.305492 -0.566899 -0.765049
vn -0.305492 -0.566899 -0.765049
vn -0.305492 -0.566899 -0.765049
vn -0.286608 0.587573 -0.756712
vn -0.286608 0.587573 -0.756712
vn -0.286608 0.587573 -0.756712
vn 0.770227 0.566970 -0.292055
vn 0.770227 0.566970 -0.292055
vn 0.770227 0.566970 -0.292055
vn 0.304482 0.550221 0.777527
vn 0.304482 0.550221 0.777527
vn 0.304482 0.550221 0.777527
vn 0.288798 -0.569949 0.769255
vn 0.288798 -0.569949 0.769255
vn 0.288798 -0.569949 0.769256
s off
g Hammer1
usemtl initialShadingGroup
f 1/15/1 2/19/2 12/20/3 11/16/4
f 2/19/5 3/7/6 13/8/7 12/20/8
f 3/7/9 4/1/10 14/4/11 13/8/12
f 4/1/13 5/2/14 15/3/15 14/4/16
f 5/2/17 6/5/18 16/6/19 15/3/20
f 6/5/21 7/9/22 17/10/23 16/6/24
f 7/9/25 8/21/26 18/22/27 17/10/28
f 8/17/29 9/11/30 19/14/31 18/18/32
f 9/11/33 10/12/34 20/13/35 19/14/36
f 10/12/37 1/15/38 11/16/39 20/13/40
s 1
f 2/19/41 1/23/42 21/24/43
f 3/7/44 2/19/41 21/24/43
f 4/27/45 3/7/44 21/24/43
f 5/29/46 4/27/45 21/24/43
f 6/31/47 5/29/46 21/24/43
f 7/30/48 6/31/47 21/24/43
f 8/28/49 7/30/48 21/24/43
f 9/26/50 8/28/49 21/24/43
f 10/25/51 9/26/50 21/24/43
f 1/23/42 10/25/51 21/24/43
s 2
f 11/32/52 12/20/53 22/33/54
f 12/20/53 13/8/55 22/33/54
f 13/8/55 14/35/56 22/33/54
f 14/35/56 15/37/57 22/33/54
f 15/37/57 16/39/58 22/33/54
f 16/39/58 17/40/59 22/33/54
f 17/40/59 18/38/60 22/33/54
f 18/38/60 19/36/61 22/33/54
f 19/36/61 20/34/62 22/33/54
f 20/34/62 11/32/52 22/33/54
s off
f 23/41/63 25/42/64 40/43/65 42/44/66
s 3
f 24/45/67 23/41/68 27/46/69 26/47/70
s off
f 25/42/71 24/48/72 29/49/73 28/50/74
s 3
f 26/47/70 27/46/69 49/51/75 48/52/76
s off
f 28/50/77 30/53/78 35/54/79 34/55/80
s 4
f 30/56/81 29/57/82 33/58/83 32/59/84
f 31/60/85 33/58/83 56/61/86 55/62/87
s 5
f 32/59/88 31/63/89 39/64/90 38/65/91
s off
f 34/55/92 36/66/93 41/67/94 40/43/95
s 6
f 36/68/96 35/69/97 38/70/98 37/71/99
f 37/71/99 39/72/100 53/73/101 52/74/102
s 7
f 42/44/103 41/75/104 44/76/105 43/77/106
f 43/77/106 44/76/105 47/78/107 46/79/108
s 6
f 45/80/109 47/81/110 52/82/102 51/83/111
s off
f 46/79/112 45/80/113 50/84/114 49/51/115
s 4
f 48/85/116 50/84/117 54/86/118 56/87/86
s off
f 51/83/119 53/88/120 55/89/121 54/86/122
s 8
f 24/45/123 26/47/124 33/58/125 29/57/126
s 5
f 30/56/127 32/59/88 38/65/91 35/90/128
s 9
f 36/68/129 37/71/130 44/76/131 41/75/132
s 10
f 42/44/133 43/77/134 27/46/135 23/41/136
s off
f 50/84/137 45/80/138 51/83/139 54/86/140
f 40/43/141 25/42/142 28/50/143 34/55/144
s 10
f 27/46/135 43/77/134 46/79/145 49/51/146
s 9
f 44/76/131 37/71/130 52/74/147 47/78/148
s 5
f 39/64/90 31/63/89 55/91/149 53/92/150
s 8
f 33/58/125 26/47/124 48/52/151 56/61/152
s off
f 23/41/153 24/48/154 25/42/155
f 28/50/156 29/49/157 30/53/158
s 4
f 31/60/85 32/59/84 33/58/83
s off
f 34/55/159 35/54/160 36/66/161
s 6
f 37/71/99 38/70/98 39/72/100
s off
f 40/43/162 41/67/163 42/44/164
f 45/80/165 46/79/166 47/81/167
f 48/85/168 49/51/169 50/84/170
s 6
f 51/83/111 52/82/102 53/88/101
s 4
f 54/86/118 55/89/87 56/87/86
