# This file uses meters as units for non-parametric coordinates.

mtllib keycard test.mtl
g default
v 9.380424 3.888397 0.593263
v 9.658089 3.773384 0.415301
v 9.380424 13.270386 0.593263
v 9.658089 13.385399 0.415301
v 8.341728 2.849678 0.593263
v 8.456734 2.572029 0.415301
v 9.380424 3.888397 -0.593286
v 9.658089 3.773384 -0.415324
v 9.380424 13.270386 -0.593286
v 9.658089 13.385399 -0.415324
v 8.341728 2.849678 -0.593286
v 8.456734 2.572029 -0.415324
v 8.341728 14.309105 0.593263
v 8.456734 14.586754 0.415301
v -7.047638 14.309105 0.593263
v -7.162651 14.586754 0.415301
v 8.341728 14.309105 -0.593286
v 8.456734 14.586754 -0.415324
v -7.047638 14.309105 -0.593286
v -7.162651 14.586754 -0.415324
v -8.086342 13.270386 0.593263
v -8.363998 13.385399 0.415301
v -8.086342 3.888397 0.593263
v -8.363998 3.773384 0.415301
v -8.086342 13.270386 -0.593286
v -8.363998 13.385399 -0.415324
v -8.086342 3.888397 -0.593286
v -8.363998 3.773384 -0.415324
v -7.047638 2.849678 0.593263
v -7.162651 2.572029 0.415301
v -7.047638 2.849678 -0.593286
v -7.162651 2.572029 -0.415324
vt 0.203959 0.033821
vt 0.207901 0.442702
vt 0.170486 0.405991
vt 0.167260 0.071235
vt 0.752867 0.028504
vt 0.756685 0.437279
vt 0.793396 0.399875
vt 0.790270 0.065204
vt 0.761238 0.898749
vt 0.757410 0.489965
vt 0.794813 0.526665
vt 0.797949 0.861345
vt 0.212572 0.904272
vt 0.208640 0.495400
vt 0.171941 0.532814
vt 0.175157 0.867561
vt 0.759176 0.478300
vt 0.206624 0.483846
vt 0.816509 0.478703
vt 0.811565 0.490513
vt 0.153599 0.496911
vt 0.148338 0.485191
vt 0.206138 0.454370
vt 0.758698 0.448830
vt 0.816981 0.447483
vt 0.148808 0.453968
vt 0.811720 0.435763
vt 0.153752 0.442157
vt 0.763249 0.910297
vt 0.210812 0.915942
vt 0.816270 0.897230
vt 0.821531 0.908949
vt 0.763722 0.939763
vt 0.211302 0.945423
vt 0.153483 0.915542
vt 0.158426 0.903731
vt 0.821057 0.940168
vt 0.761955 0.951427
vt 0.213319 0.956977
vt 0.153014 0.946765
vt 0.816113 0.951978
vt 0.158276 0.958486
vt 0.806540 0.522450
vt 0.809754 0.865336
vt 0.836173 0.522169
vt 0.839388 0.865055
vt 0.847977 0.526160
vt 0.851115 0.860841
vt 0.163431 0.871776
vt 0.160136 0.528822
vt 0.133796 0.872057
vt 0.130503 0.529104
vt 0.121991 0.868065
vt 0.118777 0.533319
vn 0.114066 -0.012033 0.993400
vn 0.968733 -0.106855 0.223916
vn 0.968733 0.106855 0.223915
vn 0.114066 0.012033 0.993400
vn 0.968733 -0.106855 0.223916
vn 0.114066 -0.012033 0.993400
vn 0.001290 -0.019143 0.999816
vn 0.068893 -0.972468 0.222619
vn 0.114066 0.012033 0.993400
vn 0.968733 0.106855 0.223915
vn 0.068893 0.972468 0.222619
vn 0.001290 0.019143 0.999816
vn 0.068893 -0.972468 0.222619
vn 0.001290 -0.019143 0.999816
vn -0.001290 -0.019143 0.999816
vn -0.068893 -0.972469 0.222616
vn 0.522503 -0.055120 -0.850854
vn 0.968733 -0.106855 -0.223916
vn 0.068893 -0.972468 -0.222619
vn 0.035626 -0.528787 -0.848006
vn 0.968733 -0.106855 -0.223916
vn 0.522503 -0.055120 -0.850854
vn 0.522504 0.055121 -0.850853
vn 0.968733 0.106855 -0.223915
vn 0.968733 0.106855 -0.223915
vn 0.522504 0.055121 -0.850853
vn 0.035627 0.528788 -0.848006
vn 0.068893 0.972468 -0.222619
vn 0.035626 -0.528787 -0.848006
vn 0.068893 -0.972468 -0.222619
vn -0.068893 -0.972469 -0.222616
vn -0.035626 -0.528789 -0.848006
vn 0.001290 0.019143 0.999816
vn 0.068893 0.972468 0.222619
vn -0.068893 0.972469 0.222617
vn -0.001290 0.019144 0.999816
vn -0.001290 0.019144 0.999816
vn -0.068893 0.972469 0.222617
vn -0.968734 0.106854 0.223910
vn -0.114066 0.012033 0.993400
vn 0.068893 0.972468 -0.222619
vn 0.035627 0.528788 -0.848006
vn -0.035625 0.528788 -0.848006
vn -0.068893 0.972469 -0.222617
vn -0.068893 0.972469 -0.222617
vn -0.035625 0.528788 -0.848006
vn -0.522511 0.055121 -0.850849
vn -0.968734 0.106854 -0.223910
vn -0.114066 0.012033 0.993400
vn -0.968734 0.106854 0.223910
vn -0.968735 -0.106854 0.223910
vn -0.114066 -0.012033 0.993400
vn -0.114066 -0.012033 0.993400
vn -0.968735 -0.106854 0.223910
vn -0.068893 -0.972469 0.222616
vn -0.001290 -0.019143 0.999816
vn -0.968734 0.106854 -0.223910
vn -0.522511 0.055121 -0.850849
vn -0.522513 -0.055122 -0.850848
vn -0.968735 -0.106855 -0.223910
vn -0.968735 -0.106855 -0.223910
vn -0.522513 -0.055122 -0.850848
vn -0.035626 -0.528789 -0.848006
vn -0.068893 -0.972469 -0.222616
vn 0.968733 -0.106855 0.223916
vn 0.968733 -0.106855 -0.223916
vn 0.968733 0.106855 -0.223915
vn 0.968733 0.106855 0.223915
vn 0.068893 0.972468 0.222619
vn 0.068893 0.972468 -0.222619
vn -0.068893 0.972469 -0.222617
vn -0.068893 0.972469 0.222617
vn -0.968734 0.106854 0.223910
vn -0.968734 0.106854 -0.223910
vn -0.968735 -0.106855 -0.223910
vn -0.968735 -0.106854 0.223910
vn -0.068893 -0.972469 0.222616
vn -0.068893 -0.972469 -0.222616
vn 0.068893 -0.972468 -0.222619
vn 0.068893 -0.972468 0.222619
vn 0.000000 0.000000 -1.000000
vn 0.000000 0.000000 -1.000000
vn 0.000000 0.000000 -1.000000
vn 0.000000 0.000000 -1.000000
vn 0.001290 0.019143 0.999816
vn 0.001290 -0.019143 0.999816
vn 0.114066 -0.012033 0.993400
vn 0.114066 0.012033 0.993400
vn 0.968733 -0.106855 0.223916
vn 0.068893 -0.972468 0.222619
vn 0.068893 -0.972468 -0.222619
vn 0.968733 -0.106855 -0.223916
vn 0.068893 0.972468 0.222619
vn 0.968733 0.106855 0.223915
vn 0.968733 0.106855 -0.223915
vn 0.068893 0.972468 -0.222619
vn -0.968734 0.106854 0.223910
vn -0.068893 0.972469 0.222617
vn -0.068893 0.972469 -0.222617
vn -0.968734 0.106854 -0.223910
vn -0.068893 -0.972469 0.222616
vn -0.968735 -0.106854 0.223910
vn -0.968735 -0.106855 -0.223910
vn -0.068893 -0.972469 -0.222616
vn -0.000000 0.000000 -1.000000
vn -0.000000 0.000000 -1.000000
vn -0.000000 0.000000 -1.000000
vn -0.000000 0.000000 -1.000000
vn -0.000000 0.000000 -1.000000
vn -0.000000 0.000000 -1.000000
vn 0.000000 0.000000 -1.000000
vn 0.000000 0.000000 -1.000000
vn -0.114066 -0.012033 0.993400
vn -0.001290 -0.019143 0.999816
vn -0.001290 0.019144 0.999816
vn -0.114066 0.012033 0.993400
vn -0.001290 0.019144 0.999816
vn -0.001290 -0.019143 0.999816
vn 0.001290 -0.019143 0.999816
vn 0.001290 0.019143 0.999816
s off
g Keycard
usemtl KeycardSG
f 1/11/1 2/43/2 4/44/3 3/12/4
f 2/19/5 1/20/6 5/10/7 6/17/8
f 3/31/9 4/32/10 14/29/11 13/9/12
f 6/17/13 5/10/14 29/14/15 30/18/16
f 7/27/17 8/25/18 12/24/19 11/6/20
f 8/45/21 7/47/22 9/48/23 10/46/24
f 10/37/25 9/41/26 17/38/27 18/33/28
f 11/6/29 12/24/30 32/23/31 31/2/32
f 13/9/33 14/29/34 16/30/35 15/13/36
f 15/13/37 16/30/38 22/35/39 21/36/40
f 18/33/41 17/38/42 19/39/43 20/34/44
f 20/34/45 19/39/46 25/42/47 26/40/48
f 21/16/49 22/49/50 24/50/51 23/15/52
f 23/21/53 24/22/54 30/18/55 29/14/56
f 26/51/57 25/53/58 27/54/59 28/52/60
f 28/26/61 27/28/62 31/2/63 32/23/64
f 2/43/65 8/45/66 10/46/67 4/44/68
f 14/29/69 18/33/70 20/34/71 16/30/72
f 22/49/73 26/51/74 28/52/75 24/50/76
f 30/18/77 32/23/78 12/24/79 6/17/80
f 19/1/81 31/2/82 27/3/83 25/4/84
f 13/9/85 5/10/86 1/11/87 3/12/88
f 2/19/89 6/17/90 12/24/91 8/25/92
f 14/29/93 4/32/94 10/37/95 18/33/96
f 22/35/97 16/30/98 20/34/99 26/40/100
f 30/18/101 24/22/102 28/26/103 32/23/104
f 7/7/105 11/6/106 17/5/107 9/8/108
f 17/5/109 11/6/110 31/2/111 19/1/112
f 23/15/113 29/14/114 15/13/115 21/16/116
f 15/13/117 29/14/118 5/10/119 13/9/120
