# This file uses meters as units for non-parametric coordinates.

mtllib keycard.mtl
g default
v 129.232697 100.704552 0.593263
v 129.510361 100.589539 0.415301
v 129.232697 110.086540 0.593263
v 129.510361 110.201553 0.415301
v 128.194000 99.665833 0.593263
v 128.309006 99.388184 0.415301
v 129.232697 100.704552 -0.593286
v 129.510361 100.589539 -0.415324
v 129.232697 110.086540 -0.593286
v 129.510361 110.201553 -0.415324
v 128.194000 99.665833 -0.593286
v 128.309006 99.388184 -0.415324
v 128.194000 111.125259 0.593263
v 128.309006 111.402908 0.415301
v 112.804634 111.125259 0.593263
v 112.689621 111.402908 0.415301
v 128.194000 111.125259 -0.593286
v 128.309006 111.402908 -0.415324
v 112.804634 111.125259 -0.593286
v 112.689621 111.402908 -0.415324
v 111.765930 110.086540 0.593263
v 111.488274 110.201553 0.415301
v 111.765930 100.704552 0.593263
v 111.488274 100.589539 0.415301
v 111.765930 110.086540 -0.593286
v 111.488274 110.201553 -0.415324
v 111.765930 100.704552 -0.593286
v 111.488274 100.589539 -0.415324
v 112.804634 99.665833 0.593263
v 112.689621 99.388184 0.415301
v 112.804634 99.665833 -0.593286
v 112.689621 99.388184 -0.415324
vt 0.203959 0.033821
vt 0.207901 0.442702
vt 0.170486 0.405991
vt 0.167260 0.071235
vt 0.752867 0.028504
vt 0.756685 0.437279
vt 0.793396 0.399875
vt 0.790270 0.065204
vt 0.761238 0.898749
vt 0.757410 0.489965
vt 0.794813 0.526665
vt 0.797949 0.861345
vt 0.212572 0.904272
vt 0.208640 0.495400
vt 0.171941 0.532814
vt 0.175157 0.867561
vt 0.759176 0.478300
vt 0.206624 0.483846
vt 0.816509 0.478703
vt 0.811565 0.490513
vt 0.153599 0.496911
vt 0.148338 0.485191
vt 0.206138 0.454370
vt 0.758698 0.448830
vt 0.816981 0.447483
vt 0.148808 0.453968
vt 0.811720 0.435763
vt 0.153752 0.442157
vt 0.763249 0.910297
vt 0.210812 0.915942
vt 0.816270 0.897230
vt 0.821531 0.908949
vt 0.763722 0.939763
vt 0.211302 0.945423
vt 0.153483 0.915542
vt 0.158426 0.903731
vt 0.821057 0.940168
vt 0.761955 0.951427
vt 0.213319 0.956977
vt 0.153014 0.946765
vt 0.816113 0.951978
vt 0.158276 0.958486
vt 0.806540 0.522450
vt 0.809754 0.865336
vt 0.836173 0.522169
vt 0.839388 0.865055
vt 0.847977 0.526160
vt 0.851115 0.860841
vt 0.163431 0.871776
vt 0.160136 0.528822
vt 0.133796 0.872057
vt 0.130503 0.529104
vt 0.121991 0.868065
vt 0.118777 0.533319
vn 0.114066 -0.012033 0.993400
vn 0.968733 -0.106855 0.223916
vn 0.968733 0.106855 0.223915
vn 0.114066 0.012033 0.993400
vn 0.001290 -0.019143 0.999816
vn 0.068893 -0.972468 0.222619
vn 0.068893 0.972468 0.222619
vn 0.001290 0.019143 0.999816
vn -0.001290 -0.019143 0.999816
vn -0.068893 -0.972469 0.222616
vn 0.522503 -0.055120 -0.850854
vn 0.968733 -0.106855 -0.223916
vn 0.068893 -0.972468 -0.222619
vn 0.035626 -0.528787 -0.848006
vn 0.522504 0.055121 -0.850853
vn 0.968733 0.106855 -0.223915
vn 0.035627 0.528788 -0.848006
vn 0.068893 0.972468 -0.222619
vn -0.068893 -0.972469 -0.222616
vn -0.035626 -0.528789 -0.848006
vn -0.068893 0.972469 0.222617
vn -0.001290 0.019144 0.999816
vn -0.968735 0.106854 0.223910
vn -0.114066 0.012033 0.993400
vn -0.035625 0.528788 -0.848006
vn -0.068893 0.972469 -0.222617
vn -0.522511 0.055121 -0.850849
vn -0.968735 0.106854 -0.223910
vn -0.968735 -0.106854 0.223910
vn -0.114066 -0.012033 0.993400
vn -0.522513 -0.055122 -0.850848
vn -0.968735 -0.106855 -0.223910
vn 0.000000 0.000000 -1.000000
vn 0.000000 0.000000 -1.000000
vn 0.000000 0.000000 -1.000000
vn 0.000000 0.000000 -1.000000
vn -0.000000 0.000000 -1.000000
vn -0.000000 0.000000 -1.000000
vn -0.000000 0.000000 -1.000000
vn -0.000000 0.000000 -1.000000
s 1
g Keycard
usemtl initialShadingGroup
f 1/11/1 2/43/2 4/44/3 3/12/4
f 2/19/2 1/20/1 5/10/5 6/17/6
f 3/31/4 4/32/3 14/29/7 13/9/8
f 6/17/6 5/10/5 29/14/9 30/18/10
f 7/27/11 8/25/12 12/24/13 11/6/14
f 8/45/12 7/47/11 9/48/15 10/46/16
f 10/37/16 9/41/15 17/38/17 18/33/18
f 11/6/14 12/24/13 32/23/19 31/2/20
f 13/9/8 14/29/7 16/30/21 15/13/22
f 15/13/22 16/30/21 22/35/23 21/36/24
f 18/33/18 17/38/17 19/39/25 20/34/26
f 20/34/26 19/39/25 25/42/27 26/40/28
f 21/16/24 22/49/23 24/50/29 23/15/30
f 23/21/30 24/22/29 30/18/10 29/14/9
f 26/51/28 25/53/27 27/54/31 28/52/32
f 28/26/32 27/28/31 31/2/20 32/23/19
f 2/43/2 8/45/12 10/46/16 4/44/3
f 14/29/7 18/33/18 20/34/26 16/30/21
f 22/49/23 26/51/28 28/52/32 24/50/29
f 30/18/10 32/23/19 12/24/13 6/17/6
s 4
f 19/1/33 31/2/34 27/3/35 25/4/36
s 1
f 13/9/8 5/10/5 1/11/1 3/12/4
f 2/19/2 6/17/6 12/24/13 8/25/12
f 14/29/7 4/32/3 10/37/16 18/33/18
f 22/35/23 16/30/21 20/34/26 26/40/28
f 30/18/10 24/22/29 28/26/32 32/23/19
s 4
f 7/7/37 11/6/38 17/5/39 9/8/40
f 17/5/39 11/6/38 31/2/34 19/1/33
s 1
f 23/15/30 29/14/9 15/13/22 21/16/24
f 15/13/22 29/14/9 5/10/5 13/9/8
