# This file uses meters as units for non-parametric coordinates.

mtllib !mob base.mtl
g default
v -7.919177 0.086825 -85.819374
v -7.068861 2.726551 -87.803452
v -7.919177 0.086819 -122.775536
v -7.068861 2.726545 -120.791458
v 7.919177 0.086825 -85.819374
v 7.068861 2.726551 -87.803452
v 7.919177 0.086819 -122.775536
v 7.068861 2.726545 -120.791458
v -7.919177 2.726551 -85.819374
v -7.919177 2.726545 -122.775536
v 7.919177 2.726545 -122.775536
v 7.919177 2.726551 -85.819374
v -2.739245 3.889219 -101.501602
v -2.739246 3.889218 -107.093315
v 2.739251 3.889218 -107.093315
v 2.739251 3.889219 -101.501602
v -5.485025 3.889221 -89.387283
v -5.485025 3.889216 -119.207626
v 5.485025 3.889216 -119.207626
v 5.485025 3.889221 -89.387283
v -2.739245 4.496912 -101.501602
v -2.739246 4.496911 -107.093315
v 2.739251 4.496911 -107.093315
v 2.739251 4.496912 -101.501602
vt 0.538315 0.842683
vt 0.534893 0.864029
vt 0.258119 0.803245
vt 0.249644 0.815171
vt 0.269872 0.689579
vt 0.264497 0.671698
vt 0.273713 0.537901
vt 0.280558 0.666162
vt 0.294980 0.652015
vt 0.288921 0.546347
vt 0.301159 0.563021
vt 0.390586 0.639094
vt 0.393086 0.636298
vt 0.394184 0.593549
vt 0.396301 0.596489
vt 0.437663 0.597549
vt 0.435126 0.600312
vt 0.433563 0.642539
vt 0.431503 0.639672
vt 0.536906 0.687691
vt 0.525164 0.671586
vt 0.549447 0.572274
vt 0.534544 0.585935
vt 0.544133 0.711479
vt 0.551721 0.695720
vt 0.565884 0.567109
vt 0.562502 0.835677
vn -1.000000 0.000000 -0.000000
vn -1.000000 0.000000 -0.000000
vn -1.000000 0.000000 -0.000000
vn -1.000000 0.000000 -0.000000
vn 0.000000 -0.000000 -1.000000
vn 0.000000 -0.000000 -1.000000
vn 0.000000 -0.000000 -1.000000
vn 0.000000 -0.000000 -1.000000
vn 1.000000 0.000000 0.000000
vn 1.000000 0.000000 0.000000
vn 1.000000 0.000000 0.000000
vn 1.000000 0.000000 0.000000
vn 0.000000 0.000000 1.000000
vn 0.000000 0.000000 1.000000
vn 0.000000 0.000000 1.000000
vn 0.000000 0.000000 1.000000
vn 0.000000 0.806116 0.591758
vn 0.000000 0.806116 0.591758
vn 0.000000 0.806116 0.591758
vn 0.000000 0.806116 0.591758
vn 0.000000 1.000000 -0.000000
vn 0.000000 1.000000 -0.000000
vn 0.000000 1.000000 -0.000000
vn 0.000000 1.000000 -0.000000
vn 0.000000 1.000000 -0.000000
vn 0.000000 1.000000 -0.000000
vn 0.000000 1.000000 -0.000000
vn 0.000000 1.000000 -0.000000
vn 0.000000 1.000000 -0.000000
vn 0.000000 1.000000 -0.000000
vn 0.000000 1.000000 -0.000000
vn 0.000000 1.000000 -0.000000
vn 0.000000 1.000000 -0.000000
vn 0.000000 1.000000 -0.000000
vn 0.000000 1.000000 -0.000000
vn 0.000000 1.000000 -0.000000
vn 0.000000 0.806116 -0.591758
vn 0.000000 0.806116 -0.591758
vn 0.000000 0.806116 -0.591758
vn 0.000000 0.806116 -0.591758
vn 0.591758 0.806116 -0.000000
vn 0.591758 0.806116 -0.000000
vn 0.591758 0.806116 -0.000000
vn 0.591758 0.806116 -0.000000
vn -0.591758 0.806116 -0.000000
vn -0.591758 0.806116 -0.000000
vn -0.591758 0.806116 -0.000000
vn -0.591758 0.806116 -0.000000
vn 1.000000 -0.000000 -0.000000
vn 1.000000 -0.000000 -0.000000
vn 1.000000 -0.000000 -0.000000
vn 1.000000 -0.000000 -0.000000
vn 0.000000 -1.000000 0.000000
vn 0.000000 -1.000000 0.000000
vn 0.000000 -1.000000 0.000000
vn 0.000000 -1.000000 0.000000
vn 0.000000 1.000000 -0.000000
vn 0.000000 1.000000 -0.000000
vn 0.000000 1.000000 -0.000000
vn 0.000000 1.000000 -0.000000
vn 0.000000 1.000000 -0.000000
vn 0.000000 1.000000 -0.000000
vn 0.000000 1.000000 -0.000000
vn 0.000000 1.000000 -0.000000
vn 0.000000 1.000000 -0.000000
vn 0.000000 1.000000 -0.000000
vn 0.000000 1.000000 -0.000000
vn 0.000000 1.000000 -0.000000
vn 0.000000 1.000000 -0.000000
vn 0.000000 1.000000 -0.000000
vn 0.000000 1.000000 -0.000000
vn 0.000000 1.000000 -0.000000
vn 0.000000 1.000000 -0.000000
vn 0.000000 1.000000 -0.000000
vn 0.000000 1.000000 -0.000000
vn 0.000000 1.000000 -0.000000
vn -1.000000 0.000000 0.000000
vn -1.000000 0.000000 0.000000
vn -1.000000 0.000000 0.000000
vn -1.000000 0.000000 0.000000
vn 0.000000 0.000000 1.000000
vn 0.000000 0.000000 1.000000
vn 0.000000 0.000000 1.000000
vn 0.000000 0.000000 1.000000
vn 0.000000 -0.000000 -1.000000
vn 0.000000 -0.000000 -1.000000
vn 0.000000 -0.000000 -1.000000
vn 0.000000 -0.000000 -1.000000
s off
g mop_base outside_closet group1
usemtl aiLambert8SG
f 1/1/1 9/2/2 10/4/3 3/3/4
f 3/3/5 10/4/6 11/6/7 7/5/8
f 7/5/9 11/6/10 12/25/11 5/24/12
f 5/24/13 12/25/14 9/27/15 1/1/16
f 2/22/17 6/20/18 20/21/19 17/23/20
f 2/22/21 4/10/22 10/7/23 9/26/24
f 4/10/25 8/8/26 11/6/27 10/7/28
f 8/8/29 6/20/30 12/25/31 11/6/32
f 6/20/33 2/22/34 9/26/35 12/25/36
f 8/8/37 4/10/38 18/11/39 19/9/40
f 6/20/41 8/8/42 19/9/43 20/21/44
f 4/10/45 2/22/46 17/23/47 18/11/48
f 16/18/49 15/12/50 23/13/51 24/19/52
f 3/3/53 7/5/54 5/24/55 1/1/56
f 13/16/57 14/14/58 18/11/59 17/23/60
f 14/14/61 15/12/62 19/9/63 18/11/64
f 15/12/65 16/18/66 20/21/67 19/9/68
f 16/18/69 13/16/70 17/23/71 20/21/72
f 24/19/73 23/13/74 22/15/75 21/17/76
f 14/14/77 13/16/78 21/17/79 22/15/80
f 13/16/81 16/18/82 24/19/83 21/17/84
f 15/12/85 14/14/86 22/15/87 23/13/88
