# This file uses meters as units for non-parametric coordinates.

mtllib plate.mtl
g default
v -50.000000 108.962187 829.456508
v 50.000000 108.962187 829.456508
v -50.000000 118.454173 829.456508
v 50.000000 118.454173 829.456508
v -50.000000 118.454173 729.456508
v 50.000000 118.454173 729.456508
v -50.000000 108.962187 729.456508
v 50.000000 108.962187 729.456508
vt 0.335454 0.333333
vt 0.668787 0.333333
vt 0.335454 0.364973
vt 0.668787 0.364973
vt 0.335454 0.698307
vt 0.668787 0.698307
vt 0.335454 0.000000
vt 0.668787 0.729947
vt 1.000000 0.333333
vt 1.000000 0.364973
vt 0.000000 0.333333
vt 0.000000 0.364973
vt 0.335454 0.729947
vt 0.668787 0.000000
vn 0.000000 0.000000 1.000000
vn 0.000000 0.000000 1.000000
vn 0.000000 0.000000 1.000000
vn 0.000000 0.000000 1.000000
vn 0.000000 1.000000 0.000000
vn 0.000000 1.000000 0.000000
vn 0.000000 1.000000 0.000000
vn 0.000000 1.000000 0.000000
vn 0.000000 0.000000 -1.000000
vn 0.000000 0.000000 -1.000000
vn 0.000000 0.000000 -1.000000
vn 0.000000 0.000000 -1.000000
vn 0.000000 -1.000000 0.000000
vn 0.000000 -1.000000 0.000000
vn 0.000000 -1.000000 0.000000
vn 0.000000 -1.000000 0.000000
vn 1.000000 0.000000 0.000000
vn 1.000000 0.000000 0.000000
vn 1.000000 0.000000 0.000000
vn 1.000000 0.000000 0.000000
vn -1.000000 0.000000 0.000000
vn -1.000000 0.000000 0.000000
vn -1.000000 0.000000 0.000000
vn -1.000000 0.000000 0.000000
s off
g pCube1
usemtl initialShadingGroup
f 1/1/1 2/2/2 4/4/3 3/3/4
f 3/3/5 4/4/6 6/6/7 5/5/8
f 5/5/9 6/6/10 8/8/11 7/13/12
f 7/7/13 8/14/14 2/2/15 1/1/16
f 2/2/17 8/9/18 6/10/19 4/4/20
f 7/11/21 1/1/22 3/3/23 5/12/24
