# This file uses meters as units for non-parametric coordinates.

mtllib screwdriver.mtl
g default
v -375.371704 158.468887 -0.001280
v -376.371704 157.744980 0.060678
v -377.607758 157.744980 0.060678
v -378.607758 158.468887 -0.001280
v -378.989716 159.640167 -0.101528
v -378.607758 160.811462 -0.201777
v -377.607758 161.535355 -0.263734
v -376.371704 161.535355 -0.263734
v -375.371704 160.811462 -0.201777
v -374.989716 159.640167 -0.101528
v -376.989716 160.707001 12.363131
v -375.371704 159.454544 11.515110
v -376.018860 160.004181 12.423285
v -376.371704 158.730652 11.577066
v -376.618896 159.569809 12.460461
v -377.607758 158.730652 11.577066
v -377.360535 159.569809 12.460461
v -378.607758 159.454544 11.515110
v -377.960571 160.004181 12.423285
v -378.989716 160.625839 11.414862
v -378.189789 160.707001 12.363131
v -378.607758 161.797119 11.314613
v -377.960571 161.409821 12.302977
v -377.607758 162.521027 11.252655
v -377.360535 161.844193 12.265800
v -376.371704 162.521027 11.252655
v -376.618896 161.844193 12.265800
v -375.371704 161.797119 11.314613
v -376.018860 161.409821 12.302977
v -374.989716 160.625839 11.414862
v -375.789673 160.707001 12.363131
v -375.999878 158.836166 -1.061993
v -376.611572 158.393326 -1.024090
v -377.367706 158.393311 -1.024090
v -377.979553 158.836166 -1.061993
v -378.213196 159.552719 -1.123321
v -377.979553 160.269257 -1.184649
v -377.367706 160.712112 -1.222551
v -376.611572 160.712112 -1.222551
v -375.999878 160.269257 -1.184649
v -375.766174 159.552719 -1.123321
v -375.571167 158.428268 -2.175795
v -376.447876 157.793655 -2.121478
v -377.531464 157.793640 -2.121478
v -378.408234 158.428299 -2.175797
v -378.743103 159.455154 -2.263684
v -378.408234 160.481964 -2.351566
v -377.531464 161.116577 -2.405882
v -376.447876 161.116577 -2.405882
v -375.571167 160.481964 -2.351566
v -375.236206 159.455109 -2.263680
v -375.571167 158.349228 -3.099323
v -376.447876 157.714600 -3.045007
v -376.989716 159.376083 -3.187210
v -377.531464 157.714600 -3.045006
v -378.408234 158.349258 -3.099326
v -378.743103 159.376114 -3.187213
v -378.408234 160.402924 -3.275095
v -377.531464 161.037537 -3.329412
v -376.447876 161.037537 -3.329411
v -375.571167 160.402908 -3.275094
v -375.236206 159.376068 -3.187209
v -376.545746 159.966827 10.262757
v -376.895752 159.713470 10.284443
v -377.328369 159.713470 10.284443
v -377.678375 159.966827 10.262757
v -377.812012 160.376785 10.227671
v -377.678375 160.786743 10.192584
v -377.328369 161.040100 10.170898
v -376.895752 161.040100 10.170898
v -376.545746 160.786743 10.192584
v -376.412048 160.376785 10.227671
v -376.545746 158.379684 -8.281320
v -376.895752 158.126312 -8.259634
v -377.328369 158.126312 -8.259634
v -377.678375 158.379684 -8.281320
v -377.812012 158.789627 -8.316406
v -377.678375 159.199585 -8.351493
v -377.328369 159.452942 -8.373178
v -376.895752 159.452942 -8.373178
v -376.545746 159.199585 -8.351493
v -376.412048 158.789627 -8.316406
v -377.112061 160.376785 10.227671
v -376.056885 158.408325 -9.119600
v -376.709015 158.216553 -9.103187
v -377.515106 158.216553 -9.103187
v -378.167236 158.408325 -9.119600
v -378.416321 158.718613 -9.146157
v -378.167236 159.028900 -9.172714
v -377.515106 159.220673 -9.189128
v -376.709015 159.220673 -9.189128
v -376.056885 159.028900 -9.172714
v -375.807770 158.718613 -9.146157
v -376.413147 158.303894 -12.338581
v -376.845093 158.217087 -12.331151
v -377.112061 158.444351 -12.350602
v -377.379028 158.217102 -12.331153
v -377.810944 158.303909 -12.338582
v -377.975952 158.444351 -12.350602
v -377.810944 158.584808 -12.362623
v -377.379028 158.671616 -12.370053
v -376.845093 158.671600 -12.370051
v -376.413147 158.584793 -12.362622
v -376.248169 158.444351 -12.350602
vt 0.123967 0.104529
vt 0.129430 0.091507
vt 0.251357 0.142442
vt 0.245887 0.155482
vt 0.135027 0.078156
vt 0.256829 0.129398
vt 0.118503 0.117555
vt 0.240418 0.168519
vt 0.140489 0.065135
vt 0.262299 0.116357
vt 0.151415 0.039087
vt 0.156880 0.026059
vt 0.278705 0.077247
vt 0.273237 0.090282
vt 0.162345 0.013030
vt 0.284173 0.064213
vt 0.145951 0.052112
vt 0.267769 0.103318
vt 0.167812 0.000000
vt 0.289640 0.051181
vt 0.595427 0.120505
vt 0.587532 0.111942
vt 0.595647 0.104980
vt 0.603733 0.113776
vt 0.579847 0.104119
vt 0.587920 0.096987
vt 0.533639 0.043985
vt 0.541877 0.037254
vt 0.572491 0.096301
vt 0.580631 0.089209
vt 0.558785 0.079948
vt 0.552367 0.071356
vt 0.560924 0.064759
vt 0.567209 0.073197
vt 0.546160 0.062494
vt 0.554783 0.055963
vt 0.565479 0.088262
vt 0.573751 0.081325
vt 0.540026 0.053370
vt 0.548565 0.046772
vt 0.565837 0.036334
vt 0.554019 0.040684
vt 0.553237 0.020363
vt 0.572831 0.025874
vt 0.534199 0.027465
vt 0.572333 0.013304
vt 0.533669 0.014870
vt 0.564541 0.003430
vt 0.540638 0.004393
vt 0.552434 0.000025
vt 0.082477 0.072901
vt 0.095978 0.074369
vt 0.098059 0.082075
vt 0.086279 0.088811
vt 0.088783 0.057813
vt 0.098849 0.066930
vt 0.108930 0.075095
vt 0.104304 0.087082
vt 0.098757 0.099421
vt 0.102776 0.049341
vt 0.105565 0.062620
vt 0.112334 0.087466
vt 0.115186 0.100579
vt 0.119095 0.050765
vt 0.113554 0.063106
vt 0.119069 0.083116
vt 0.131465 0.061644
vt 0.119757 0.068217
vt 0.121822 0.075964
vt 0.521544 0.078848
vt 0.515100 0.069186
vt 0.528232 0.062369
vt 0.534265 0.071215
vt 0.509100 0.058936
vt 0.522613 0.053738
vt 0.528248 0.088280
vt 0.540601 0.080084
vt 0.580276 0.140256
vt 0.583769 0.126303
vt 0.535218 0.097572
vt 0.547217 0.088857
vt 0.567964 0.133457
vt 0.576341 0.120603
vt 0.542497 0.106747
vt 0.554113 0.097439
vt 0.558460 0.124789
vt 0.568724 0.113563
vt 0.550173 0.115818
vt 0.561287 0.105731
vt 0.113037 0.130584
vt 0.234951 0.181551
vt 0.504565 0.047025
vt 0.517800 0.045658
vt 0.526044 0.034355
vt 0.291632 0.009804
vt 0.292306 0.004912
vt 0.502793 0.033888
vt 0.502119 0.038781
vt 0.292979 0.000019
vt 0.503467 0.028995
vt 0.286244 0.048946
vt 0.286917 0.044053
vt 0.497405 0.073029
vt 0.496731 0.077922
vt 0.287591 0.039160
vt 0.498078 0.068137
vt 0.288264 0.034268
vt 0.498752 0.063244
vt 0.288938 0.029375
vt 0.499425 0.058352
vt 0.289612 0.024482
vt 0.500099 0.053459
vt 0.290285 0.019590
vt 0.500772 0.048566
vt 0.290959 0.014697
vt 0.501446 0.043674
vt 0.632764 0.032326
vt 0.633131 0.037433
vt 0.630123 0.040175
vt 0.632350 0.043584
vt 0.630717 0.048435
vt 0.628858 0.050133
vt 0.627482 0.048030
vt 0.627114 0.042945
vt 0.627898 0.036739
vt 0.629529 0.031907
vt 0.631387 0.030216
vt 0.585627 0.011729
vt 0.586465 0.006033
vt 0.596074 0.008810
vt 0.594808 0.015953
vt 0.587561 0.000795
vt 0.598727 0.000022
vt 0.577339 0.059956
vt 0.579046 0.055146
vt 0.589292 0.054698
vt 0.588400 0.062094
vt 0.579693 0.049165
vt 0.589851 0.050608
vt 0.579923 0.042776
vt 0.589638 0.046479
vt 0.579975 0.036477
vt 0.589538 0.039270
vt 0.580555 0.030388
vt 0.590768 0.030628
vt 0.582454 0.024257
vt 0.592837 0.023800
vt 0.584192 0.017927
vt 0.594193 0.019967
vt 0.631838 0.021786
vt 0.629942 0.026570
vt 0.634268 0.016151
vt 0.626478 0.053260
vt 0.627203 0.058290
vt 0.626254 0.050681
vt 0.626493 0.048089
vt 0.628634 0.031606
vt 0.629073 0.029030
vn 0.000000 -0.085279 -0.996357
vn -0.000000 -0.085276 -0.996357
vn 0.000000 -0.085277 -0.996357
vn -0.000000 -0.085274 -0.996358
vn 0.000000 -0.085277 -0.996357
vn 0.000000 -0.085279 -0.996357
vn -0.000000 -0.085278 -0.996357
vn 0.000000 -0.085276 -0.996357
vn 0.000000 -0.085277 -0.996357
vn -0.000000 -0.085276 -0.996357
vn -0.000000 -0.085275 -0.996357
vn 0.619320 -0.393439 0.679447
vn 0.619320 -0.393439 0.679447
vn 0.236561 -0.670531 0.703155
vn 0.236561 -0.670531 0.703155
vn 0.765512 0.054876 0.641077
vn 0.765512 0.054876 0.641077
vn -0.236555 -0.670531 0.703157
vn -0.236563 -0.670529 0.703157
vn -0.619313 -0.393446 0.679449
vn -0.619316 -0.393442 0.679449
vn -0.765515 0.054865 0.641074
vn -0.765515 0.054865 0.641074
vn -0.619309 0.503195 0.602702
vn -0.619314 0.503189 0.602703
vn -0.236558 0.780275 0.578975
vn -0.236565 0.780273 0.578975
vn 0.236570 0.780262 0.578987
vn 0.236570 0.780262 0.578987
vn 0.619320 0.503173 0.602710
vn 0.619322 0.503171 0.602710
vn 0.587780 -0.806074 0.068988
vn 0.587780 -0.806074 0.068988
vn 0.587248 -0.808974 0.026472
vn 0.587248 -0.808975 0.026470
vn 0.000000 -0.996357 0.085277
vn 0.000000 -0.996357 0.085277
vn 0.000000 -0.999086 0.042744
vn 0.000000 -0.999086 0.042740
vn -0.587796 -0.806062 0.068990
vn -0.587796 -0.806062 0.068990
vn -0.587261 -0.808964 0.026466
vn -0.587261 -0.808965 0.026464
vn -0.951055 -0.307895 0.026351
vn -0.951055 -0.307895 0.026351
vn -0.950192 -0.311248 -0.016132
vn -0.950192 -0.311248 -0.016132
vn -0.951055 0.307895 -0.026352
vn -0.951055 0.307895 -0.026352
vn -0.950192 0.303980 -0.068787
vn -0.950192 0.303980 -0.068788
vn -0.587780 0.806074 -0.068989
vn -0.587780 0.806074 -0.068989
vn -0.587245 0.801708 -0.111390
vn -0.587245 0.801708 -0.111387
vn 0.000000 0.996357 -0.085277
vn 0.000000 0.996357 -0.085277
vn 0.000000 0.991818 -0.127659
vn 0.000000 0.991819 -0.127655
vn 0.587780 0.806074 -0.068989
vn 0.587780 0.806074 -0.068989
vn 0.587248 0.801707 -0.111382
vn 0.587248 0.801707 -0.111380
vn 0.951055 0.307895 -0.026353
vn 0.951055 0.307895 -0.026353
vn 0.950191 0.303983 -0.068787
vn 0.950191 0.303983 -0.068788
vn 0.951055 -0.307895 0.026353
vn 0.951055 -0.307895 0.026353
vn 0.950191 -0.311251 -0.016128
vn 0.950191 -0.311251 -0.016128
vn 0.000000 0.085271 0.996358
vn 0.000000 0.085276 0.996357
vn 0.000000 0.085277 0.996357
vn 0.000000 0.085276 0.996357
vn 0.000000 0.085283 0.996357
vn 0.000000 0.085278 0.996357
vn -0.000001 0.085281 0.996357
vn -0.000001 0.085276 0.996357
vn 0.000001 0.085272 0.996358
vn 0.000001 0.085278 0.996357
vn 0.000000 0.085277 0.996357
vn 0.477005 -0.703955 -0.526227
vn 0.477005 -0.703955 -0.526227
vn 0.000006 -0.858376 -0.513021
vn 0.000006 -0.858376 -0.513021
vn -0.476974 -0.703948 -0.526264
vn -0.476974 -0.703948 -0.526264
vn -0.771779 -0.299661 -0.560856
vn -0.771779 -0.299661 -0.560856
vn -0.771774 0.199999 -0.603627
vn -0.771774 0.199999 -0.603627
vn -0.476962 0.604308 -0.638216
vn -0.476962 0.604308 -0.638216
vn 0.000000 0.758710 -0.651429
vn 0.000000 0.758710 -0.651429
vn 0.477008 0.604295 -0.638193
vn 0.477008 0.604295 -0.638193
vn 0.771775 0.200048 -0.603610
vn 0.771775 0.200048 -0.603610
vn 0.771781 -0.299711 -0.560827
vn 0.771781 -0.299711 -0.560827
vn 0.537957 -0.703358 0.464639
vn 0.537957 -0.703358 0.464639
vn 0.537957 -0.703358 0.464639
vn 0.537957 -0.703358 0.464639
vn 0.000015 -0.877527 0.479527
vn 0.000015 -0.877527 0.479527
vn 0.000015 -0.877527 0.479527
vn 0.000015 -0.877527 0.479527
vn -0.537916 -0.703397 0.464628
vn -0.537916 -0.703397 0.464628
vn -0.537916 -0.703397 0.464628
vn -0.537916 -0.703397 0.464628
vn -0.870424 -0.247398 0.425624
vn -0.870424 -0.247398 0.425624
vn -0.870424 -0.247398 0.425624
vn -0.870424 -0.247398 0.425624
vn -0.870412 0.316138 0.377412
vn -0.870412 0.316138 0.377412
vn -0.870412 0.316138 0.377412
vn -0.870412 0.316138 0.377412
vn -0.537912 0.772124 0.338342
vn -0.537912 0.772124 0.338342
vn -0.537912 0.772124 0.338342
vn -0.537912 0.772124 0.338342
vn 0.000000 0.946249 0.323438
vn 0.000000 0.946249 0.323438
vn 0.000000 0.946249 0.323438
vn 0.000000 0.946249 0.323438
vn 0.537961 0.772088 0.338346
vn 0.537961 0.772088 0.338346
vn 0.537961 0.772088 0.338346
vn 0.537961 0.772088 0.338346
vn 0.870378 0.316223 0.377420
vn 0.870378 0.316223 0.377420
vn 0.870378 0.316223 0.377420
vn 0.870378 0.316223 0.377420
vn 0.870382 -0.247494 0.425654
vn 0.870382 -0.247494 0.425654
vn 0.870382 -0.247494 0.425654
vn 0.870382 -0.247494 0.425654
vn 0.587772 -0.806080 0.068984
vn 0.587772 -0.806080 0.068984
vn 0.587772 -0.806080 0.068984
vn 0.587772 -0.806080 0.068984
vn 0.000007 -0.996358 0.085273
vn 0.000007 -0.996358 0.085273
vn 0.000007 -0.996358 0.085273
vn 0.000007 -0.996358 0.085273
vn -0.587751 -0.806095 0.068992
vn -0.587751 -0.806095 0.068992
vn -0.587751 -0.806095 0.068992
vn -0.587751 -0.806095 0.068992
vn -0.951054 -0.307898 0.026353
vn -0.951054 -0.307898 0.026353
vn -0.951054 -0.307898 0.026353
vn -0.951054 -0.307898 0.026353
vn -0.951041 0.307938 -0.026354
vn -0.951041 0.307938 -0.026354
vn -0.951041 0.307938 -0.026354
vn -0.951041 0.307938 -0.026354
vn -0.587738 0.806104 -0.068996
vn -0.587738 0.806104 -0.068996
vn -0.587738 0.806104 -0.068996
vn -0.587738 0.806104 -0.068996
vn 0.000000 0.996358 -0.085273
vn 0.000000 0.996358 -0.085273
vn 0.000000 0.996358 -0.085273
vn 0.000000 0.996358 -0.085273
vn 0.587771 0.806080 -0.068999
vn 0.587771 0.806080 -0.068999
vn 0.587771 0.806080 -0.068999
vn 0.587771 0.806080 -0.068999
vn 0.951027 0.307983 -0.026356
vn 0.951027 0.307983 -0.026356
vn 0.951027 0.307983 -0.026356
vn 0.951027 0.307983 -0.026356
vn 0.951026 -0.307985 0.026357
vn 0.951026 -0.307985 0.026357
vn 0.951026 -0.307985 0.026357
vn 0.951026 -0.307985 0.026357
vn 0.587798 -0.806060 0.068993
vn 0.587798 -0.806061 0.068993
vn 0.580332 -0.811331 0.070404
vn 0.576111 -0.814265 0.071195
vn 0.000000 -0.996358 0.085272
vn 0.000000 -0.996358 0.085272
vn 0.000000 -0.997397 0.072111
vn 0.000000 -0.997397 0.072111
vn -0.587798 -0.806060 0.068993
vn -0.587798 -0.806061 0.068993
vn -0.576111 -0.814265 0.071194
vn -0.580332 -0.811331 0.070403
vn -0.951096 -0.307769 0.026343
vn -0.951096 -0.307769 0.026343
vn -0.948376 -0.312895 0.051764
vn -0.949093 -0.311675 0.045620
vn -0.951098 0.307764 -0.026342
vn -0.951098 0.307764 -0.026342
vn -0.949095 0.314887 -0.008009
vn -0.948379 0.317133 -0.002162
vn -0.587787 0.806069 -0.068993
vn -0.587787 0.806069 -0.068993
vn -0.580319 0.811503 -0.068499
vn -0.576098 0.814529 -0.068218
vn 0.000000 0.996358 -0.085272
vn 0.000000 0.996358 -0.085272
vn 0.000000 0.995145 -0.098418
vn 0.000000 0.995145 -0.098418
vn 0.587787 0.806069 -0.068993
vn 0.587787 0.806069 -0.068993
vn 0.576098 0.814529 -0.068219
vn 0.580319 0.811503 -0.068499
vn 0.951045 0.307928 -0.026353
vn 0.951045 0.307928 -0.026353
vn 0.948325 0.317293 -0.002173
vn 0.949042 0.315048 -0.008021
vn 0.951043 -0.307933 0.026353
vn 0.951043 -0.307933 0.026353
vn 0.949041 -0.311834 0.045628
vn 0.948324 -0.313052 0.051773
vn 0.000000 0.085277 0.996357
vn 0.000000 0.085275 0.996358
vn 0.000000 0.085275 0.996357
vn 0.000000 0.085277 0.996357
vn 0.000000 0.085270 0.996358
vn 0.000000 0.085275 0.996358
vn 0.000002 0.085274 0.996358
vn 0.000002 0.085276 0.996357
vn -0.000002 0.085275 0.996358
vn -0.000002 0.085275 0.996358
vn 0.000000 0.085281 0.996357
vn 0.000000 -0.085273 -0.996358
vn 0.000001 -0.085281 -0.996357
vn 0.000000 -0.085279 -0.996357
vn 0.000000 -0.085259 -0.996359
vn 0.000000 -0.085287 -0.996356
vn 0.000000 -0.085272 -0.996358
vn 0.000000 -0.085256 -0.996359
vn 0.000001 -0.085285 -0.996357
vn 0.000000 -0.085271 -0.996358
vn 0.000000 -0.085271 -0.996358
vn 0.000000 -0.085272 -0.996358
vn 0.138292 -0.990391 -0.000364
vn 0.273259 -0.961865 0.012052
vn -0.138301 -0.990390 -0.000366
vn -0.273260 -0.961865 0.012049
vn -0.773745 -0.366985 0.516372
vn -0.773745 -0.366985 0.516372
vn -0.773753 0.449353 0.446529
vn -0.773753 0.449353 0.446529
vn -0.138291 0.975925 -0.168661
vn -0.273268 0.949919 -0.151584
vn 0.138296 0.975924 -0.168658
vn 0.273254 0.949924 -0.151580
vn 0.773726 0.449416 0.446513
vn 0.773726 0.449416 0.446513
vn 0.773745 -0.366985 0.516372
vn 0.773745 -0.366985 0.516372
vn 0.111529 -0.993760 -0.001617
vn 0.248824 -0.968543 -0.003395
vn -0.111540 -0.993759 -0.001617
vn -0.248824 -0.968543 -0.003396
vn -0.733292 -0.678001 -0.050969
vn -0.733292 -0.678001 -0.050969
vn -0.733292 -0.678001 -0.050969
vn -0.733292 -0.678001 -0.050969
vn -0.733212 0.659572 -0.165424
vn -0.733212 0.659572 -0.165424
vn -0.733212 0.659572 -0.165424
vn -0.733212 0.659572 -0.165424
vn -0.111531 0.979031 -0.170467
vn -0.248839 0.953874 -0.167940
vn 0.111538 0.979031 -0.170464
vn 0.248823 0.953879 -0.167935
vn 0.733199 0.659583 -0.165438
vn 0.733199 0.659583 -0.165438
vn 0.733199 0.659583 -0.165438
vn 0.733199 0.659583 -0.165438
vn 0.733242 -0.678055 -0.050960
vn 0.733242 -0.678055 -0.050960
vn 0.733242 -0.678055 -0.050960
vn 0.733242 -0.678055 -0.050960
s 1
g Screwdriver1
usemtl initialShadingGroup
f 52/41/1 53/42/2 54/43/3
f 53/42/2 55/28/4 54/43/3
f 55/28/4 56/45/5 54/43/3
f 56/45/5 57/47/6 54/43/3
f 57/47/6 58/49/7 54/43/3
f 58/49/7 59/50/8 54/43/3
f 59/50/8 60/48/9 54/43/3
f 60/48/9 61/46/10 54/43/3
f 61/46/10 62/44/11 54/43/3
f 62/44/11 52/41/1 54/43/3
s 2
f 12/51/12 13/52/13 15/53/14 14/54/15
f 13/52/13 12/51/12 30/55/16 31/56/17
f 14/54/15 15/53/14 17/58/18 16/59/19
f 16/59/19 17/58/18 19/62/20 18/63/21
f 18/63/21 19/62/20 21/66/22 20/2/23
f 20/2/23 21/66/22 23/69/24 22/5/25
f 22/5/25 23/69/24 25/68/26 24/67/27
f 24/67/27 25/68/26 27/65/28 26/64/29
f 26/64/29 27/65/28 29/61/30 28/60/31
f 28/60/31 29/61/30 31/56/17 30/55/16
s 3
f 12/15/32 14/19/33 2/20/34 1/16/35
s 4
f 14/90/36 16/7/37 3/8/38 2/91/39
s 5
f 16/7/40 18/1/41 4/4/42 3/8/43
s 6
f 18/1/44 20/2/45 5/3/46 4/4/47
s 7
f 20/2/48 22/5/49 6/6/50 5/3/51
s 8
f 22/5/52 24/9/53 7/10/54 6/6/55
s 9
f 24/9/56 26/17/57 8/18/58 7/10/59
s 10
f 26/17/60 28/11/61 9/14/62 8/18/63
s 11
f 28/11/64 30/12/65 10/13/66 9/14/67
s 12
f 30/12/68 12/15/69 1/16/70 10/13/71
s 13
f 15/53/72 13/52/73 11/57/74
f 17/58/75 15/53/72 11/57/74
f 19/62/76 17/58/75 11/57/74
f 21/66/77 19/62/76 11/57/74
f 23/69/78 21/66/77 11/57/74
f 25/68/79 23/69/78 11/57/74
f 27/65/80 25/68/79 11/57/74
f 29/61/81 27/65/80 11/57/74
f 31/56/82 29/61/81 11/57/74
f 13/52/73 31/56/82 11/57/74
s 3
f 1/70/35 2/71/34 33/72/83 32/73/84
s 4
f 2/71/39 3/74/38 34/75/85 33/72/86
s 5
f 3/74/43 4/92/42 35/93/87 34/75/88
s 6
f 4/78/47 5/82/46 36/83/89 35/79/90
s 7
f 5/82/51 6/86/50 37/87/91 36/83/92
s 8
f 6/86/55 7/88/54 38/89/93 37/87/94
s 9
f 7/88/59 8/84/58 39/85/95 38/89/96
s 10
f 8/84/63 9/80/62 40/81/97 39/85/98
s 11
f 9/80/67 10/76/66 41/77/99 40/81/100
s 12
f 10/76/71 1/70/70 32/73/101 41/77/102
s off
f 32/73/103 33/72/104 43/39/105 42/35/106
f 33/72/107 34/75/108 44/27/109 43/39/110
f 34/75/111 35/93/112 45/94/113 44/27/114
f 35/79/115 36/83/116 46/22/117 45/21/118
f 36/83/119 37/87/120 47/25/121 46/22/122
f 37/87/123 38/89/124 48/29/125 47/25/126
f 38/89/127 39/85/128 49/37/129 48/29/130
f 39/85/131 40/81/132 50/31/133 49/37/134
f 40/81/135 41/77/136 51/32/137 50/31/138
f 41/77/139 32/73/140 42/35/141 51/32/142
f 42/35/143 43/39/144 53/40/145 52/36/146
f 43/39/147 44/27/148 55/28/149 53/40/150
f 44/27/151 45/94/152 56/45/153 55/28/154
f 45/21/155 46/22/156 57/23/157 56/24/158
f 46/22/159 47/25/160 58/26/161 57/23/162
f 47/25/163 48/29/164 59/30/165 58/26/166
f 48/29/167 49/37/168 60/38/169 59/30/170
f 49/37/171 50/31/172 61/34/173 60/38/174
f 50/31/175 51/32/176 62/33/177 61/34/178
f 51/32/179 42/35/180 52/36/181 62/33/182
s 14
f 63/95/183 64/96/184 74/97/185 73/98/186
f 64/96/187 65/99/188 75/100/189 74/97/190
f 65/101/191 66/102/192 76/103/193 75/104/194
s 17
f 66/102/195 67/105/196 77/106/197 76/103/198
s 18
f 67/105/199 68/107/200 78/108/201 77/106/202
s 19
f 68/107/203 69/109/204 79/110/205 78/108/206
f 69/109/207 70/111/208 80/112/209 79/110/210
f 70/111/211 71/113/212 81/114/213 80/112/214
s 22
f 71/113/215 72/115/216 82/116/217 81/114/218
s 23
f 72/115/219 63/95/220 73/98/221 82/116/222
s 24
f 64//223 63//224 83//225
f 65//226 64//223 83//225
f 66//227 65//226 83//225
f 67//228 66//227 83//225
f 68//229 67//228 83//225
f 69//230 68//229 83//225
f 70//231 69//230 83//225
f 71//232 70//231 83//225
f 72//233 71//232 83//225
f 63//224 72//233 83//225
s 25
f 94/117/234 95/118/235 96/119/236
f 95/118/235 97/120/237 96/119/236
f 97/120/237 98/121/238 96/119/236
f 98/121/238 99/122/239 96/119/236
f 99/122/239 100/123/240 96/119/236
f 100/123/240 101/124/241 96/119/236
f 101/124/241 102/125/242 96/119/236
f 102/125/242 103/126/243 96/119/236
f 103/126/243 104/127/244 96/119/236
f 104/127/244 94/117/234 96/119/236
s 14
f 73/128/186 74/129/185 85/130/245 84/131/246
f 74/129/190 75/132/189 86/133/247 85/130/245
f 75/134/194 76/135/193 87/136/248 86/137/247
s 17
f 76/135/198 77/138/197 88/139/249 87/136/250
s 18
f 77/138/202 78/140/201 89/141/251 88/139/252
s 19
f 78/140/206 79/142/205 90/143/253 89/141/254
f 79/142/210 80/144/209 91/145/255 90/143/253
f 80/144/214 81/146/213 92/147/256 91/145/255
s 22
f 81/146/218 82/148/217 93/149/257 92/147/258
s 23
f 82/148/222 73/128/221 84/131/259 93/149/260
s 14
f 84/131/246 85/130/245 95/150/261 94/151/262
f 85/130/245 86/133/247 97/152/263 95/150/261
f 86/137/247 87/136/248 98/153/264 97/154/263
s off
f 87/136/265 88/139/266 99/155/267 98/153/268
f 88/139/269 89/141/270 100/156/271 99/155/272
s 19
f 89/141/254 90/143/253 101/124/273 100/156/274
f 90/143/253 91/145/255 102/125/275 101/124/273
f 91/145/255 92/147/256 103/157/276 102/125/275
s off
f 92/147/277 93/149/278 104/158/279 103/157/280
f 93/149/281 84/131/282 94/151/283 104/158/284
