# This file uses meters as units for non-parametric coordinates.

mtllib stairs.mtl
g default
v -19.116895 215.710033 29.832365
v 189.879568 -1.103175 29.832365
v -13.857717 220.779594 29.832365
v 195.138745 3.966386 29.832365
v -13.857717 220.779594 -29.832365
v 195.138745 3.966386 -29.832365
v -19.116895 215.710033 -29.832365
v 189.879568 -1.103175 -29.832365
v -1.544311 205.613685 18.160507
v -2.087512 205.613685 17.094414
v -2.933568 205.613685 16.248359
v -3.999660 205.613685 15.705158
v -5.181431 205.613685 15.517983
v -6.363203 205.613685 15.705158
v -7.429294 205.613685 16.248359
v -8.275350 205.613685 17.094415
v -8.818552 205.613685 18.160508
v -9.005726 205.613685 19.342280
v -8.818552 205.613685 20.524051
v -8.275350 205.613685 21.590144
v -7.429294 205.613685 22.436199
v -6.363203 205.613685 22.979400
v -5.181431 205.613685 23.166575
v -3.999660 205.613685 22.979400
v -2.933568 205.613685 22.436199
v -2.087512 205.613685 21.590144
v -1.544311 205.613685 20.524051
v -1.357136 205.613685 19.342280
v -1.544311 669.539759 18.160507
v -2.087512 669.539759 17.094414
v -2.933568 669.539759 16.248359
v -3.999660 669.539759 15.705158
v -5.181431 669.539759 15.517983
v -6.363203 669.539759 15.705158
v -7.429294 669.539759 16.248359
v -8.275350 669.539759 17.094415
v -8.818552 669.539759 18.160508
v -9.005726 669.539759 19.342280
v -8.818552 669.539759 20.524051
v -8.275350 669.539759 21.590144
v -7.429294 669.539759 22.436199
v -6.363203 669.539759 22.979400
v -5.181431 669.539759 23.166575
v -3.999660 669.539759 22.979400
v -2.933568 669.539759 22.436199
v -2.087512 669.539759 21.590144
v -1.544311 669.539759 20.524051
v -1.357136 669.539759 19.342280
v -5.181431 205.613685 19.342280
v -5.181431 669.539759 19.342280
v -1.544311 205.613685 -23.331258
v -2.087512 205.613685 -24.397350
v -2.933568 205.613685 -25.243406
v -3.999660 205.613685 -25.786607
v -5.181431 205.613685 -25.973782
v -6.363203 205.613685 -25.786607
v -7.429294 205.613685 -25.243406
v -8.275350 205.613685 -24.397350
v -8.818552 205.613685 -23.331257
v -9.005726 205.613685 -22.149485
v -8.818552 205.613685 -20.967714
v -8.275350 205.613685 -19.901621
v -7.429294 205.613685 -19.055566
v -6.363203 205.613685 -18.512365
v -5.181431 205.613685 -18.325190
v -3.999660 205.613685 -18.512365
v -2.933568 205.613685 -19.055566
v -2.087512 205.613685 -19.901621
v -1.544311 205.613685 -20.967714
v -1.357136 205.613685 -22.149485
v -1.544311 669.539759 -23.331258
v -2.087512 669.539759 -24.397350
v -2.933568 669.539759 -25.243406
v -3.999660 669.539759 -25.786607
v -5.181431 669.539759 -25.973782
v -6.363203 669.539759 -25.786607
v -7.429294 669.539759 -25.243406
v -8.275350 669.539759 -24.397350
v -8.818552 669.539759 -23.331257
v -9.005726 669.539759 -22.149485
v -8.818552 669.539759 -20.967714
v -8.275350 669.539759 -19.901621
v -7.429294 669.539759 -19.055566
v -6.363203 669.539759 -18.512365
v -5.181431 669.539759 -18.325190
v -3.999660 669.539759 -18.512365
v -2.933568 669.539759 -19.055566
v -2.087512 669.539759 -19.901621
v -1.544311 669.539759 -20.967714
v -1.357136 669.539759 -22.149485
v -5.181431 205.613685 -22.149485
v -5.181431 669.539759 -22.149485
vt 0.126011 0.126210
vt 0.762024 0.126013
vt 0.126016 0.141637
vt 0.762028 0.141441
vt 0.126055 0.267648
vt 0.762067 0.267452
vt 0.125972 0.000198
vt 0.762072 0.282879
vt 0.888035 0.125974
vt 0.888040 0.141402
vt 0.000000 0.126249
vt 0.000005 0.141676
vt 0.893426 0.000002
vt 0.895953 0.000002
vt 0.895953 0.979809
vt 0.893426 0.979809
vt 0.898480 0.000002
vt 0.898480 0.979809
vt 0.901007 0.000002
vt 0.901007 0.979809
vt 0.903534 0.000002
vt 0.903534 0.979809
vt 0.906061 0.000002
vt 0.906061 0.979809
vt 0.908588 0.000002
vt 0.908588 0.979809
vt 0.911115 0.000002
vt 0.911115 0.979809
vt 0.913642 0.000002
vt 0.913642 0.979809
vt 0.916169 0.000002
vt 0.916169 0.979809
vt 0.918696 0.000002
vt 0.918696 0.979809
vt 0.921223 0.000002
vt 0.921223 0.979809
vt 0.923750 0.000002
vt 0.923750 0.979809
vt 0.926277 0.000002
vt 0.926277 0.979809
vt 0.928804 0.000002
vt 0.928804 0.979809
vt 0.931331 0.000002
vt 0.931331 0.979809
vt 0.933858 0.000002
vt 0.933858 0.979809
vt 0.936385 0.000002
vt 0.936385 0.979809
vt 0.938912 0.000002
vt 0.938912 0.979809
vt 0.941439 0.000002
vt 0.941439 0.979809
vt 0.943966 0.000002
vt 0.943966 0.979809
vt 0.015344 0.004538
vt 0.015984 0.006988
vt 0.007992 0.007992
vt 0.013913 0.002431
vt 0.011872 0.000933
vt 0.009499 0.000106
vt 0.006988 0.000000
vt 0.004538 0.000641
vt 0.002431 0.002071
vt 0.000933 0.004113
vt 0.000106 0.006486
vt 0.000000 0.008997
vt 0.000641 0.011447
vt 0.002071 0.013553
vt 0.004113 0.015052
vt 0.006486 0.015878
vt 0.008996 0.015984
vt 0.011447 0.015344
vt 0.013553 0.013913
vt 0.015052 0.011872
vt 0.015878 0.009499
vt 0.080691 0.011299
vt 0.079355 0.013451
vt 0.073352 0.007979
vt 0.077366 0.015041
vt 0.074973 0.015869
vt 0.072462 0.015958
vt 0.070032 0.015318
vt 0.067880 0.013983
vt 0.066290 0.011994
vt 0.065461 0.009601
vt 0.065373 0.007089
vt 0.066012 0.004659
vt 0.067348 0.002508
vt 0.069337 0.000918
vt 0.071730 0.000089
vt 0.074241 0.000000
vt 0.076671 0.000640
vt 0.078823 0.001976
vt 0.080413 0.003965
vt 0.081242 0.006358
vt 0.081331 0.008869
vt 0.949460 0.000002
vt 0.951987 0.000002
vt 0.951987 0.979809
vt 0.949460 0.979809
vt 0.954514 0.000002
vt 0.954514 0.979809
vt 0.957041 0.000002
vt 0.957041 0.979809
vt 0.959568 0.000002
vt 0.959568 0.979809
vt 0.962095 0.000002
vt 0.962095 0.979809
vt 0.964622 0.000002
vt 0.964622 0.979809
vt 0.967149 0.000002
vt 0.967149 0.979809
vt 0.969676 0.000002
vt 0.969676 0.979809
vt 0.972203 0.000002
vt 0.972203 0.979809
vt 0.974730 0.000002
vt 0.974730 0.979809
vt 0.977257 0.000002
vt 0.977257 0.979809
vt 0.979784 0.000002
vt 0.979784 0.979809
vt 0.982311 0.000002
vt 0.982311 0.979809
vt 0.984838 0.000002
vt 0.984838 0.979809
vt 0.987365 0.000002
vt 0.987365 0.979809
vt 0.989892 0.000002
vt 0.989892 0.979809
vt 0.992419 0.000002
vt 0.992419 0.979809
vt 0.994946 0.000002
vt 0.994946 0.979809
vt 0.997473 0.000002
vt 0.997473 0.979809
vt 1.000000 0.000002
vt 1.000000 0.979809
vt 0.035843 0.002584
vt 0.037155 0.004750
vt 0.029779 0.007988
vt 0.033872 0.000972
vt 0.031488 0.000117
vt 0.028978 0.000000
vt 0.026541 0.000613
vt 0.024375 0.001925
vt 0.022763 0.003896
vt 0.021907 0.006280
vt 0.021791 0.008790
vt 0.022404 0.011227
vt 0.023715 0.013393
vt 0.025687 0.015005
vt 0.028070 0.015860
vt 0.030581 0.015977
vt 0.033018 0.015364
vt 0.035184 0.014052
vt 0.036796 0.012081
vt 0.037651 0.009697
vt 0.037767 0.007187
vt 0.058900 0.011299
vt 0.057564 0.013451
vt 0.051561 0.007979
vt 0.055575 0.015041
vt 0.053182 0.015869
vt 0.050671 0.015958
vt 0.048241 0.015318
vt 0.046089 0.013983
vt 0.044499 0.011994
vt 0.043671 0.009601
vt 0.043582 0.007090
vt 0.044222 0.004660
vt 0.045557 0.002508
vt 0.047546 0.000918
vt 0.049939 0.000089
vt 0.052450 0.000000
vt 0.054880 0.000640
vt 0.057032 0.001976
vt 0.058622 0.003965
vt 0.059451 0.006358
vt 0.059540 0.008869
vt 0.126060 0.283076
vt 0.761985 0.000002
vn 0.000000 0.000000 1.000000
vn 0.000000 0.000000 1.000000
vn 0.000000 0.000000 1.000000
vn 0.000000 0.000000 1.000000
vn 0.719966 0.694009 0.000000
vn 0.719966 0.694009 0.000000
vn 0.719966 0.694009 0.000000
vn 0.719966 0.694009 0.000000
vn 0.000000 0.000000 -1.000000
vn 0.000000 0.000000 -1.000000
vn 0.000000 0.000000 -1.000000
vn 0.000000 0.000000 -1.000000
vn -0.719966 -0.694009 0.000000
vn -0.719966 -0.694009 0.000000
vn -0.719966 -0.694009 0.000000
vn -0.719966 -0.694009 0.000000
vn 0.694008 -0.719967 0.000000
vn 0.694008 -0.719967 0.000000
vn 0.694008 -0.719967 0.000000
vn 0.694008 -0.719967 0.000000
vn -0.694009 0.719967 0.000000
vn -0.694009 0.719967 0.000000
vn -0.694009 0.719967 0.000000
vn -0.694009 0.719967 0.000000
vn 0.951056 0.000000 -0.309017
vn 0.809017 0.000000 -0.587786
vn 0.809017 0.000000 -0.587786
vn 0.951056 0.000000 -0.309017
vn 0.809017 0.000000 -0.587786
vn 0.587785 0.000000 -0.809017
vn 0.587785 0.000000 -0.809017
vn 0.809017 0.000000 -0.587786
vn 0.587785 0.000000 -0.809017
vn 0.309018 0.000000 -0.951056
vn 0.309018 0.000000 -0.951056
vn 0.587785 0.000000 -0.809017
vn 0.309018 0.000000 -0.951056
vn 0.000000 0.000000 -1.000000
vn 0.000000 0.000000 -1.000000
vn 0.309018 0.000000 -0.951056
vn 0.000000 0.000000 -1.000000
vn -0.309018 0.000000 -0.951056
vn -0.309018 0.000000 -0.951056
vn 0.000000 0.000000 -1.000000
vn -0.309018 0.000000 -0.951056
vn -0.587786 0.000000 -0.809017
vn -0.587786 0.000000 -0.809017
vn -0.309018 0.000000 -0.951056
vn -0.587786 0.000000 -0.809017
vn -0.809017 0.000000 -0.587785
vn -0.809017 0.000000 -0.587785
vn -0.587786 0.000000 -0.809017
vn -0.809017 0.000000 -0.587785
vn -0.951056 0.000000 -0.309017
vn -0.951056 0.000000 -0.309017
vn -0.809017 0.000000 -0.587785
vn -0.951056 0.000000 -0.309017
vn -1.000000 0.000000 0.000000
vn -1.000000 0.000000 0.000000
vn -0.951056 0.000000 -0.309017
vn -1.000000 0.000000 0.000000
vn -0.951056 0.000000 0.309017
vn -0.951056 0.000000 0.309017
vn -1.000000 0.000000 0.000000
vn -0.951056 0.000000 0.309017
vn -0.809017 0.000000 0.587786
vn -0.809017 0.000000 0.587786
vn -0.951056 0.000000 0.309017
vn -0.809017 0.000000 0.587786
vn -0.587785 0.000000 0.809017
vn -0.587785 0.000000 0.809017
vn -0.809017 0.000000 0.587786
vn -0.587785 0.000000 0.809017
vn -0.309018 0.000000 0.951056
vn -0.309018 0.000000 0.951056
vn -0.587785 0.000000 0.809017
vn -0.309018 0.000000 0.951056
vn 0.000000 0.000000 1.000000
vn 0.000000 0.000000 1.000000
vn -0.309018 0.000000 0.951056
vn 0.000000 0.000000 1.000000
vn 0.309018 0.000000 0.951056
vn 0.309018 0.000000 0.951056
vn 0.000000 0.000000 1.000000
vn 0.309018 0.000000 0.951056
vn 0.587785 0.000000 0.809017
vn 0.587785 0.000000 0.809017
vn 0.309018 0.000000 0.951056
vn 0.587785 0.000000 0.809017
vn 0.809017 0.000000 0.587786
vn 0.809017 0.000000 0.587786
vn 0.587785 0.000000 0.809017
vn 0.809017 0.000000 0.587786
vn 0.951056 0.000000 0.309017
vn 0.951056 0.000000 0.309017
vn 0.809017 0.000000 0.587786
vn 0.951056 0.000000 0.309017
vn 1.000000 0.000000 0.000000
vn 1.000000 0.000000 0.000000
vn 0.951056 0.000000 0.309017
vn 1.000000 0.000000 0.000000
vn 0.951056 0.000000 -0.309017
vn 0.951056 0.000000 -0.309017
vn 1.000000 0.000000 0.000000
vn 0.000000 -1.000000 0.000007
vn 0.000000 -1.000000 0.000007
vn 0.000000 -1.000000 0.000000
vn 0.000000 -1.000000 0.000000
vn 0.000000 -1.000000 0.000007
vn 0.000000 -1.000000 0.000000
vn 0.000000 -1.000000 0.000000
vn 0.000000 -1.000000 0.000000
vn 0.000000 -1.000000 0.000000
vn 0.000000 -1.000000 0.000000
vn 0.000000 -1.000000 0.000000
vn 0.000000 -1.000000 0.000000
vn 0.000000 -1.000000 0.000000
vn 0.000000 -1.000000 0.000000
vn 0.000000 -1.000000 0.000000
vn 0.000000 -1.000000 0.000000
vn 0.000000 -1.000000 0.000000
vn 0.000000 -1.000000 0.000000
vn 0.000000 -1.000000 0.000000
vn 0.000000 -1.000000 0.000000
vn 0.000000 -1.000000 0.000000
vn 0.000000 -1.000000 0.000000
vn 0.000000 -1.000000 0.000000
vn 0.000000 -1.000000 0.000000
vn 0.000000 -1.000000 0.000000
vn 0.000000 -1.000000 0.000000
vn 0.000000 -1.000000 0.000000
vn 0.000000 -1.000000 -0.000007
vn 0.000000 -1.000000 0.000000
vn 0.000000 -1.000000 0.000000
vn 0.000000 -1.000000 -0.000007
vn 0.000000 -1.000000 -0.000007
vn 0.000000 -1.000000 0.000000
vn 0.000000 -1.000000 0.000000
vn 0.000000 -1.000000 -0.000007
vn 0.000000 -1.000000 0.000000
vn 0.000000 -1.000000 0.000000
vn 0.000000 -1.000000 0.000000
vn 0.000000 -1.000000 0.000000
vn 0.000000 -1.000000 0.000000
vn 0.000000 -1.000000 0.000000
vn 0.000000 -1.000000 0.000000
vn 0.000000 -1.000000 0.000000
vn 0.000000 -1.000000 0.000000
vn 0.000000 -1.000000 0.000000
vn 0.000000 -1.000000 0.000000
vn 0.000000 -1.000000 0.000000
vn 0.000000 -1.000000 0.000000
vn 0.000000 -1.000000 0.000000
vn 0.000000 -1.000000 0.000000
vn 0.000000 -1.000000 0.000000
vn 0.000000 -1.000000 0.000000
vn 0.000000 -1.000000 0.000000
vn 0.000000 -1.000000 0.000000
vn 0.000000 -1.000000 0.000000
vn 0.000000 -1.000000 0.000000
vn 0.000000 -1.000000 0.000000
vn 0.000000 -1.000000 0.000007
vn 0.000000 -1.000000 0.000000
vn 0.000000 -1.000000 0.000000
vn 0.000000 1.000000 0.000060
vn 0.000000 1.000000 0.000000
vn 0.000000 1.000000 0.000000
vn 0.000000 1.000000 0.000000
vn 0.000000 1.000000 0.000000
vn 0.000000 1.000000 0.000000
vn 0.000000 1.000000 0.000000
vn 0.000000 1.000000 0.000000
vn 0.000000 1.000000 0.000000
vn 0.000000 1.000000 0.000000
vn 0.000000 1.000000 0.000000
vn 0.000000 1.000000 0.000000
vn 0.000000 1.000000 0.000000
vn 0.000000 1.000000 0.000000
vn 0.000000 1.000000 0.000000
vn 0.000000 1.000000 0.000000
vn 0.000000 1.000000 0.000000
vn 0.000000 1.000000 0.000000
vn 0.000000 1.000000 0.000000
vn 0.000000 1.000000 -0.000030
vn 0.000000 1.000000 0.000000
vn 0.000000 1.000000 -0.000030
vn 0.000000 1.000000 0.000030
vn 0.000000 1.000000 0.000000
vn 0.000000 1.000000 0.000030
vn 0.000000 1.000000 0.000000
vn 0.000000 1.000000 0.000000
vn 0.000000 1.000000 0.000000
vn 0.000000 1.000000 -0.000060
vn 0.000000 1.000000 0.000000
vn 0.000000 1.000000 -0.000060
vn 0.000000 1.000000 0.000000
vn 0.000000 1.000000 0.000000
vn 0.000000 1.000000 0.000000
vn 0.000000 1.000000 0.000000
vn 0.000000 1.000000 0.000000
vn 0.000000 1.000000 0.000000
vn 0.000000 1.000000 0.000000
vn 0.000000 1.000000 0.000000
vn 0.000000 1.000000 0.000000
vn 0.000000 1.000000 0.000000
vn 0.000000 1.000000 0.000000
vn 0.000000 1.000000 0.000000
vn 0.000000 1.000000 0.000000
vn 0.000000 1.000000 0.000000
vn 0.000000 1.000000 0.000000
vn 0.000000 1.000000 0.000000
vn 0.000000 1.000000 0.000000
vn 0.000000 1.000000 0.000000
vn 0.000000 1.000000 0.000030
vn 0.000000 1.000000 0.000000
vn 0.000000 1.000000 0.000030
vn 0.000000 1.000000 -0.000030
vn 0.000000 1.000000 0.000000
vn 0.000000 1.000000 -0.000030
vn 0.000000 1.000000 0.000000
vn 0.000000 1.000000 0.000000
vn 0.000000 1.000000 0.000000
vn 0.000000 1.000000 0.000060
vn 0.000000 1.000000 0.000000
vn 0.951056 0.000000 -0.309017
vn 0.809017 0.000000 -0.587785
vn 0.809017 0.000000 -0.587785
vn 0.951056 0.000000 -0.309017
vn 0.809017 0.000000 -0.587785
vn 0.587785 0.000000 -0.809017
vn 0.587785 0.000000 -0.809017
vn 0.809017 0.000000 -0.587785
vn 0.587785 0.000000 -0.809017
vn 0.309017 0.000000 -0.951056
vn 0.309017 0.000000 -0.951056
vn 0.587785 0.000000 -0.809017
vn 0.309017 0.000000 -0.951056
vn 0.000000 0.000000 -1.000000
vn 0.000000 0.000000 -1.000000
vn 0.309017 0.000000 -0.951056
vn 0.000000 0.000000 -1.000000
vn -0.309017 0.000000 -0.951056
vn -0.309017 0.000000 -0.951056
vn 0.000000 0.000000 -1.000000
vn -0.309017 0.000000 -0.951056
vn -0.587785 0.000000 -0.809017
vn -0.587785 0.000000 -0.809017
vn -0.309017 0.000000 -0.951056
vn -0.587785 0.000000 -0.809017
vn -0.809017 0.000000 -0.587785
vn -0.809017 0.000000 -0.587785
vn -0.587785 0.000000 -0.809017
vn -0.809017 0.000000 -0.587785
vn -0.951056 0.000000 -0.309017
vn -0.951056 0.000000 -0.309017
vn -0.809017 0.000000 -0.587785
vn -0.951056 0.000000 -0.309017
vn -1.000000 0.000000 0.000000
vn -1.000000 0.000000 0.000000
vn -0.951056 0.000000 -0.309017
vn -1.000000 0.000000 0.000000
vn -0.951056 0.000000 0.309017
vn -0.951056 0.000000 0.309017
vn -1.000000 0.000000 0.000000
vn -0.951056 0.000000 0.309017
vn -0.809017 0.000000 0.587785
vn -0.809017 0.000000 0.587785
vn -0.951056 0.000000 0.309017
vn -0.809017 0.000000 0.587785
vn -0.587785 0.000000 0.809017
vn -0.587785 0.000000 0.809017
vn -0.809017 0.000000 0.587785
vn -0.587785 0.000000 0.809017
vn -0.309017 0.000000 0.951056
vn -0.309017 0.000000 0.951056
vn -0.587785 0.000000 0.809017
vn -0.309017 0.000000 0.951056
vn 0.000000 0.000000 1.000000
vn 0.000000 0.000000 1.000000
vn -0.309017 0.000000 0.951056
vn 0.000000 0.000000 1.000000
vn 0.309017 0.000000 0.951056
vn 0.309017 0.000000 0.951056
vn 0.000000 0.000000 1.000000
vn 0.309017 0.000000 0.951056
vn 0.587785 0.000000 0.809017
vn 0.587785 0.000000 0.809017
vn 0.309017 0.000000 0.951056
vn 0.587785 0.000000 0.809017
vn 0.809017 0.000000 0.587785
vn 0.809017 0.000000 0.587785
vn 0.587785 0.000000 0.809017
vn 0.809017 0.000000 0.587785
vn 0.951056 0.000000 0.309017
vn 0.951056 0.000000 0.309017
vn 0.809017 0.000000 0.587785
vn 0.951056 0.000000 0.309017
vn 1.000000 0.000000 0.000000
vn 1.000000 0.000000 0.000000
vn 0.951056 0.000000 0.309017
vn 1.000000 0.000000 0.000000
vn 0.951056 0.000000 -0.309017
vn 0.951056 0.000000 -0.309017
vn 1.000000 0.000000 0.000000
vn 0.000000 -1.000000 0.000007
vn 0.000000 -1.000000 0.000007
vn 0.000000 -1.000000 0.000000
vn 0.000000 -1.000000 0.000000
vn 0.000000 -1.000000 0.000007
vn 0.000000 -1.000000 0.000000
vn 0.000000 -1.000000 0.000000
vn 0.000000 -1.000000 0.000000
vn 0.000000 -1.000000 0.000000
vn 0.000000 -1.000000 0.000000
vn 0.000000 -1.000000 0.000000
vn 0.000000 -1.000000 0.000000
vn 0.000000 -1.000000 0.000000
vn 0.000000 -1.000000 0.000000
vn 0.000000 -1.000000 0.000000
vn 0.000000 -1.000000 0.000000
vn 0.000000 -1.000000 0.000000
vn 0.000000 -1.000000 0.000000
vn 0.000000 -1.000000 0.000000
vn 0.000000 -1.000000 0.000000
vn 0.000000 -1.000000 0.000000
vn 0.000000 -1.000000 0.000000
vn 0.000000 -1.000000 0.000000
vn 0.000000 -1.000000 0.000000
vn 0.000000 -1.000000 0.000000
vn 0.000000 -1.000000 0.000000
vn 0.000000 -1.000000 0.000000
vn 0.000000 -1.000000 -0.000007
vn 0.000000 -1.000000 0.000000
vn 0.000000 -1.000000 0.000000
vn 0.000000 -1.000000 -0.000007
vn 0.000000 -1.000000 -0.000007
vn 0.000000 -1.000000 0.000000
vn 0.000000 -1.000000 0.000000
vn 0.000000 -1.000000 -0.000007
vn 0.000000 -1.000000 0.000000
vn 0.000000 -1.000000 0.000000
vn 0.000000 -1.000000 0.000000
vn 0.000000 -1.000000 0.000000
vn 0.000000 -1.000000 0.000000
vn 0.000000 -1.000000 0.000000
vn 0.000000 -1.000000 0.000000
vn 0.000000 -1.000000 0.000000
vn 0.000000 -1.000000 0.000000
vn 0.000000 -1.000000 0.000000
vn 0.000000 -1.000000 0.000000
vn 0.000000 -1.000000 0.000000
vn 0.000000 -1.000000 0.000000
vn 0.000000 -1.000000 0.000000
vn 0.000000 -1.000000 0.000000
vn 0.000000 -1.000000 0.000000
vn 0.000000 -1.000000 0.000000
vn 0.000000 -1.000000 0.000000
vn 0.000000 -1.000000 0.000000
vn 0.000000 -1.000000 0.000000
vn 0.000000 -1.000000 0.000000
vn 0.000000 -1.000000 0.000000
vn 0.000000 -1.000000 0.000007
vn 0.000000 -1.000000 0.000000
vn 0.000000 -1.000000 0.000000
vn 0.000000 1.000000 0.000060
vn 0.000000 1.000000 0.000000
vn 0.000000 1.000000 0.000000
vn 0.000000 1.000000 0.000000
vn 0.000000 1.000000 0.000000
vn 0.000000 1.000000 0.000000
vn 0.000000 1.000000 0.000000
vn 0.000000 1.000000 0.000000
vn 0.000000 1.000000 0.000000
vn 0.000000 1.000000 0.000000
vn 0.000000 1.000000 0.000000
vn 0.000000 1.000000 0.000000
vn 0.000000 1.000000 0.000000
vn 0.000000 1.000000 0.000000
vn 0.000000 1.000000 0.000000
vn 0.000000 1.000000 0.000000
vn 0.000000 1.000000 0.000000
vn 0.000000 1.000000 0.000000
vn 0.000000 1.000000 0.000000
vn 0.000000 1.000000 -0.000030
vn 0.000000 1.000000 0.000000
vn 0.000000 1.000000 -0.000030
vn 0.000000 1.000000 0.000030
vn 0.000000 1.000000 0.000000
vn 0.000000 1.000000 0.000030
vn 0.000000 1.000000 0.000000
vn 0.000000 1.000000 0.000000
vn 0.000000 1.000000 0.000000
vn 0.000000 1.000000 -0.000060
vn 0.000000 1.000000 0.000000
vn 0.000000 1.000000 -0.000060
vn 0.000000 1.000000 0.000000
vn 0.000000 1.000000 0.000000
vn 0.000000 1.000000 0.000000
vn 0.000000 1.000000 0.000000
vn 0.000000 1.000000 0.000000
vn 0.000000 1.000000 0.000000
vn 0.000000 1.000000 0.000000
vn 0.000000 1.000000 0.000000
vn 0.000000 1.000000 0.000000
vn 0.000000 1.000000 0.000000
vn 0.000000 1.000000 0.000000
vn 0.000000 1.000000 0.000000
vn 0.000000 1.000000 0.000000
vn 0.000000 1.000000 0.000000
vn 0.000000 1.000000 0.000000
vn 0.000000 1.000000 0.000000
vn 0.000000 1.000000 0.000000
vn 0.000000 1.000000 0.000000
vn 0.000000 1.000000 0.000030
vn 0.000000 1.000000 0.000000
vn 0.000000 1.000000 0.000030
vn 0.000000 1.000000 -0.000030
vn 0.000000 1.000000 0.000000
vn 0.000000 1.000000 -0.000030
vn 0.000000 1.000000 0.000000
vn 0.000000 1.000000 0.000000
vn 0.000000 1.000000 0.000000
vn 0.000000 1.000000 0.000060
vn 0.000000 1.000000 0.000000
s off
g pCube2
usemtl pCube2SG
f 1/1/1 2/2/2 4/4/3 3/3/4
f 3/3/5 4/4/6 6/6/7 5/5/8
f 5/5/9 6/6/10 8/8/11 7/181/12
f 7/7/13 8/182/14 2/2/15 1/1/16
f 2/2/17 8/9/18 6/10/19 4/4/20
f 7/11/21 1/1/22 3/3/23 5/12/24
f 9/13/25 10/14/26 30/15/27 29/16/28
f 10/14/29 11/17/30 31/18/31 30/15/32
f 11/17/33 12/19/34 32/20/35 31/18/36
f 12/19/37 13/21/38 33/22/39 32/20/40
f 13/21/41 14/23/42 34/24/43 33/22/44
f 14/23/45 15/25/46 35/26/47 34/24/48
f 15/25/49 16/27/50 36/28/51 35/26/52
f 16/27/53 17/29/54 37/30/55 36/28/56
f 17/29/57 18/31/58 38/32/59 37/30/60
f 18/31/61 19/33/62 39/34/63 38/32/64
f 19/33/65 20/35/66 40/36/67 39/34/68
f 20/35/69 21/37/70 41/38/71 40/36/72
f 21/37/73 22/39/74 42/40/75 41/38/76
f 22/39/77 23/41/78 43/42/79 42/40/80
f 23/41/81 24/43/82 44/44/83 43/42/84
f 24/43/85 25/45/86 45/46/87 44/44/88
f 25/45/89 26/47/90 46/48/91 45/46/92
f 26/47/93 27/49/94 47/50/95 46/48/96
f 27/49/97 28/51/98 48/52/99 47/50/100
f 28/51/101 9/53/102 29/54/103 48/52/104
f 10/55/105 9/56/106 49/57/107
f 11/58/108 10/55/109 49/57/110
f 12/59/111 11/58/112 49/57/113
f 13/60/114 12/59/115 49/57/116
f 14/61/117 13/60/118 49/57/119
f 15/62/120 14/61/121 49/57/122
f 16/63/123 15/62/124 49/57/125
f 17/64/126 16/63/127 49/57/128
f 18/65/129 17/64/130 49/57/131
f 19/66/132 18/65/133 49/57/134
f 20/67/135 19/66/136 49/57/137
f 21/68/138 20/67/139 49/57/140
f 22/69/141 21/68/142 49/57/143
f 23/70/144 22/69/145 49/57/146
f 24/71/147 23/70/148 49/57/149
f 25/72/150 24/71/151 49/57/152
f 26/73/153 25/72/154 49/57/155
f 27/74/156 26/73/157 49/57/158
f 28/75/159 27/74/160 49/57/161
f 9/56/162 28/75/163 49/57/164
f 29/76/165 30/77/166 50/78/167
f 30/77/168 31/79/169 50/78/170
f 31/79/171 32/80/172 50/78/173
f 32/80/174 33/81/175 50/78/176
f 33/81/177 34/82/178 50/78/179
f 34/82/180 35/83/181 50/78/182
f 35/83/183 36/84/184 50/78/185
f 36/84/186 37/85/187 50/78/188
f 37/85/189 38/86/190 50/78/191
f 38/86/192 39/87/193 50/78/194
f 39/87/195 40/88/196 50/78/197
f 40/88/198 41/89/199 50/78/200
f 41/89/201 42/90/202 50/78/203
f 42/90/204 43/91/205 50/78/206
f 43/91/207 44/92/208 50/78/209
f 44/92/210 45/93/211 50/78/212
f 45/93/213 46/94/214 50/78/215
f 46/94/216 47/95/217 50/78/218
f 47/95/219 48/96/220 50/78/221
f 48/96/222 29/76/223 50/78/224
f 51/97/225 52/98/226 72/99/227 71/100/228
f 52/98/229 53/101/230 73/102/231 72/99/232
f 53/101/233 54/103/234 74/104/235 73/102/236
f 54/103/237 55/105/238 75/106/239 74/104/240
f 55/105/241 56/107/242 76/108/243 75/106/244
f 56/107/245 57/109/246 77/110/247 76/108/248
f 57/109/249 58/111/250 78/112/251 77/110/252
f 58/111/253 59/113/254 79/114/255 78/112/256
f 59/113/257 60/115/258 80/116/259 79/114/260
f 60/115/261 61/117/262 81/118/263 80/116/264
f 61/117/265 62/119/266 82/120/267 81/118/268
f 62/119/269 63/121/270 83/122/271 82/120/272
f 63/121/273 64/123/274 84/124/275 83/122/276
f 64/123/277 65/125/278 85/126/279 84/124/280
f 65/125/281 66/127/282 86/128/283 85/126/284
f 66/127/285 67/129/286 87/130/287 86/128/288
f 67/129/289 68/131/290 88/132/291 87/130/292
f 68/131/293 69/133/294 89/134/295 88/132/296
f 69/133/297 70/135/298 90/136/299 89/134/300
f 70/135/301 51/137/302 71/138/303 90/136/304
f 52/139/305 51/140/306 91/141/307
f 53/142/308 52/139/309 91/141/310
f 54/143/311 53/142/312 91/141/313
f 55/144/314 54/143/315 91/141/316
f 56/145/317 55/144/318 91/141/319
f 57/146/320 56/145/321 91/141/322
f 58/147/323 57/146/324 91/141/325
f 59/148/326 58/147/327 91/141/328
f 60/149/329 59/148/330 91/141/331
f 61/150/332 60/149/333 91/141/334
f 62/151/335 61/150/336 91/141/337
f 63/152/338 62/151/339 91/141/340
f 64/153/341 63/152/342 91/141/343
f 65/154/344 64/153/345 91/141/346
f 66/155/347 65/154/348 91/141/349
f 67/156/350 66/155/351 91/141/352
f 68/157/353 67/156/354 91/141/355
f 69/158/356 68/157/357 91/141/358
f 70/159/359 69/158/360 91/141/361
f 51/140/362 70/159/363 91/141/364
f 71/160/365 72/161/366 92/162/367
f 72/161/368 73/163/369 92/162/370
f 73/163/371 74/164/372 92/162/373
f 74/164/374 75/165/375 92/162/376
f 75/165/377 76/166/378 92/162/379
f 76/166/380 77/167/381 92/162/382
f 77/167/383 78/168/384 92/162/385
f 78/168/386 79/169/387 92/162/388
f 79/169/389 80/170/390 92/162/391
f 80/170/392 81/171/393 92/162/394
f 81/171/395 82/172/396 92/162/397
f 82/172/398 83/173/399 92/162/400
f 83/173/401 84/174/402 92/162/403
f 84/174/404 85/175/405 92/162/406
f 85/175/407 86/176/408 92/162/409
f 86/176/410 87/177/411 92/162/412
f 87/177/413 88/178/414 92/162/415
f 88/178/416 89/179/417 92/162/418
f 89/179/419 90/180/420 92/162/421
f 90/180/422 71/160/423 92/162/424
