# This file uses meters as units for non-parametric coordinates.

mtllib tiny box open.mtl
g default
v -369.057861 61.092857 27.812469
v -369.057861 61.092857 7.855103
v -375.405823 53.594448 27.812469
v -375.405823 53.594448 7.855103
v -375.088898 53.326122 27.812469
v -375.088898 53.326122 7.855103
v -368.740936 60.824524 27.812469
v -368.740936 60.824524 7.855103
v -349.336304 41.974327 27.504791
v -349.336304 41.974327 8.182556
v -349.336304 61.296562 27.504791
v -349.336304 61.296562 8.182556
v -368.658539 61.296562 27.504791
v -368.658539 61.296562 8.182556
v -368.658539 41.974327 27.504791
v -368.658539 41.974327 8.182556
v -348.926208 41.974327 27.914917
v -348.926208 41.974327 7.772430
v -348.926208 61.296562 7.772430
v -348.926208 61.296562 27.914917
v -369.068665 61.296562 27.914917
v -369.068665 61.296562 7.772430
v -369.068665 41.974327 7.772430
v -369.068665 41.974327 27.914917
v -349.336304 42.755180 27.504791
v -349.336304 42.755180 8.182556
v -368.658539 42.755180 8.182556
v -368.658539 42.755180 27.504791
v -342.933380 53.326122 7.855103
v -342.933380 53.326122 27.812469
v -349.281342 60.824524 7.855103
v -349.281342 60.824524 27.812469
v -348.964355 61.092857 7.855103
v -348.964355 61.092857 27.812469
v -342.616425 53.594448 7.855103
v -342.616425 53.594448 27.812469
vt 0.779885 0.556286
vt 0.780251 0.594524
vt 0.743570 0.594875
vt 0.743204 0.556638
vt 0.854803 0.555569
vt 0.855169 0.593807
vt 0.818488 0.594158
vt 0.818122 0.555920
vt 0.038298 0.694447
vt 0.074945 0.696045
vt 0.073412 0.731211
vt 0.036764 0.729613
vt 0.070280 0.803025
vt 0.033633 0.801427
vt 0.035166 0.766260
vt 0.071814 0.767858
vt 0.817351 0.556706
vt 0.817702 0.593387
vt 0.781022 0.593738
vt 0.780671 0.557057
vt 0.781388 0.631975
vt 0.781739 0.668656
vt 0.780968 0.669442
vt 0.780602 0.631204
vt 0.818420 0.668305
vt 0.819206 0.669076
vt 0.818068 0.631624
vt 0.818839 0.630838
vt 0.039011 0.038022
vt 0.039005 0.038810
vt 0.020354 0.038681
vt 0.020360 0.037893
vt 0.038743 0.076697
vt 0.038738 0.077486
vt 0.020087 0.077356
vt 0.020092 0.076568
vt 0.779533 0.519606
vt 0.817771 0.519240
vt 0.108578 0.732744
vt 0.106980 0.769392
vt 0.000000 0.764727
vt 0.001598 0.728080
vt 0.000590 0.077499
vt 0.000584 0.076710
vt 0.019235 0.076568
vt 0.019241 0.077356
vt 0.000295 0.038823
vt 0.000289 0.038035
vt 0.018940 0.037893
vt 0.018946 0.038681
vt 0.039273 0.000135
vt 0.020622 0.000006
vt 0.000000 0.000148
vt 0.018651 0.000006
vn -0.763228 0.646129 0.000000
vn -0.763228 0.646129 0.000000
vn -0.763228 0.646129 0.000000
vn -0.763228 0.646129 0.000000
vn 0.763228 -0.646129 0.000000
vn 0.763228 -0.646129 0.000000
vn 0.763228 -0.646129 0.000000
vn 0.763228 -0.646129 0.000000
vn 0.000001 0.000000 -1.000000
vn 0.000001 0.000000 -1.000000
vn 0.000001 0.000000 -1.000000
vn 0.000001 0.000000 -1.000000
vn 0.000000 0.000000 1.000000
vn 0.000000 0.000000 1.000000
vn 0.000000 0.000000 1.000000
vn 0.000000 0.000000 1.000000
vn 1.000000 0.000000 0.000000
vn 1.000000 0.000000 0.000000
vn 1.000000 0.000000 0.000000
vn 1.000000 0.000000 0.000000
vn 0.000000 1.000000 0.000000
vn 0.000000 1.000000 0.000000
vn 0.000000 1.000000 0.000000
vn 0.000000 1.000000 0.000000
vn -1.000000 0.000000 0.000000
vn -1.000000 0.000000 0.000000
vn -1.000000 0.000000 0.000000
vn -1.000000 0.000000 0.000000
vn 0.000000 -1.000000 -0.000000
vn 0.000000 -1.000000 -0.000000
vn 0.000000 -1.000000 -0.000000
vn 0.000000 -1.000000 -0.000000
vn 0.000000 0.000000 -1.000000
vn 0.000000 0.000000 -1.000000
vn 0.000000 0.000000 -1.000000
vn 0.000000 0.000000 -1.000000
vn 0.000000 0.000000 1.000000
vn 0.000000 0.000000 1.000000
vn 0.000000 0.000000 1.000000
vn 0.000000 0.000000 1.000000
vn 0.000000 -1.000000 -0.000002
vn 0.000000 -1.000000 -0.000002
vn 0.000000 1.000000 -0.000001
vn 0.000000 1.000000 -0.000002
vn 0.000000 1.000000 -0.000002
vn 0.000000 1.000000 -0.000001
vn 0.000000 1.000000 -0.000002
vn 0.000000 1.000000 -0.000001
vn 0.000000 1.000000 -0.000001
vn 0.000000 1.000000 -0.000002
vn 0.000000 -1.000000 -0.000002
vn 0.000000 -1.000000 -0.000002
vn -1.000000 0.000000 0.000000
vn -1.000000 0.000000 0.000000
vn -1.000000 0.000000 0.000000
vn -1.000000 0.000000 0.000000
vn 0.000000 0.000000 1.000000
vn 0.000000 0.000000 1.000000
vn 0.000000 0.000000 1.000000
vn 0.000000 0.000000 1.000000
vn 1.000000 0.000000 0.000000
vn 1.000000 0.000000 0.000000
vn 1.000000 0.000000 0.000000
vn 1.000000 0.000000 0.000000
vn 0.000000 0.000000 -1.000000
vn 0.000000 0.000000 -1.000000
vn 0.000000 0.000000 -1.000000
vn 0.000000 0.000000 -1.000000
vn -0.763228 -0.646129 0.000000
vn -0.763228 -0.646129 0.000000
vn -0.763228 -0.646129 0.000000
vn -0.763228 -0.646129 0.000000
vn 0.763230 0.646128 0.000000
vn 0.763230 0.646128 0.000000
vn 0.763230 0.646128 0.000000
vn 0.763230 0.646128 0.000000
vn 0.000000 0.000000 1.000000
vn 0.000000 0.000000 1.000000
vn 0.000000 0.000000 1.000000
vn 0.000000 0.000000 1.000000
vn -0.000001 0.000000 -1.000000
vn -0.000001 0.000000 -1.000000
vn -0.000001 0.000000 -1.000000
vn -0.000001 0.000000 -1.000000
s off
g Open_tiny_box
usemtl initialShadingGroup
f 1/51/1 2/29/2 4/32/3 3/52/4
f 5/36/5 6/31/6 8/30/7 7/33/8
f 2/29/9 8/30/10 6/31/11 4/32/12
f 7/33/13 1/34/14 3/35/15 5/36/16
f 17/1/17 18/2/18 19/3/19 20/4/20
f 25/12/21 26/11/22 27/16/23 28/15/24
f 21/5/25 22/6/26 23/7/27 24/8/28
s 1
f 15/17/29 16/18/30 10/19/31 9/20/32
s off
f 18/2/33 23/7/34 22/28/35 19/24/36
f 24/8/37 17/1/38 20/37/39 21/38/40
s 1
f 9/20/32 10/19/31 18/2/41 17/1/42
s 2
f 12/21/43 11/22/44 20/23/45 19/24/46
f 13/25/47 14/27/48 22/28/49 21/26/50
s 1
f 16/18/30 15/17/29 24/8/51 23/7/52
f 10/19/31 16/18/30 23/7/52 18/2/41
s 2
f 14/27/48 12/21/43 19/24/46 22/28/49
s 1
f 15/17/29 9/20/32 17/1/42 24/8/51
s 2
f 11/22/44 13/25/47 21/26/50 20/23/45
s off
f 11/9/53 12/10/54 26/11/55 25/12/56
f 12/39/57 14/40/58 27/16/59 26/11/60
f 14/13/61 13/14/62 28/15/63 27/16/64
f 13/41/65 11/42/66 25/12/67 28/15/68
f 29/48/69 30/53/70 32/54/71 31/49/72
f 33/50/73 34/45/74 36/44/75 35/47/76
f 30/43/77 36/44/78 34/45/79 32/46/80
f 35/47/81 29/48/82 31/49/83 33/50/84
