# This file uses meters as units for non-parametric coordinates.

mtllib tiny box closed.mtl
g default
v -475.065033 42.461845 26.435822
v -449.373169 42.461845 26.435822
v -475.065033 68.153740 26.435822
v -449.373169 68.153740 26.435822
v -475.065033 68.153740 0.810927
v -449.373169 68.153740 0.810927
v -475.065033 42.461845 0.810927
v -449.373169 42.461845 0.810927
v -475.998566 42.461845 27.369350
v -448.439606 42.461845 27.369350
v -448.439606 68.153740 27.369350
v -475.998566 68.153740 27.369350
v -475.998566 68.153740 -0.122541
v -448.439606 68.153740 -0.122541
v -448.439606 42.461845 -0.122541
v -475.998566 42.461845 -0.122541
v -475.065033 42.675629 26.435822
v -449.373169 42.675629 26.435822
v -449.373169 42.675629 0.810927
v -475.065033 42.675629 0.810927
v -475.786804 67.338013 27.169388
v -462.552399 69.262947 27.169388
v -475.897003 68.095772 27.169388
v -462.662598 70.020706 27.169388
v -475.897003 68.095772 0.079330
v -462.662598 70.020706 0.079330
v -475.786804 67.338013 0.079330
v -462.552399 69.262947 0.079330
v -461.346558 71.960396 27.181519
v -448.773163 67.403633 27.181519
v -461.085663 72.680305 27.181519
v -448.512268 68.123543 27.181519
v -461.085663 72.680305 0.091462
v -448.512268 68.123543 0.091462
v -461.346558 71.960396 0.091462
v -448.773163 67.403633 0.091462
vt 0.243014 0.702735
vt 0.242708 0.650544
vt 0.291482 0.650258
vt 0.291787 0.702449
vt 0.243625 0.807244
vt 0.243320 0.755053
vt 0.292093 0.754767
vt 0.292399 0.806958
vt 0.483849 0.001396
vt 0.532477 0.000004
vt 0.533860 0.048353
vt 0.485232 0.049744
vt 0.536638 0.145457
vt 0.488010 0.146848
vt 0.486627 0.098499
vt 0.535255 0.097108
vt 0.192891 0.753576
vt 0.192605 0.704802
vt 0.241252 0.704517
vt 0.241537 0.753291
vt 0.191129 0.755358
vt 0.190823 0.703040
vt 0.293570 0.704211
vt 0.293855 0.752985
vt 0.342502 0.752700
vt 0.344284 0.754462
vt 0.342216 0.703926
vt 0.343978 0.702144
vt 0.292705 0.859276
vt 0.243931 0.859562
vt 0.438278 0.099882
vt 0.436884 0.051128
vt 0.582209 0.046970
vt 0.583604 0.095725
vt 0.443138 0.214611
vt 0.468519 0.215222
vt 0.468484 0.216676
vt 0.443103 0.216065
vt 0.467247 0.268089
vt 0.441866 0.267479
vt 0.467212 0.269543
vt 0.441831 0.268932
vt 0.465975 0.320957
vt 0.440593 0.320346
vt 0.519933 0.216459
vt 0.519898 0.217913
vt 0.391724 0.213374
vt 0.391689 0.214828
vt 0.362791 0.215963
vt 0.388173 0.216574
vt 0.388138 0.218027
vt 0.362756 0.217416
vt 0.386901 0.269441
vt 0.361519 0.268830
vt 0.386866 0.270894
vt 0.361484 0.270283
vt 0.385629 0.322308
vt 0.360247 0.321697
vt 0.439587 0.217811
vt 0.439552 0.219264
vt 0.311377 0.214726
vt 0.311342 0.216179
vn 0.000000 0.000000 1.000000
vn 0.000000 0.000000 1.000000
vn 0.000000 0.000000 1.000000
vn 0.000000 0.000000 1.000000
vn 0.000000 1.000000 0.000000
vn 0.000000 1.000000 0.000000
vn 0.000000 1.000000 0.000000
vn 0.000000 1.000000 0.000000
vn 0.000000 0.000000 -1.000000
vn 0.000000 0.000000 -1.000000
vn 0.000000 0.000000 -1.000000
vn 0.000000 0.000000 -1.000000
vn 0.000000 -1.000000 -0.000000
vn 0.000000 -1.000000 -0.000000
vn 0.000000 -1.000000 0.000000
vn 0.000000 -1.000000 0.000000
vn 1.000000 0.000000 0.000000
vn 1.000000 0.000000 0.000000
vn 1.000000 0.000000 0.000000
vn 1.000000 0.000000 0.000000
vn -1.000000 0.000000 0.000000
vn -1.000000 0.000000 0.000000
vn -1.000000 0.000000 0.000000
vn -1.000000 0.000000 0.000000
vn 0.000000 -1.000000 0.000000
vn 0.000000 -1.000000 0.000000
vn 0.000000 1.000000 -0.000001
vn 0.000000 1.000000 -0.000001
vn 0.000000 1.000000 -0.000001
vn 0.000000 1.000000 -0.000001
vn 0.000000 1.000000 0.000001
vn 0.000000 1.000000 0.000001
vn 0.000000 1.000000 0.000001
vn 0.000000 1.000000 0.000001
vn 0.000000 -1.000000 -0.000001
vn 0.000000 -1.000000 -0.000001
vn 0.000000 0.000000 -1.000000
vn 0.000000 0.000000 -1.000000
vn 0.000000 0.000000 -1.000000
vn 0.000000 0.000000 -1.000000
vn -1.000000 0.000000 0.000000
vn -1.000000 0.000000 0.000000
vn -1.000000 0.000000 0.000000
vn -1.000000 0.000000 0.000000
vn 0.000000 0.000000 1.000000
vn 0.000000 0.000000 1.000000
vn 0.000000 0.000000 1.000000
vn 0.000000 0.000000 1.000000
vn 1.000000 0.000000 0.000000
vn 1.000000 0.000000 0.000000
vn 1.000000 0.000000 0.000000
vn 1.000000 0.000000 0.000000
vn 0.000000 0.000000 1.000000
vn 0.000000 0.000000 1.000000
vn 0.000000 0.000000 1.000000
vn 0.000000 0.000000 1.000000
vn -0.143935 0.989587 0.000000
vn -0.143935 0.989587 0.000000
vn -0.143935 0.989587 0.000000
vn -0.143935 0.989587 0.000000
vn 0.000000 0.000000 -1.000000
vn 0.000000 0.000000 -1.000000
vn 0.000000 0.000000 -1.000000
vn 0.000000 0.000000 -1.000000
vn 0.143935 -0.989587 0.000000
vn 0.143935 -0.989587 0.000000
vn 0.143935 -0.989587 0.000000
vn 0.143935 -0.989587 0.000000
vn 0.989590 0.143916 0.000000
vn 0.989590 0.143916 0.000000
vn 0.989590 0.143916 0.000000
vn 0.989590 0.143916 0.000000
vn -0.989590 -0.143916 0.000000
vn -0.989590 -0.143916 0.000000
vn -0.989590 -0.143916 0.000000
vn -0.989590 -0.143916 0.000000
vn 0.000000 0.000000 1.000000
vn 0.000000 0.000000 1.000000
vn 0.000000 0.000000 1.000000
vn 0.000000 0.000000 1.000000
vn 0.340727 0.940162 0.000000
vn 0.340727 0.940162 0.000000
vn 0.340727 0.940162 0.000000
vn 0.340727 0.940162 0.000000
vn 0.000000 0.000000 -1.000000
vn 0.000000 0.000000 -1.000000
vn 0.000000 0.000000 -1.000000
vn 0.000000 0.000000 -1.000000
vn -0.340728 -0.940162 0.000000
vn -0.340728 -0.940162 0.000000
vn -0.340728 -0.940162 0.000000
vn -0.340728 -0.940162 0.000000
vn 0.940156 -0.340746 0.000000
vn 0.940156 -0.340746 0.000000
vn 0.940156 -0.340746 0.000000
vn 0.940156 -0.340746 0.000000
vn -0.940171 0.340704 0.000000
vn -0.940171 0.340704 0.000000
vn -0.940171 0.340704 0.000000
vn -0.940171 0.340704 0.000000
s off
g Tiny_box_closed
usemtl initialShadingGroup
f 9/6/1 10/1/2 11/4/3 12/7/4
f 17/15/5 18/12/6 19/11/7 20/16/8
f 13/8/9 14/29/10 15/30/11 16/5/12
s 1
f 7/17/13 8/18/14 2/19/15 1/20/16
s off
f 10/1/17 15/2/18 14/3/19 11/4/20
f 16/5/21 9/6/22 12/7/23 13/8/24
s 1
f 1/20/16 2/19/15 10/1/25 9/6/26
s 2
f 4/23/27 3/24/28 12/7/29 11/4/30
f 5/25/31 6/27/32 14/28/33 13/26/34
s 1
f 8/18/14 7/17/13 16/21/35 15/22/36
f 2/19/15 8/18/14 15/22/36 10/1/25
s 2
f 6/27/32 4/23/27 11/4/30 14/28/33
s 1
f 7/17/13 1/20/16 9/6/26 16/21/35
s 2
f 3/24/28 5/25/31 13/26/34 12/7/29
s off
f 3/31/37 4/32/38 18/12/39 17/15/40
f 4/9/41 6/10/42 19/11/43 18/12/44
f 6/33/45 5/34/46 20/16/47 19/11/48
f 5/13/49 3/14/50 17/15/51 20/16/52
f 21/35/53 22/36/54 24/37/55 23/38/56
f 23/38/57 24/37/58 26/39/59 25/40/60
f 25/40/61 26/39/62 28/41/63 27/42/64
f 27/42/65 28/41/66 22/43/67 21/44/68
f 22/36/69 28/45/70 26/46/71 24/37/72
f 27/47/73 21/35/74 23/38/75 25/48/76
f 29/49/77 30/50/78 32/51/79 31/52/80
f 31/52/81 32/51/82 34/53/83 33/54/84
f 33/54/85 34/53/86 36/55/87 35/56/88
f 35/56/89 36/55/90 30/57/91 29/58/92
f 30/50/93 36/59/94 34/60/95 32/51/96
f 35/61/97 29/49/98 31/52/99 33/62/100
