# This file uses meters as units for non-parametric coordinates.

mtllib trashcan.mtl
g default
v -498.340912 -1.873659 298.291473
v -504.519043 -1.873659 293.802826
v -512.155640 -1.873659 293.802826
v -518.333801 -1.873659 298.291473
v -520.693604 -1.873659 305.554352
v -518.333801 -1.873659 312.817230
v -512.155640 -1.873659 317.305847
v -504.519043 -1.873659 317.305847
v -498.340912 -1.873659 312.817230
v -495.980957 -1.873659 305.554352
v -508.337341 -1.873659 305.554352
v -494.463531 -1.873659 295.474426
v -503.038025 -1.873659 289.244659
v -513.636658 -1.873659 289.244659
v -522.211182 -1.873659 295.474426
v -525.486328 -1.873659 305.554352
v -522.211182 -1.873659 315.634277
v -513.636658 -1.873659 321.864075
v -503.038025 -1.873659 321.864075
v -494.463531 -1.873659 315.634277
v -491.188385 -1.873659 305.554352
v -497.286530 5.244785 297.525482
v -504.116302 5.244785 292.563324
v -508.337341 5.244785 305.554352
v -512.558411 5.244785 292.563293
v -519.388184 5.244785 297.525482
v -521.996887 5.244785 305.554352
v -519.388184 5.244785 313.583160
v -512.558411 5.244785 318.545380
v -504.116302 5.244785 318.545380
v -497.286530 5.244785 313.583191
v -494.677765 5.244785 305.554352
v -492.240906 46.805008 293.859589
v -492.692352 46.339462 294.187592
v -502.189056 46.805008 286.631836
v -502.361481 46.339462 287.162537
v -514.485657 46.805008 286.631836
v -514.313232 46.339462 287.162537
v -524.433838 46.805008 293.859589
v -523.982422 46.339470 294.187592
v -528.233704 46.805008 305.554352
v -527.675659 46.339470 305.554352
v -524.433838 46.805008 317.249115
v -523.982422 46.339470 316.921112
v -514.485657 46.805008 324.476868
v -514.313232 46.339470 323.946136
v -502.189056 46.805008 324.476868
v -502.361481 46.339470 323.946136
v -492.240906 46.805008 317.249115
v -492.692352 46.339462 316.921112
v -488.440979 46.805008 305.554352
v -488.999023 46.339470 305.554352
v -501.832367 46.805008 285.534088
v -501.677368 46.284637 285.057007
v -490.901245 46.284637 292.886292
v -491.307129 46.805008 293.181152
v -514.842285 46.805008 285.534088
v -514.997314 46.284637 285.057007
v -525.367554 46.805008 293.181152
v -525.773376 46.284637 292.886292
v -529.387817 46.805008 305.554352
v -529.889465 46.284637 305.554352
v -525.367554 46.805008 317.927551
v -525.773376 46.284637 318.222443
v -514.842285 46.805008 325.574646
v -514.997314 46.284637 326.051727
v -501.832367 46.805008 325.574646
v -501.677368 46.284637 326.051727
v -491.307129 46.805008 317.927551
v -490.901245 46.284637 318.222443
v -487.286804 46.805008 305.554352
v -486.785156 46.284637 305.554352
v -518.670105 11.995479 318.600281
v -515.628723 11.995479 320.247925
v -511.549774 11.995479 320.247925
v -507.470825 11.995479 320.247925
v -503.391876 11.995479 320.247925
v -499.312897 11.995479 320.247925
v -522.862549 11.995479 316.168945
v -519.707703 11.995479 316.168945
v -515.628723 11.995479 316.168945
v -511.549774 11.995479 316.168945
v -507.470825 8.923544 316.168945
v -503.391876 11.995479 316.168945
v -499.312897 11.995479 316.168945
v -495.233948 11.995479 316.168945
v -523.786682 11.995479 312.089996
v -519.707703 11.995479 312.089996
v -515.628723 16.169230 312.089996
v -511.549774 11.995479 312.089996
v -507.470825 11.995479 312.089996
v -503.391876 11.995479 312.089996
v -499.312897 11.995479 312.089996
v -495.233948 11.995479 312.089996
v -492.627502 11.995479 312.089996
v -523.786682 11.995479 308.011017
v -519.707703 11.995479 308.011017
v -515.628723 11.995479 308.011017
v -511.549774 8.923544 308.011017
v -507.470825 11.995479 308.011017
v -503.391876 16.169230 308.011017
v -499.312897 11.995479 308.011017
v -495.233948 11.995479 308.011017
v -491.154968 11.995479 308.011017
v -523.786682 11.995479 303.932068
v -519.707703 11.995479 303.932068
v -515.628723 16.169230 303.932068
v -511.549774 11.995479 303.932068
v -507.470825 11.995479 303.932068
v -503.391876 11.995479 303.932068
v -499.312897 11.995479 303.932068
v -495.233948 8.923544 303.932068
v -491.154968 11.995479 303.932068
v -523.786682 11.995479 299.853119
v -519.707703 11.995479 299.853119
v -515.628723 11.995479 299.853119
v -511.549774 11.995479 299.853119
v -507.470825 16.169230 299.853119
v -503.391876 11.995479 299.853119
v -499.312897 16.169230 299.853119
v -495.233948 11.995479 299.853119
v -492.589233 11.995479 299.853119
v -522.993774 11.995479 296.196594
v -519.707703 11.995479 295.774139
v -515.628723 16.169230 295.774139
v -511.549774 8.923544 295.774139
v -507.470825 11.995479 295.774139
v -503.391876 11.995479 295.774139
v -499.312897 11.995479 295.774139
v -495.233948 11.995479 295.774139
v -518.914856 11.995479 292.117645
v -515.628723 11.995479 291.695190
v -511.549774 11.995479 291.695190
v -507.470825 11.995479 291.695190
v -503.391876 11.995479 291.695190
v -499.312897 11.995479 291.695190
v -496.777130 13.041939 292.604736
v -507.470825 11.995479 288.426544
v -503.391876 11.995479 288.426544
vt 0.282635 0.276556
vt 0.222827 0.273215
vt 0.230388 0.000000
vt 0.305554 0.004199
vt 0.162925 0.273243
vt 0.155106 0.000035
vt 0.342162 0.283256
vt 0.380364 0.012620
vt 0.103119 0.276640
vt 0.079944 0.004305
vt 0.573696 0.343066
vt 0.517168 0.323247
vt 0.600304 0.062878
vt 0.671347 0.087786
vt 0.459614 0.306639
vt 0.527973 0.042006
vt 0.629020 0.366033
vt 0.740877 0.116651
vt 0.401217 0.293295
vt 0.454582 0.025236
vt 0.780994 0.935042
vt 0.687937 0.957429
vt 0.656017 0.656025
vt 0.712833 0.644606
vt 0.590794 0.963450
vt 0.599241 0.659406
vt 0.863399 0.892542
vt 0.769696 0.625996
vt 0.492980 0.954640
vt 0.543212 0.654433
vt 0.305119 0.895523
vt 0.219692 0.846892
vt 0.387253 0.589740
vt 0.435350 0.618899
vt 0.143134 0.786902
vt 0.343270 0.553322
vt 0.397011 0.931763
vt 0.488898 0.641124
vt 0.079007 0.716657
vt 0.303392 0.510064
vt 0.388647 0.317290
vt 0.418820 0.348152
vt 0.356242 0.379152
vt 0.443093 0.336128
vt 0.425091 0.390855
vt 0.346097 0.310057
vt 0.451795 0.395394
vt 0.405063 0.429088
vt 0.307421 0.329216
vt 0.288485 0.309847
vt 0.423999 0.448457
vt 0.366387 0.448247
vt 0.287394 0.367449
vt 0.260689 0.362910
vt 0.370322 0.475048
vt 0.323837 0.441014
vt 0.293664 0.410153
vt 0.269391 0.422177
vt 0.311267 0.465010
vt 0.405636 0.501279
vt 0.446387 0.453152
vt 0.499422 0.540244
vt 0.507632 0.438390
vt 0.401221 0.564505
vt 0.565808 0.462561
vt 0.598559 0.516376
vt 0.593208 0.579208
vt 0.551520 0.626942
vt 0.139330 0.790670
vt 0.216658 0.851268
vt 0.074323 0.719380
vt 0.302821 0.900316
vt 0.211867 0.857998
vt 0.133371 0.796425
vt 0.067065 0.723502
vt 0.029357 0.638439
vt 0.395465 0.936845
vt 0.299167 0.907717
vt 0.129566 0.800147
vt 0.208820 0.862351
vt 0.062430 0.726162
vt 0.874385 0.901259
vt 0.783407 0.939877
vt 0.492221 0.959900
vt 0.392976 0.944715
vt 0.296858 0.912500
vt 0.015243 0.639824
vt 0.787105 0.947419
vt 0.689026 0.962665
vt 0.590889 0.968773
vt 0.490960 0.968060
vt 0.391425 0.949793
vt 0.789484 0.952201
vt 0.690654 0.970809
vt 0.590962 0.977042
vt 0.490202 0.973317
vt 0.691745 0.976016
vt 0.591062 0.982355
vt 0.043599 0.283397
vt 0.005142 0.012796
vt 0.034615 0.637775
vt 0.266240 0.459842
vt 0.020691 0.638955
vt 0.867380 0.896011
vt 0.878452 0.904980
vt 0.662475 0.537169
vt 0.646451 0.507209
vt 0.684273 0.508078
vt 0.686563 0.548609
vt 0.646545 0.467110
vt 0.685663 0.468081
vt 0.644697 0.425646
vt 0.686197 0.425598
vt 0.647448 0.384446
vt 0.686548 0.383252
vt 0.648233 0.345532
vt 0.687256 0.344578
vt 0.687228 0.578869
vt 0.726882 0.551343
vt 0.726744 0.589042
vt 0.726276 0.508868
vt 0.725561 0.465653
vt 0.727720 0.425319
vt 0.725165 0.384059
vt 0.726385 0.343718
vt 0.687534 0.305711
vt 0.726304 0.304518
vt 0.767766 0.551090
vt 0.767045 0.589593
vt 0.768153 0.510388
vt 0.768080 0.467090
vt 0.767896 0.425853
vt 0.767573 0.383909
vt 0.766655 0.341606
vt 0.765003 0.302590
vt 0.726075 0.279537
vt 0.764561 0.263207
vt 0.808861 0.553311
vt 0.807480 0.591092
vt 0.810113 0.510414
vt 0.810585 0.466328
vt 0.807924 0.425568
vt 0.810409 0.384260
vt 0.807122 0.343677
vt 0.808109 0.300341
vt 0.804723 0.258652
vt 0.849603 0.553565
vt 0.847397 0.592222
vt 0.852096 0.511380
vt 0.850049 0.468194
vt 0.850855 0.425392
vt 0.851188 0.384156
vt 0.850792 0.343116
vt 0.850967 0.300890
vt 0.848130 0.273837
vt 0.890274 0.558294
vt 0.883082 0.587557
vt 0.895480 0.520275
vt 0.893664 0.467006
vt 0.894182 0.423798
vt 0.892604 0.383830
vt 0.893929 0.343456
vt 0.891617 0.303595
vt 0.937039 0.507491
vt 0.931274 0.544603
vt 0.936833 0.463209
vt 0.932833 0.422950
vt 0.931616 0.383934
vt 0.931983 0.344484
vt 0.923873 0.318180
vt 0.962389 0.383785
vt 0.963198 0.422313
vn 0.000000 -1.000000 -0.000000
vn 0.000000 -1.000000 0.000000
vn 0.000000 -1.000000 0.000000
vn 0.000000 -1.000000 0.000000
vn 0.000000 -1.000000 0.000000
vn 0.000000 -1.000000 -0.000000
vn 0.000000 -1.000000 -0.000000
vn 0.000000 -1.000000 -0.000000
vn 0.000000 -1.000000 0.000000
vn 0.000000 -1.000000 -0.000000
vn 0.000000 -1.000000 0.000000
vn 0.000000 1.000000 0.000000
vn 0.000000 1.000000 0.000000
vn 0.000000 1.000000 -0.000000
vn 0.000000 1.000000 0.000000
vn 0.000000 1.000000 0.000000
vn 0.000000 1.000000 -0.000000
vn 0.000000 1.000000 -0.000000
vn 0.000000 1.000000 -0.000000
vn 0.000000 1.000000 0.000000
vn 0.000000 1.000000 0.000000
vn 0.000000 1.000000 0.000000
vn 0.000000 -1.000000 -0.000000
vn 0.000000 -1.000000 -0.000000
vn 0.000000 -1.000000 0.000000
vn 0.000000 -1.000000 0.000000
vn 0.000000 -1.000000 -0.000000
vn 0.000000 -1.000000 -0.000000
vn 0.000000 -1.000000 0.000000
vn 0.000000 -1.000000 -0.000000
vn 0.000000 -1.000000 0.000000
vn 0.000000 -1.000000 0.000000
vn -0.518274 0.767855 0.376551
vn -0.518275 0.767855 0.376549
vn -0.640629 0.767850 0.000000
vn -0.640629 0.767850 0.000000
vn -0.197961 0.767862 0.609262
vn -0.197964 0.767862 0.609261
vn 0.197961 0.767856 0.609269
vn 0.197964 0.767856 0.609268
vn 0.518275 0.767852 0.376556
vn 0.518281 0.767852 0.376549
vn 0.640626 0.767853 -0.000001
vn 0.640626 0.767853 -0.000001
vn 0.518269 0.767859 -0.376549
vn 0.518274 0.767860 -0.376542
vn 0.197952 0.767875 -0.609248
vn 0.197959 0.767875 -0.609246
vn -0.197951 0.767880 -0.609242
vn -0.197958 0.767880 -0.609240
vn -0.518267 0.767862 -0.376546
vn -0.518268 0.767862 -0.376544
vn 0.222477 0.694033 -0.684706
vn 0.222472 0.694033 -0.684708
vn -0.222478 0.694040 -0.684699
vn -0.222472 0.694040 -0.684701
vn 0.582433 0.694047 -0.423168
vn 0.582439 0.694047 -0.423159
vn 0.719923 0.694054 0.000000
vn 0.719923 0.694054 0.000000
vn -0.582439 0.694040 -0.423171
vn -0.582441 0.694040 -0.423167
vn -0.719950 0.694026 0.000001
vn -0.719950 0.694026 0.000001
vn -0.582437 0.694040 0.423173
vn -0.582446 0.694040 0.423161
vn -0.222477 0.694040 0.684699
vn -0.222472 0.694040 0.684701
vn 0.222469 0.694040 0.684702
vn 0.222475 0.694040 0.684700
vn 0.582431 0.694054 0.423159
vn 0.582431 0.694054 0.423159
vn 0.805657 -0.091052 -0.585343
vn 0.307735 -0.091052 -0.947105
vn 0.307735 -0.091052 -0.947105
vn 0.805657 -0.091052 -0.585343
vn -0.307735 -0.091052 -0.947105
vn -0.307735 -0.091052 -0.947105
vn -0.805658 -0.091051 -0.585342
vn -0.805657 -0.091051 -0.585343
vn -0.995846 -0.091050 0.000000
vn -0.995846 -0.091050 0.000000
vn -0.805658 -0.091051 0.585342
vn -0.805657 -0.091051 0.585343
vn -0.307735 -0.091052 0.947105
vn -0.307735 -0.091052 0.947105
vn 0.307735 -0.091052 0.947105
vn 0.307735 -0.091052 0.947105
vn 0.805657 -0.091053 0.585343
vn 0.805657 -0.091053 0.585343
vn 0.995846 -0.091052 -0.000000
vn 0.995846 -0.091052 -0.000000
vn 0.000000 1.000000 0.000001
vn 0.000000 1.000000 -0.000000
vn 0.000000 1.000000 -0.000000
vn 0.000000 1.000000 0.000001
vn 0.000000 1.000000 0.000001
vn 0.000000 1.000000 0.000001
vn 0.000000 1.000000 -0.000000
vn 0.000000 1.000000 -0.000000
vn 0.000000 1.000000 0.000000
vn 0.000000 1.000000 0.000000
vn 0.000000 1.000000 0.000000
vn 0.000000 1.000000 0.000000
vn 0.000000 1.000000 0.000001
vn 0.000000 1.000000 0.000001
vn 0.000000 1.000000 0.000001
vn 0.000000 1.000000 0.000001
vn 0.000000 1.000000 0.000000
vn 0.000000 1.000000 -0.000000
vn 0.000000 1.000000 0.000000
vn 0.000000 1.000000 0.000000
vn -0.801402 0.136886 0.582252
vn -0.306109 0.136886 0.942104
vn -0.306109 0.136886 0.942104
vn -0.801402 0.136886 0.582252
vn 0.306109 0.136886 0.942104
vn 0.306109 0.136886 0.942104
vn 0.801403 0.136887 0.582250
vn 0.801403 0.136887 0.582251
vn 0.990587 0.136887 0.000000
vn 0.990587 0.136887 -0.000000
vn 0.801402 0.136887 -0.582252
vn 0.801402 0.136887 -0.582251
vn 0.306109 0.136886 -0.942104
vn 0.306109 0.136886 -0.942104
vn -0.306109 0.136885 -0.942104
vn -0.306109 0.136885 -0.942104
vn -0.801400 0.136886 -0.582254
vn -0.801401 0.136886 -0.582254
vn -0.990587 0.136886 0.000000
vn -0.990587 0.136886 0.000000
vn 0.000000 1.000000 -0.000000
vn 0.000000 1.000000 -0.000000
vn -0.000000 0.963276 0.268512
vn -0.205252 0.956944 0.205255
vn 0.181941 0.966331 -0.181939
vn 0.299257 0.946462 0.121057
vn 0.000000 0.935849 -0.352401
vn 0.000000 1.000000 -0.000000
vn -0.181940 0.966331 -0.181938
vn -0.185029 0.982733 0.000000
vn 0.000000 1.000000 0.000000
vn 0.000000 1.000000 0.000000
vn 0.000000 1.000000 -0.000000
vn -0.254589 0.967049 -0.000000
vn 0.000000 1.000000 -0.000000
vn 0.093316 0.991254 -0.093317
vn 0.356403 0.924447 -0.135553
vn -0.211846 0.954067 0.211845
vn -0.088508 0.940169 0.329011
vn 0.125863 0.984031 0.125863
vn 0.000000 1.000000 0.000000
vn 0.000000 1.000000 0.000000
vn -0.247829 0.968804 0.000000
vn 0.000000 1.000000 0.000000
vn 0.265227 0.964186 0.000000
vn 0.247831 0.968803 -0.000001
vn -0.405867 0.913932 0.000000
vn 0.000001 1.000000 0.000001
vn 0.329010 0.940170 -0.088507
vn 0.000000 0.981110 -0.193452
vn 0.000000 1.000000 0.000000
vn -0.218533 0.951045 -0.218534
vn -0.247829 0.968804 0.000000
vn 0.000000 1.000000 0.000000
vn 0.093316 0.991254 0.093316
vn 0.165635 0.929656 0.329097
vn -0.211845 0.954067 0.211846
vn 0.000000 1.000000 0.000000
vn 0.329095 0.929657 0.165632
vn 0.131450 0.982569 0.131452
vn -0.378457 0.924945 -0.035322
vn -0.256794 0.966466 0.000000
vn 0.000000 1.000000 0.000000
vn 0.093316 0.991254 -0.093316
vn -0.057071 0.971992 -0.227979
vn -0.093317 0.991254 -0.093317
vn -0.000000 1.000000 -0.000000
vn 0.093315 0.991254 0.093315
vn 0.363617 0.886376 0.286566
vn -0.383748 0.839926 0.383747
vn -0.356747 0.934033 0.017719
vn 0.000000 1.000000 0.000000
vn 0.143306 0.989678 0.000000
vn 0.064975 0.988470 -0.136769
vn -0.219330 0.935116 -0.278303
vn -0.000000 0.968804 -0.247829
vn -0.033684 0.971410 -0.235007
vn 0.258668 0.930690 -0.258666
vn 0.208200 0.925286 -0.317014
vn -0.458012 0.761869 -0.458018
vn 0.246152 0.962242 0.116190
vn -0.132055 0.982407 0.132056
vn 0.000000 1.000000 0.000000
vn -0.065323 0.995724 0.065322
vn -0.177549 0.967963 0.177548
vn 0.000000 1.000000 0.000000
vn 0.000000 1.000000 0.000000
s 1
g Trashcan1
usemtl initialShadingGroup
f 2/41/1 1/42/2 11/43/3
f 3/46/4 2/41/1 11/43/3
f 4/49/5 3/46/4 11/43/3
f 5/53/6 4/49/5 11/43/3
f 6/57/7 5/53/6 11/43/3
f 7/56/8 6/57/7 11/43/3
f 8/52/9 7/56/8 11/43/3
f 9/48/10 8/52/9 11/43/3
f 10/45/11 9/48/10 11/43/3
f 1/42/2 10/45/11 11/43/3
s 2
f 22/60/12 23/61/13 24/62/14
f 23/61/13 25/63/15 24/62/14
f 25/63/15 26/65/16 24/62/14
f 26/65/16 27/66/17 24/62/14
f 27/66/17 28/67/18 24/62/14
f 28/67/18 29/68/19 24/62/14
f 29/68/19 30/38/20 24/62/14
f 30/38/20 31/34/21 24/62/14
f 31/34/21 32/64/22 24/62/14
f 32/64/22 22/60/12 24/62/14
s 1
f 1/42/2 2/41/1 13/19/23 12/44/24
f 2/41/1 3/46/4 14/7/25 13/19/23
f 3/46/4 4/49/5 15/50/26 14/7/25
f 4/49/5 5/53/6 16/54/27 15/50/26
f 5/53/6 6/57/7 17/58/28 16/54/27
f 6/57/7 7/56/8 18/59/29 17/58/28
f 7/56/8 8/52/9 19/55/30 18/59/29
f 8/52/9 9/48/10 20/51/31 19/55/30
f 9/48/10 10/45/11 21/47/32 20/51/31
f 10/45/11 1/42/2 12/44/24 21/47/32
s 3
f 33/69/33 34/35/34 52/32/35 51/70/36
f 34/35/34 33/69/33 35/71/37 36/39/38
f 36/39/38 35/71/37 37/76/39 38/101/40
f 38/27/40 37/104/39 39/83/41 40/21/42
f 40/21/42 39/83/41 41/89/43 42/22/44
f 42/22/44 41/89/43 43/90/45 44/25/46
f 44/25/46 43/90/45 45/84/47 46/29/48
f 46/29/48 45/84/47 47/77/49 48/37/50
f 48/37/50 47/77/49 49/72/51 50/31/52
f 50/31/52 49/72/51 51/70/36 52/32/35
s 4
f 53/75/53 54/81/54 58/87/55 57/103/56
f 54/81/54 53/75/53 56/74/57 55/79/58
f 55/79/58 56/74/57 71/73/59 72/80/60
f 57/82/56 58/105/55 60/93/61 59/88/62
f 59/88/62 60/93/61 62/97/63 61/94/64
f 61/94/64 62/97/63 64/98/65 63/95/66
f 63/95/66 64/98/65 66/96/67 65/91/68
f 65/91/68 66/96/67 68/92/69 67/85/70
f 67/85/70 68/92/69 70/86/71 69/78/72
f 69/78/72 70/86/71 72/80/60 71/73/59
s 5
f 12/15/73 13/19/74 54/20/75 55/16/76
f 13/19/74 14/7/77 58/8/78 54/20/75
f 14/7/77 15/1/79 60/4/80 58/8/78
f 15/1/79 16/2/81 62/3/82 60/4/80
f 16/2/81 17/5/83 64/6/84 62/3/82
f 17/5/83 18/9/85 66/10/86 64/6/84
f 18/9/85 19/99/87 68/100/88 66/10/86
f 19/17/87 20/11/89 70/14/90 68/18/88
f 20/11/89 21/12/91 72/13/92 70/14/90
f 21/12/91 12/15/73 55/16/76 72/13/92
s 6
f 35/71/93 33/69/94 56/74/95 53/75/96
f 37/76/97 35/71/93 53/75/96 57/103/98
f 39/83/99 37/104/97 57/82/98 59/88/100
f 41/89/101 39/83/99 59/88/100 61/94/102
f 43/90/103 41/89/101 61/94/102 63/95/104
f 45/84/105 43/90/103 63/95/104 65/91/106
f 47/77/107 45/84/105 65/91/106 67/85/108
f 49/72/109 47/77/107 67/85/108 69/78/110
f 51/70/111 49/72/109 69/78/110 71/73/112
f 33/69/94 51/70/111 71/73/112 56/74/95
s 7
f 34/35/113 36/39/114 23/40/115 22/36/116
f 36/39/114 38/101/117 25/102/118 23/40/115
f 38/27/117 40/21/119 26/24/120 25/28/118
f 40/21/119 42/22/121 27/23/122 26/24/120
f 42/22/121 44/25/123 28/26/124 27/23/122
f 44/25/123 46/29/125 29/30/126 28/26/124
f 46/29/125 48/37/127 30/38/128 29/30/126
f 48/37/127 50/31/129 31/34/130 30/38/128
f 50/31/129 52/32/131 32/33/132 31/34/130
f 52/32/131 34/35/113 22/36/116 32/33/132
s 8
f 73/106/133 74/107/134 81/108/135 80/109/136
f 74/107/134 75/110/137 82/111/138 81/108/135
f 75/110/137 76/112/139 83/113/140 82/111/138
f 76/112/139 77/114/141 84/115/142 83/113/140
f 77/114/141 78/116/143 85/117/144 84/115/142
f 79/118/145 80/109/136 88/119/146 87/120/147
f 80/109/136 81/108/135 89/121/148 88/119/146
f 81/108/135 82/111/138 90/122/149 89/121/148
f 82/111/138 83/113/140 91/123/150 90/122/149
f 83/113/140 84/115/142 92/124/151 91/123/150
f 84/115/142 85/117/144 93/125/152 92/124/151
f 85/117/144 86/126/153 94/127/154 93/125/152
f 87/120/147 88/119/146 97/128/155 96/129/156
f 88/119/146 89/121/148 98/130/157 97/128/155
f 89/121/148 90/122/149 99/131/158 98/130/157
f 90/122/149 91/123/150 100/132/159 99/131/158
f 91/123/150 92/124/151 101/133/160 100/132/159
f 92/124/151 93/125/152 102/134/161 101/133/160
f 93/125/152 94/127/154 103/135/162 102/134/161
f 94/127/154 95/136/163 104/137/164 103/135/162
f 96/129/156 97/128/155 106/138/165 105/139/166
f 97/128/155 98/130/157 107/140/167 106/138/165
f 98/130/157 99/131/158 108/141/168 107/140/167
f 99/131/158 100/132/159 109/142/169 108/141/168
f 100/132/159 101/133/160 110/143/170 109/142/169
f 101/133/160 102/134/161 111/144/171 110/143/170
f 102/134/161 103/135/162 112/145/172 111/144/171
f 103/135/162 104/137/164 113/146/173 112/145/172
f 105/139/166 106/138/165 115/147/174 114/148/175
f 106/138/165 107/140/167 116/149/176 115/147/174
f 107/140/167 108/141/168 117/150/177 116/149/176
f 108/141/168 109/142/169 118/151/178 117/150/177
f 109/142/169 110/143/170 119/152/179 118/151/178
f 110/143/170 111/144/171 120/153/180 119/152/179
f 111/144/171 112/145/172 121/154/181 120/153/180
f 112/145/172 113/146/173 122/155/182 121/154/181
f 114/148/175 115/147/174 124/156/183 123/157/184
f 115/147/174 116/149/176 125/158/185 124/156/183
f 116/149/176 117/150/177 126/159/186 125/158/185
f 117/150/177 118/151/178 127/160/187 126/159/186
f 118/151/178 119/152/179 128/161/188 127/160/187
f 119/152/179 120/153/180 129/162/189 128/161/188
f 120/153/180 121/154/181 130/163/190 129/162/189
f 124/156/183 125/158/185 132/164/191 131/165/192
f 125/158/185 126/159/186 133/166/193 132/164/191
f 126/159/186 127/160/187 134/167/194 133/166/193
f 127/160/187 128/161/188 135/168/195 134/167/194
f 128/161/188 129/162/189 136/169/196 135/168/195
f 129/162/189 130/163/190 137/170/197 136/169/196
f 134/167/194 135/168/195 139/171/198 138/172/199
