# This file uses meters as units for non-parametric coordinates.

mtllib wall pinboard.mtl
g default
v 466.664001 71.212830 4.500000
v 656.664001 71.212830 4.500000
v 466.664001 187.212799 4.500000
v 656.664001 187.212799 4.500000
v 466.664001 187.212799 -4.500000
v 656.664001 187.212799 -4.500000
v 466.664001 71.212830 -4.500000
v 656.664001 71.212830 -4.500000
v 463.447021 190.429794 4.500000
v 659.880981 190.429794 4.500000
v 659.880981 190.429794 -4.500000
v 463.447021 190.429794 -4.500000
v 463.447021 67.995834 -4.500000
v 659.880981 67.995834 -4.500000
v 659.880981 67.995834 4.500000
v 463.447021 67.995834 4.500000
v 466.664001 187.212799 7.114667
v 656.664001 187.212799 7.114667
v 659.880981 190.429794 7.114667
v 463.447021 190.429794 7.114667
v 466.664001 71.212830 7.114667
v 656.664001 71.212830 7.114667
v 463.447021 67.995834 7.114667
v 659.880981 67.995834 7.114667
vt 0.094884 0.158477
vt 0.094138 0.128682
vt 0.510233 0.123048
vt 0.511091 0.152900
vt 0.511362 0.161584
vt 0.095091 0.167121
vt 0.101985 0.861442
vt 0.101135 0.831597
vt 0.515785 0.824806
vt 0.516539 0.854607
vt 0.100871 0.822918
vt 0.515584 0.816156
vt 0.494786 0.177972
vt 0.112251 0.182816
vt 0.105764 0.177715
vt 0.500790 0.172296
vt 0.117353 0.806456
vt 0.498518 0.800530
vt 0.504977 0.805612
vt 0.111379 0.812156
vt 0.524197 0.816114
vt 0.520084 0.161628
vt 0.550094 0.161772
vt 0.553855 0.815977
vt 0.062349 0.822901
vt 0.056609 0.167137
vt 0.086431 0.167127
vt 0.092195 0.822911
vt 0.564435 0.805247
vt 0.560842 0.172504
vt 0.946187 0.173197
vt 0.948148 0.804645
vt 0.956840 0.162525
vt 0.958823 0.815320
vn 0.000000 0.000000 1.000000
vn 0.000000 0.000000 1.000000
vn 0.000000 0.000000 1.000000
vn 0.000000 0.000000 1.000000
vn 0.000000 1.000000 0.000000
vn 0.000000 1.000000 0.000000
vn 0.000000 1.000000 0.000000
vn 0.000000 1.000000 0.000000
vn -0.000000 0.000000 -1.000000
vn 0.000000 0.000000 -1.000000
vn 0.000000 0.000000 -1.000000
vn -0.000000 0.000000 -1.000000
vn 0.000000 -1.000000 0.000000
vn 0.000000 -1.000000 0.000000
vn 0.000000 -1.000000 0.000000
vn 0.000000 -1.000000 0.000000
vn 1.000000 0.000000 0.000000
vn 1.000000 0.000000 0.000000
vn 1.000000 0.000000 0.000000
vn 1.000000 0.000000 0.000000
vn -1.000000 0.000000 0.000000
vn -1.000000 0.000000 0.000000
vn -1.000000 0.000000 0.000000
vn -1.000000 0.000000 0.000000
vn -0.000000 0.000000 1.000000
vn 0.000000 0.000000 1.000000
vn 0.000000 0.000000 1.000000
vn -0.000000 0.000000 1.000000
vn -0.000000 0.000000 -1.000000
vn 0.000000 0.000000 -1.000000
vn 0.000000 0.000000 -1.000000
vn -0.000000 0.000000 -1.000000
vn 0.000000 0.000000 1.000000
vn -0.000000 0.000000 1.000000
vn -0.000000 0.000000 1.000000
vn 0.000000 0.000000 1.000000
vn 0.000000 -1.000000 0.000000
vn 0.000000 -1.000000 0.000000
vn 0.000000 -1.000000 0.000000
vn 0.000000 -1.000000 0.000000
vn 0.000000 1.000000 0.000000
vn 0.000000 1.000000 0.000000
vn 0.000000 1.000000 0.000000
vn 0.000000 1.000000 0.000000
vn 0.000000 1.000000 0.000000
vn 0.000000 1.000000 0.000000
vn 0.000000 -1.000000 0.000000
vn 0.000000 -1.000000 0.000000
vn -1.000000 0.000000 0.000000
vn -1.000000 0.000000 0.000000
vn -1.000000 0.000000 0.000000
vn -1.000000 0.000000 0.000000
vn 1.000000 0.000000 0.000000
vn 1.000000 0.000000 0.000000
vn 1.000000 0.000000 0.000000
vn 1.000000 0.000000 0.000000
vn 1.000000 0.000000 0.000000
vn 1.000000 0.000000 0.000000
vn -1.000000 0.000000 0.000000
vn -1.000000 0.000000 0.000000
s off
g Pinboard
usemtl initialShadingGroup
f 1/17/1 2/14/2 4/13/3 3/18/4
s 1
f 9/21/5 10/22/6 11/23/7 12/24/8
s 2
f 5/29/9 6/30/10 8/31/11 7/32/12
s 3
f 13/25/13 14/26/14 15/27/15 16/28/16
s 4
f 15/1/17 14/2/18 11/3/19 10/4/20
s 5
f 13/7/21 16/8/22 9/9/23 12/10/24
s 6
f 17/19/25 18/16/26 19/5/27 20/12/28
s 2
f 6/30/10 5/29/9 12/24/29 11/23/30
f 7/32/12 8/31/11 14/33/31 13/34/32
s 6
f 22/15/33 21/20/34 23/11/35 24/6/36
s 2
f 8/31/11 6/30/10 11/23/30 14/33/31
s 6
f 18/16/26 22/15/33 24/6/36 19/5/27
f 21/20/34 17/19/25 20/12/28 23/11/35
s 2
f 5/29/9 7/32/12 13/34/32 12/24/29
s off
f 3/18/37 4/13/38 18/16/39 17/19/40
s 1
f 10/22/6 9/21/5 20/12/41 19/5/42
s off
f 2/14/43 1/17/44 21/20/45 22/15/46
s 3
f 16/28/16 15/27/15 24/6/47 23/11/48
s off
f 4/13/49 2/14/50 22/15/51 18/16/52
s 4
f 15/1/17 10/4/20 19/5/53 24/6/54
s off
f 1/17/55 3/18/56 17/19/57 21/20/58
s 5
f 9/9/23 16/8/22 23/11/59 20/12/60
