# This file uses meters as units for non-parametric coordinates.

mtllib wall shelf.mtl
g default
v -112.121918 194.162140 -13.051183
v -109.130371 194.162140 -13.051183
v -112.121918 194.162140 -33.414982
v -109.130371 194.162140 -33.414982
v -112.121918 194.162140 -45.413414
v -109.130371 194.162140 -45.413414
v -109.130371 187.564056 -45.413414
v -112.121918 187.564056 -45.413414
v -112.121918 191.356827 -13.881475
v -112.121918 191.852844 -13.051183
v -109.130371 191.356827 -13.881475
v -109.130371 191.852844 -13.051183
v -112.121918 187.068024 -33.414982
v -112.121918 187.564056 -32.584690
v -112.121918 187.987488 -33.414982
v -112.121918 187.564056 -34.123680
v -109.130371 187.068024 -33.414982
v -109.130371 187.564056 -34.123680
v -109.130371 187.987488 -33.414982
v -109.130371 187.564056 -32.584690
v -112.121918 183.802414 -34.141426
v -112.121918 184.353577 -33.414982
v -109.130371 183.802414 -34.141426
v -109.130371 184.353577 -33.414982
v -112.121918 182.310852 -44.490883
v -112.121918 182.744812 -45.413414
v -109.130371 182.310852 -44.490883
v -109.130371 182.744812 -45.413414
v -254.231049 194.162140 -13.051183
v -251.239502 194.162140 -13.051183
v -254.231049 194.162140 -33.414982
v -251.239502 194.162140 -33.414982
v -254.231049 194.162140 -45.413414
v -251.239502 194.162140 -45.413414
v -251.239502 187.564056 -45.413414
v -254.231049 187.564056 -45.413414
v -254.231049 191.356827 -13.881475
v -254.231049 191.852844 -13.051183
v -251.239502 191.356827 -13.881475
v -251.239502 191.852844 -13.051183
v -254.231049 187.068024 -33.414982
v -254.231049 187.564056 -32.584690
v -254.231049 187.987488 -33.414982
v -254.231049 187.564056 -34.123680
v -251.239502 187.068024 -33.414982
v -251.239502 187.564056 -34.123680
v -251.239502 187.987488 -33.414982
v -251.239502 187.564056 -32.584690
v -254.231049 183.802414 -34.141426
v -254.231049 184.353577 -33.414982
v -251.239502 183.802414 -34.141426
v -251.239502 184.353577 -33.414982
v -254.231049 182.310852 -44.490883
v -254.231049 182.744812 -45.413414
v -251.239502 182.310852 -44.490883
v -251.239502 182.744812 -45.413414
v -260.062317 194.051651 15.865249
v -260.062317 194.551636 16.365196
v -260.562256 194.551636 15.865249
v -102.911919 194.551636 15.865249
v -103.411865 194.551636 16.365196
v -103.411865 194.051651 15.865249
v -260.562256 198.551712 15.865249
v -260.062317 198.551712 16.365196
v -260.062317 199.051651 15.865249
v -103.411865 199.051651 15.865249
v -103.411865 198.551712 16.365196
v -102.911919 198.551712 15.865249
v -260.562256 198.551712 -45.351730
v -260.062317 199.051651 -45.351730
v -260.062317 198.551712 -45.851681
v -103.411865 198.551712 -45.851681
v -103.411865 199.051651 -45.351730
v -102.911919 198.551712 -45.351730
v -260.562256 194.551636 -45.351730
v -260.062317 194.551636 -45.851681
v -260.062317 194.051651 -45.351730
v -103.411865 194.051651 -45.351730
v -103.411865 194.551636 -45.851681
v -102.911919 194.551636 -45.351730
vt 0.838923 0.429827
vt 0.776317 0.426142
vt 0.772237 0.418879
vt 0.841445 0.310395
vt 0.795516 0.629475
vt 0.818446 0.631449
vt 0.766909 0.425697
vt 0.771307 0.434019
vt 0.776606 0.306271
vt 0.791351 0.620911
vt 0.739437 0.424356
vt 0.728545 0.303544
vt 0.734197 0.416812
vt 0.723799 0.312529
vt 0.970108 0.425521
vt 0.981138 0.307023
vt 0.985900 0.315749
vt 0.975351 0.418042
vt 0.943871 0.434757
vt 0.938338 0.427579
vt 0.933293 0.310901
vt 0.937186 0.444097
vt 0.933757 0.435036
vt 0.870855 0.311645
vt 0.876506 0.628136
vt 0.870714 0.635980
vt 0.869607 0.431560
vt 0.847982 0.634021
vt 0.704177 0.419550
vt 0.693901 0.315208
vt 0.898398 0.649320
vt 0.887021 0.670013
vt 0.860000 0.656146
vt 0.903577 0.640050
vt 0.963408 0.459600
vt 0.968291 0.454950
vt 0.735019 0.425947
vt 0.843180 0.244223
vt 0.873217 0.245169
vt 0.844662 0.195787
vt 0.874729 0.196718
vt 0.875046 0.186470
vt 0.844978 0.185539
vt 0.705008 0.428681
vt 0.986379 0.442763
vt 0.870714 0.635980
vt 0.898398 0.649320
vt 0.887021 0.670013
vt 0.860000 0.656146
vt 0.847982 0.634021
vt 0.818446 0.631449
vt 0.838923 0.429827
vt 0.869607 0.431560
vt 0.870855 0.311645
vt 0.841445 0.310395
vt 0.843180 0.244223
vt 0.873217 0.245169
vt 0.937186 0.444097
vt 0.963408 0.459600
vt 0.903577 0.640050
vt 0.876506 0.628136
vt 0.776317 0.426142
vt 0.772237 0.418879
vt 0.734197 0.416812
vt 0.704177 0.419550
vt 0.693901 0.315208
vt 0.723799 0.312529
vt 0.968291 0.454950
vt 0.943871 0.434757
vt 0.970108 0.425521
vt 0.986379 0.442763
vt 0.844662 0.195787
vt 0.874729 0.196718
vt 0.728545 0.303544
vt 0.739437 0.424356
vt 0.795516 0.629475
vt 0.791351 0.620911
vt 0.771307 0.434019
vt 0.981138 0.307023
vt 0.985900 0.315749
vt 0.975351 0.418042
vt 0.933757 0.435036
vt 0.938338 0.427579
vt 0.705008 0.428681
vt 0.735019 0.425947
vt 0.875046 0.186470
vt 0.844978 0.185539
vt 0.766909 0.425697
vt 0.776606 0.306271
vt 0.933293 0.310901
vt 0.353420 0.082150
vt 0.353038 0.085608
vt 0.051925 0.085498
vt 0.051552 0.082031
vt 0.376640 0.108800
vt 0.380126 0.108801
vt 0.379770 0.881219
vt 0.376284 0.881218
vt 0.356492 0.085199
vt 0.356419 0.105725
vt 0.353057 0.105322
vt 0.352714 0.904375
vt 0.353087 0.907842
vt 0.051220 0.907723
vt 0.051601 0.904266
vt 0.356076 0.904779
vt 0.352693 0.884664
vt 0.356147 0.884256
vt 0.353430 0.108789
vt 0.051565 0.108666
vt 0.051946 0.105209
vt 0.356916 0.108790
vt 0.356560 0.881209
vt 0.353074 0.881207
vt 0.051582 0.884552
vt 0.051209 0.881085
vt 0.048493 0.105618
vt 0.048564 0.085094
vt 0.048079 0.108665
vt 0.047723 0.881083
vt 0.048221 0.884148
vt 0.048148 0.904674
vt 0.024869 0.108654
vt 0.028355 0.108656
vt 0.027999 0.881074
vt 0.024513 0.881072
vt 0.681977 0.108940
vt 0.681621 0.881358
vn 0.000000 0.000000 1.000000
vn 0.000000 0.000000 1.000000
vn 0.000000 0.000000 1.000000
vn 0.000000 0.000000 1.000000
vn 0.000000 1.000000 0.000000
vn 0.000000 1.000000 0.000000
vn 0.000000 1.000000 0.000000
vn 0.000000 1.000000 0.000000
vn 0.000000 0.000000 -1.000000
vn 0.000000 0.000000 -1.000000
vn 0.000000 0.000000 -1.000000
vn 0.000000 0.000000 -1.000000
vn 0.000000 -0.980052 0.198742
vn 0.000000 -0.980052 0.198742
vn 0.000000 -0.980052 0.198742
vn 0.000000 -0.980052 0.198742
vn 0.000000 1.000000 0.000000
vn 0.000000 1.000000 0.000000
vn 1.000000 0.000000 0.000000
vn 1.000000 0.000000 0.000000
vn 1.000000 0.000000 0.000000
vn 1.000000 0.000000 0.000000
vn 0.000000 -0.989774 0.142646
vn 0.000000 -0.989774 0.142646
vn 0.000000 -0.989774 0.142646
vn 0.000000 -0.989774 0.142646
vn 0.000000 0.000000 1.000000
vn 0.000000 0.000000 1.000000
vn 0.000000 0.000000 1.000000
vn 0.000000 0.000000 1.000000
vn 0.000000 0.000000 -1.000000
vn 0.000000 0.000000 -1.000000
vn 1.000000 -0.000000 0.000000
vn 1.000000 -0.000000 0.000000
vn 1.000000 -0.000003 0.000000
vn 1.000000 -0.000003 0.000000
vn 1.000000 0.000000 0.000000
vn 1.000000 0.000000 0.000000
vn 1.000000 0.000000 0.000000
vn -1.000000 0.000000 0.000000
vn -1.000000 0.000000 0.000000
vn -1.000000 0.000001 0.000000
vn -1.000000 0.000001 0.000000
vn -1.000000 0.000000 0.000000
vn -1.000000 0.000000 0.000000
vn -1.000000 0.000000 0.000000
vn -1.000000 0.000000 0.000000
vn -1.000000 0.000000 0.000000
vn -1.000000 0.000000 0.000000
vn -1.000000 0.000000 0.000000
vn 0.000000 -0.858481 0.512846
vn 0.000000 -0.858481 0.512846
vn 0.000000 -0.858481 0.512846
vn 0.000000 -0.858481 0.512846
vn 0.000000 -0.858471 0.512862
vn 0.000000 -0.858471 0.512862
vn 0.000000 -0.858471 0.512862
vn 0.000000 -0.858471 0.512862
vn 0.000000 -0.796661 0.604427
vn 0.000000 -0.796661 0.604427
vn 0.000000 -0.796661 0.604427
vn 0.000000 -0.796661 0.604427
vn 0.000000 -0.904883 -0.425660
vn 0.000000 -0.904883 -0.425660
vn 0.000000 -0.904883 -0.425660
vn 0.000000 -0.904883 -0.425660
vn -1.000000 0.000000 0.000000
vn 1.000000 0.000000 0.000000
vn 1.000000 0.000000 0.000000
vn 1.000000 0.000000 0.000000
vn -1.000000 0.000000 0.000000
vn -1.000000 0.000000 0.000000
vn 0.000000 0.000000 1.000000
vn 0.000000 0.000000 1.000000
vn 0.000000 0.000000 1.000000
vn 0.000000 0.000000 1.000000
vn 0.000000 1.000000 0.000000
vn 0.000000 1.000000 0.000000
vn 0.000000 1.000000 0.000000
vn 0.000000 1.000000 0.000000
vn 0.000000 0.000000 -1.000000
vn 0.000000 0.000000 -1.000000
vn 0.000000 0.000000 -1.000000
vn 0.000000 0.000000 -1.000000
vn 0.000000 -0.980052 0.198742
vn 0.000000 -0.980052 0.198742
vn 0.000000 -0.980052 0.198742
vn 0.000000 -0.980052 0.198742
vn 0.000000 1.000000 0.000000
vn 0.000000 1.000000 0.000000
vn 1.000000 0.000002 0.000000
vn 1.000000 0.000002 0.000000
vn 1.000000 -0.000001 0.000000
vn 1.000000 0.000002 0.000000
vn 0.000000 -0.989774 0.142646
vn 0.000000 -0.989774 0.142646
vn 0.000000 -0.989774 0.142646
vn 0.000000 -0.989774 0.142646
vn 0.000000 0.000000 1.000000
vn 0.000000 0.000000 1.000000
vn 0.000000 0.000000 1.000000
vn 0.000000 0.000000 1.000000
vn 0.000000 0.000000 -1.000000
vn 0.000000 0.000000 -1.000000
vn 1.000000 -0.000005 0.000000
vn 1.000000 0.000002 0.000000
vn 1.000000 0.000019 0.000000
vn 1.000000 0.000019 0.000000
vn 1.000000 0.000000 0.000000
vn 1.000000 0.000000 0.000000
vn 1.000000 0.000000 0.000000
vn -1.000000 0.000002 0.000000
vn -1.000000 0.000001 0.000000
vn -1.000000 0.000019 0.000000
vn -1.000000 0.000019 0.000000
vn -1.000000 0.000000 0.000000
vn -1.000000 0.000000 0.000000
vn -1.000000 0.000000 0.000000
vn -1.000000 0.000000 0.000000
vn -1.000000 0.000000 0.000000
vn -1.000000 0.000000 0.000000
vn -1.000000 0.000000 0.000000
vn 0.000000 -0.858481 0.512846
vn 0.000000 -0.858481 0.512846
vn 0.000000 -0.858481 0.512846
vn 0.000000 -0.858481 0.512846
vn 0.000000 -0.858471 0.512862
vn 0.000000 -0.858471 0.512862
vn 0.000000 -0.858471 0.512862
vn 0.000000 -0.858471 0.512862
vn 0.000000 -0.796660 0.604428
vn 0.000000 -0.796660 0.604428
vn 0.000000 -0.796660 0.604428
vn 0.000000 -0.796660 0.604428
vn 0.000000 -0.904883 -0.425660
vn 0.000000 -0.904883 -0.425660
vn 0.000000 -0.904883 -0.425660
vn 0.000000 -0.904883 -0.425660
vn -1.000000 0.000000 0.000000
vn 1.000000 -0.000005 0.000000
vn 1.000000 -0.000004 0.000000
vn 1.000000 0.000000 0.000000
vn -1.000000 0.000000 0.000000
vn -1.000000 0.000000 0.000000
vn -0.707142 -0.707071 0.000000
vn -0.707142 -0.707071 0.000000
vn -0.707142 -0.707071 0.000000
vn -0.707142 -0.707071 0.000000
vn 0.000000 -0.707083 0.707130
vn 0.000000 -0.707083 0.707130
vn 0.000000 -0.707083 0.707130
vn 0.000000 -0.707083 0.707130
vn -0.707114 0.000000 0.707100
vn -0.707114 0.000000 0.707100
vn -0.707114 0.000000 0.707100
vn -0.707114 0.000000 0.707100
vn 0.707137 -0.707077 0.000000
vn 0.707137 -0.707077 0.000000
vn 0.707137 -0.707077 0.000000
vn 0.707137 -0.707077 0.000000
vn 0.707108 0.000000 0.707105
vn 0.707108 0.000000 0.707105
vn 0.707108 0.000000 0.707105
vn 0.707108 0.000000 0.707105
vn -0.707110 0.707104 0.000000
vn -0.707110 0.707104 0.000000
vn -0.707110 0.707104 0.000000
vn -0.707110 0.707104 0.000000
vn 0.000000 0.707110 0.707104
vn 0.000000 0.707110 0.707104
vn 0.000000 0.707110 0.707104
vn 0.000000 0.707110 0.707104
vn 0.707104 0.707109 0.000000
vn 0.707104 0.707109 0.000000
vn 0.707104 0.707109 0.000000
vn 0.707104 0.707109 0.000000
vn -0.707114 0.000000 -0.707100
vn -0.707114 0.000000 -0.707100
vn -0.707114 0.000000 -0.707100
vn -0.707114 0.000000 -0.707100
vn 0.000000 0.707112 -0.707102
vn 0.000000 0.707112 -0.707102
vn 0.000000 0.707112 -0.707102
vn 0.000000 0.707112 -0.707102
vn 0.707108 0.000000 -0.707105
vn 0.707108 0.000000 -0.707105
vn 0.707108 0.000000 -0.707105
vn 0.707108 0.000000 -0.707105
vn 0.000000 -0.707085 -0.707129
vn 0.000000 -0.707085 -0.707129
vn 0.000000 -0.707085 -0.707129
vn 0.000000 -0.707085 -0.707129
vn 0.000000 0.000000 1.000000
vn 0.000000 0.000000 1.000000
vn 0.000000 0.000000 1.000000
vn 0.000000 0.000000 1.000000
vn 0.000000 1.000000 0.000000
vn 0.000000 1.000000 0.000000
vn 0.000000 1.000000 0.000000
vn 0.000000 1.000000 0.000000
vn 0.000000 0.000000 -1.000000
vn 0.000000 0.000000 -1.000000
vn 0.000000 0.000000 -1.000000
vn 0.000000 0.000000 -1.000000
vn 0.000000 -1.000000 0.000000
vn 0.000000 -1.000000 0.000000
vn 0.000000 -1.000000 0.000000
vn 0.000000 -1.000000 0.000000
vn 1.000000 0.000000 0.000000
vn 1.000000 0.000000 0.000000
vn 1.000000 0.000000 0.000000
vn 1.000000 0.000000 0.000000
vn -1.000000 0.000000 0.000000
vn -1.000000 0.000000 0.000000
vn -1.000000 0.000000 0.000000
vn -1.000000 0.000000 0.000000
vn -0.577369 -0.577306 0.577376
vn -0.577369 -0.577305 0.577376
vn -0.577369 -0.577306 0.577376
vn 0.577369 -0.577305 0.577376
vn 0.577369 -0.577305 0.577376
vn 0.577369 -0.577305 0.577376
vn -0.577359 0.577346 0.577346
vn -0.577359 0.577346 0.577346
vn -0.577359 0.577346 0.577346
vn 0.577359 0.577346 0.577346
vn 0.577359 0.577346 0.577346
vn 0.577359 0.577346 0.577346
vn -0.577362 0.577344 -0.577344
vn -0.577362 0.577344 -0.577344
vn -0.577362 0.577344 -0.577344
vn 0.577356 0.577356 -0.577339
vn 0.577356 0.577356 -0.577339
vn 0.577356 0.577356 -0.577339
vn -0.577374 -0.577303 -0.577374
vn -0.577374 -0.577303 -0.577374
vn -0.577374 -0.577303 -0.577374
vn 0.577368 -0.577315 -0.577368
vn 0.577368 -0.577315 -0.577368
vn 0.577368 -0.577315 -0.577368
s off
g Wall_shelf
usemtl initialShadingGroup
f 10/26/1 12/31/2 2/32/3 1/33/4
s 1
f 1/28/5 2/6/6 4/1/7 3/27/8
s 2
f 5/24/9 6/4/10 7/38/11 8/39/12
s off
f 14/22/13 20/35/14 11/34/15 9/25/16
s 1
f 3/27/8 4/1/7 6/4/17 5/24/18
s 3
f 4/1/19 19/2/20 18/3/21 6/4/22
s off
f 23/13/23 21/29/24 25/30/25 27/14/26
f 17/36/27 13/19/28 22/15/29 24/45/30
s 2
f 8/39/12 7/38/11 28/40/31 26/41/32
s 3
f 28/12/33 24/11/34 23/13/35 27/14/36
f 12/5/37 11/10/38 20/8/39 19/2/20
s 5
f 22/15/40 26/16/41 25/17/42 21/18/43
f 15/23/44 14/22/45 9/25/46 10/26/47
f 16/20/48 15/23/44 3/27/49 5/24/50
s off
f 10/26/51 9/25/52 11/34/53 12/31/54
f 14/22/55 13/19/56 17/36/57 20/35/58
f 22/44/59 21/29/60 23/13/61 24/37/62
f 25/42/63 26/41/64 28/40/65 27/43/66
s 5
f 13/19/67 14/22/45 15/23/44 16/20/48
s 3
f 17/7/68 18/3/21 19/2/20 20/8/39
f 7/9/69 18/3/21 17/7/68 28/12/33
f 6/4/22 18/3/21 7/9/69
f 12/5/37 19/2/20 4/1/19 2/6/70
s 5
f 15/23/44 10/26/47 1/28/71 3/27/49
f 13/19/67 26/16/41 22/15/40
f 16/20/48 5/24/50 8/21/72
f 13/19/67 16/20/48 8/21/72 26/16/41
s 3
f 28/12/33 17/7/68 24/11/34
s off
f 38/46/73 40/47/74 30/48/75 29/49/76
s 7
f 29/50/77 30/51/78 32/52/79 31/53/80
s 8
f 33/54/81 34/55/82 35/56/83 36/57/84
s off
f 42/58/85 48/59/86 39/60/87 37/61/88
s 7
f 31/53/80 32/52/79 34/55/89 33/54/90
s 9
f 32/52/91 47/62/92 46/63/93 34/55/94
s off
f 51/64/95 49/65/96 53/66/97 55/67/98
f 45/68/99 41/69/100 50/70/101 52/71/102
s 8
f 36/57/84 35/56/83 56/72/103 54/73/104
s 9
f 56/74/105 52/75/106 51/64/107 55/67/108
f 40/76/109 39/77/110 48/78/111 47/62/92
s 11
f 50/70/112 54/79/113 53/80/114 49/81/115
f 43/82/116 42/58/117 37/61/118 38/46/119
f 44/83/120 43/82/116 31/53/121 33/54/122
s off
f 38/46/123 37/61/124 39/60/125 40/47/126
f 42/58/127 41/69/128 45/68/129 48/59/130
f 50/84/131 49/65/132 51/64/133 52/85/134
f 53/86/135 54/73/136 56/72/137 55/87/138
s 11
f 41/69/139 42/58/117 43/82/116 44/83/120
s 9
f 45/88/140 46/63/93 47/62/92 48/78/111
f 35/89/141 46/63/93 45/88/140 56/74/105
f 34/55/94 46/63/93 35/89/141
f 40/76/109 47/62/92 32/52/91 30/51/142
s 11
f 43/82/116 38/46/119 29/50/143 31/53/121
f 41/69/139 54/79/113 50/70/112
f 44/83/120 33/54/122 36/90/144
f 41/69/139 44/83/120 36/90/144 54/79/113
s 9
f 56/74/105 45/88/140 52/75/106
s off
f 57/91/145 59/92/146 75/93/147 77/94/148
f 58/95/149 57/96/150 62/97/151 61/98/152
f 59/92/153 58/99/154 64/100/155 63/101/156
f 60/102/157 62/103/158 78/104/159 80/105/160
f 61/106/161 60/102/162 68/107/163 67/108/164
f 63/101/165 65/109/166 70/110/167 69/111/168
f 65/109/169 64/112/170 67/113/171 66/114/172
f 66/114/173 68/107/174 74/115/175 73/116/176
f 69/111/177 71/117/178 76/118/179 75/93/180
f 71/119/181 70/110/182 73/116/183 72/120/184
f 72/121/185 74/115/186 80/105/187 79/122/188
f 77/123/189 76/124/190 79/125/191 78/126/192
f 58/95/193 61/98/194 67/113/195 64/112/196
f 65/109/197 66/114/198 73/116/199 70/110/200
f 71/119/201 72/120/202 79/125/203 76/124/204
f 77/127/205 78/128/206 62/97/207 57/96/208
f 60/102/209 80/105/210 74/115/211 68/107/212
f 75/93/213 59/92/214 63/101/215 69/111/216
f 57/91/217 58/99/218 59/92/219
f 60/102/220 61/106/221 62/103/222
f 63/101/223 64/100/224 65/109/225
f 66/114/226 67/108/227 68/107/228
f 69/111/229 70/110/230 71/117/231
f 72/121/232 73/116/233 74/115/234
f 75/93/235 76/118/236 77/94/237
f 78/104/238 79/122/239 80/105/240
