# This file uses meters as units for non-parametric coordinates.

mtllib !wet floor sign.mtl
g default
v 1.651397 0.018414 124.256287
v -4.237245 56.045105 124.256287
v 1.651398 0.018412 93.921890
v -4.237245 56.045105 93.921890
v 4.237245 0.290197 124.256287
v -1.651398 56.316887 124.256287
v 4.237245 0.290195 93.921890
v -1.651397 56.316887 93.921890
v 0.620885 9.823086 124.256287
v 0.620885 9.823084 93.921890
v 3.206733 10.094868 93.921890
v 3.206732 10.094870 124.256287
v 1.651397 0.018412 104.033356
v 1.651397 0.018414 114.144821
v -4.306841 56.707272 113.555153
v -4.306841 56.707268 104.667191
v 4.237245 0.290197 114.144821
v 4.237245 0.290195 104.033356
v -1.651397 56.316887 104.033356
v -1.651397 56.316887 114.144821
v 3.206732 10.094868 104.033356
v 3.206732 10.094870 114.144821
v 0.620885 9.823086 114.144821
v 0.620885 9.823084 104.033356
v 3.830491 10.160427 94.650932
v 4.719479 1.702272 94.650932
v 4.719479 1.702272 103.304314
v -0.886114 55.035931 114.144821
v -0.886115 55.035931 123.527245
v 3.830491 10.160429 123.527245
v 4.719479 1.702274 123.527245
v -0.886114 55.035927 94.650932
v 3.830491 10.160429 114.144821
v 4.719479 1.702274 114.873863
v -0.886114 55.035927 104.033356
v 3.830491 10.160427 104.033356
v 3.830491 10.160427 93.921890
v 4.861003 0.355755 93.921890
v 4.861003 0.355755 104.033356
v -1.097236 57.044617 113.555153
v -1.027639 56.382446 124.256287
v 3.830491 10.160429 124.256287
v 4.861003 0.355757 124.256287
v -1.027639 56.382446 93.921890
v 4.861003 0.355757 114.144821
v -1.097236 57.044613 104.667191
v 3.751000 10.916729 103.304314
v 3.751000 10.916731 114.873863
v 2.935455 10.831013 114.873863
v 3.014945 10.074711 123.527245
v 3.014945 10.074711 94.650932
v 2.935455 10.831013 103.304314
v -1.701660 54.950211 104.033356
v -1.701660 54.950211 114.144821
v 3.903933 1.616556 94.650932
v 3.903933 1.616556 103.304314
v -1.701660 54.950211 123.527245
v 3.903933 1.616556 123.527245
v -1.701660 54.950211 94.650932
v 3.903933 1.616556 114.873863
v -1.312281 59.090630 104.667191
v -2.005635 59.687241 104.033356
v -4.521887 58.753288 113.555153
v -4.521887 58.753288 104.667191
v -2.005635 59.687241 114.144821
v -1.312281 59.090633 113.555153
v -4.237245 56.045105 114.144821
v -4.237245 56.045105 104.033356
v -1.027639 56.382446 104.033356
v -1.027639 56.382446 114.144821
v -4.591483 59.415459 114.144821
v -4.591483 59.415455 104.033356
v -1.381877 59.752800 104.033356
v -1.381877 59.752800 114.144821
vt 0.481368 0.347074
vt 0.467743 0.408027
vt 0.203940 0.000000
vt 0.421860 0.382054
vt 0.383313 0.426670
vt 0.750292 0.205624
vt 0.869390 0.330738
vt 0.743614 0.209362
vt 0.686829 0.221213
vt 0.816614 0.011910
vt 0.851970 0.053493
vt 0.255195 0.486813
vt 0.311815 0.475399
vt 0.852307 0.046280
vt 0.838248 0.000000
vt 0.204631 0.534259
vt 0.262631 0.543043
vt 0.000000 0.135668
vt 0.192610 0.519899
vt 0.190662 0.515805
vt 0.248893 0.558728
vt 0.192498 0.455391
vt 0.011034 0.151676
vt 0.013823 0.155583
vt 0.195339 0.504803
vt 0.198042 0.499777
vt 0.197835 0.452947
vt 0.203920 0.450203
vt 0.024212 0.161440
vt 0.030282 0.159838
vt 0.282390 0.435545
vt 0.275308 0.428733
vt 0.249041 0.470669
vt 0.245514 0.469344
vt 0.249608 0.477385
vt 0.248260 0.475111
vt 0.294660 0.447993
vt 0.289648 0.441933
vt 0.085110 0.114194
vt 0.089614 0.119328
vt 0.869061 0.067690
vt 0.962358 0.072328
vt 0.873673 0.068043
vt 0.951802 0.059976
vt 0.874311 0.069549
vt 0.935937 0.051431
vt 0.773364 0.305439
vt 0.753392 0.249630
vt 0.415057 0.372858
vt 0.413417 0.370639
vt 0.363295 0.403063
vt 0.359055 0.397766
vt 0.150198 0.069909
vt 0.154130 0.075276
vt 0.753121 0.244468
vt 0.801870 0.320617
vt 0.760376 0.251240
vt 0.750423 0.304998
vt 0.360267 0.387369
vt 0.356356 0.378183
vt 0.407976 0.369539
vt 0.404306 0.367662
vt 0.410383 0.317924
vt 0.405522 0.322471
vt 0.219106 0.033966
vt 0.216183 0.039539
vt 0.455524 0.331173
vt 0.450275 0.333345
vt 0.501828 0.349921
vt 0.467089 0.330207
vt 0.487073 0.400862
vt 0.414891 0.314191
vt 0.679881 0.688437
vt 0.218207 0.022031
vt 0.215707 0.017867
vt 0.460696 0.849707
vt 0.598084 0.740155
vt 0.537042 0.785590
vt 0.662231 0.699142
vt 0.476889 0.836675
vt 0.199118 0.552270
vt 0.470211 0.333169
vt 0.370839 0.398772
vt 0.294660 0.447994
vt 0.249607 0.477386
vt 0.415059 0.372856
vt 0.506571 0.351656
vt 0.491703 0.399039
vt 0.684179 0.685832
vt 0.456759 0.852842
vt 0.245347 0.562267
vt 0.198781 0.557156
vt 0.786642 0.316051
vt 0.928712 0.027173
vt 0.731105 0.298373
vt 0.913293 0.012470
vt 0.368396 0.392698
vt 0.078723 0.105735
vt 0.144900 0.060749
vt 0.075551 0.101973
vt 0.142668 0.056390
vt 0.062774 0.085873
vt 0.133110 0.038443
vt 0.995473 0.125821
vt 0.684179 0.242813
vt 0.891426 0.325620
vt 1.000000 0.149139
vn -0.994522 -0.104528 0.000000
vn -0.994522 -0.104528 0.000000
vn -0.994522 -0.104528 0.000000
vn -0.994522 -0.104528 0.000000
vn 0.000000 -0.000000 -1.000000
vn 0.000000 -0.000000 -1.000000
vn 0.000000 -0.000000 -1.000000
vn 0.000000 -0.000000 -1.000000
vn 0.104528 -0.994522 0.000000
vn 0.104528 -0.994522 0.000000
vn 0.104528 -0.994522 0.000000
vn 0.104528 -0.994522 0.000000
vn -0.000000 0.000000 1.000000
vn -0.000000 0.000000 1.000000
vn -0.000000 0.000000 1.000000
vn -0.000000 0.000000 1.000000
vn 0.104528 -0.994522 0.000000
vn 0.104528 -0.994522 0.000000
vn 0.104528 -0.994522 0.000000
vn 0.104528 -0.994522 0.000000
vn -0.104528 0.994522 -0.000000
vn -0.104528 0.994522 -0.000000
vn -0.104528 0.994522 -0.000000
vn -0.104528 0.994522 -0.000000
vn -0.000000 0.000000 1.000000
vn -0.000000 0.000000 1.000000
vn -0.000000 0.000000 1.000000
vn -0.000000 0.000000 1.000000
vn 0.104528 -0.994522 0.000000
vn 0.104528 -0.994522 0.000000
vn 0.104528 -0.994522 0.000000
vn 0.104528 -0.994522 0.000000
vn 0.000000 -0.000000 -1.000000
vn 0.000000 -0.000000 -1.000000
vn 0.000000 -0.000000 -1.000000
vn 0.000000 -0.000000 -1.000000
vn -0.994522 -0.104528 0.000000
vn -0.994522 -0.104528 0.000000
vn -0.994522 -0.104528 0.000000
vn -0.994522 -0.104528 0.000000
vn -0.994522 -0.104528 0.000000
vn -0.994522 -0.104528 0.000000
vn -0.994522 -0.104528 0.000000
vn -0.994522 -0.104528 0.000000
vn -0.000000 0.000000 1.000000
vn -0.000000 0.000000 1.000000
vn -0.000000 0.000000 1.000000
vn -0.000000 0.000000 1.000000
vn 0.000000 -0.000000 -1.000000
vn 0.000000 -0.000000 -1.000000
vn 0.000000 -0.000000 -1.000000
vn 0.000000 -0.000000 -1.000000
vn -0.104528 0.994522 -0.000000
vn -0.104528 0.994522 -0.000000
vn -0.104528 0.994522 -0.000000
vn -0.104528 0.994522 -0.000000
vn -0.000000 0.000000 1.000000
vn -0.000000 0.000000 1.000000
vn -0.000000 0.000000 1.000000
vn -0.000000 0.000000 1.000000
vn 0.104528 -0.994522 0.000000
vn 0.104528 -0.994522 0.000000
vn 0.104528 -0.994522 0.000000
vn 0.104528 -0.994522 0.000000
vn -0.000000 0.000000 1.000000
vn -0.000000 0.000000 1.000000
vn -0.000000 0.000000 1.000000
vn -0.000000 0.000000 1.000000
vn 0.000000 -0.000000 -1.000000
vn 0.000000 -0.000000 -1.000000
vn 0.000000 -0.000000 -1.000000
vn 0.000000 -0.000000 -1.000000
vn 0.000000 -0.000000 -1.000000
vn 0.000000 -0.000000 -1.000000
vn 0.000000 -0.000000 -1.000000
vn 0.000000 -0.000000 -1.000000
vn -0.994522 -0.104528 0.000000
vn -0.994522 -0.104528 0.000000
vn -0.994522 -0.104528 0.000000
vn -0.994522 -0.104528 0.000000
vn -0.994522 -0.104528 0.000000
vn -0.994522 -0.104528 0.000000
vn -0.994522 -0.104528 0.000000
vn -0.994522 -0.104528 0.000000
vn 0.104528 -0.994522 0.000000
vn 0.104528 -0.994522 0.000000
vn 0.104528 -0.994522 0.000000
vn 0.104528 -0.994522 0.000000
vn 0.000000 -0.000000 -1.000000
vn 0.000000 -0.000000 -1.000000
vn 0.000000 -0.000000 -1.000000
vn 0.000000 -0.000000 -1.000000
vn 0.000000 -0.000000 -1.000000
vn 0.000000 -0.000000 -1.000000
vn 0.000000 -0.000000 -1.000000
vn 0.000000 -0.000000 -1.000000
vn -0.104528 0.994522 -0.000000
vn -0.104528 0.994522 -0.000000
vn -0.104528 0.994522 -0.000000
vn -0.104528 0.994522 -0.000000
vn -0.104528 0.994522 -0.000000
vn -0.104528 0.994522 -0.000000
vn -0.104528 0.994522 -0.000000
vn -0.104528 0.994522 -0.000000
vn 0.104528 -0.994522 0.000000
vn 0.104528 -0.994522 0.000000
vn 0.104528 -0.994522 0.000000
vn 0.104528 -0.994522 0.000000
vn 0.000000 -0.000000 -1.000000
vn 0.000000 -0.000000 -1.000000
vn 0.000000 -0.000000 -1.000000
vn 0.000000 -0.000000 -1.000000
vn 0.000000 -0.000000 -1.000000
vn 0.000000 -0.000000 -1.000000
vn 0.000000 -0.000000 -1.000000
vn 0.000000 -0.000000 -1.000000
vn -0.104528 0.994522 -0.000000
vn -0.104528 0.994522 -0.000000
vn -0.104528 0.994522 -0.000000
vn -0.104528 0.994522 -0.000000
vn -0.000000 0.000000 1.000000
vn -0.000000 0.000000 1.000000
vn -0.000000 0.000000 1.000000
vn -0.000000 0.000000 1.000000
vn 0.104528 -0.994522 0.000000
vn 0.104528 -0.994522 0.000000
vn 0.104528 -0.994522 0.000000
vn 0.104528 -0.994522 0.000000
vn -0.000000 0.000000 1.000000
vn -0.000000 0.000000 1.000000
vn -0.000000 0.000000 1.000000
vn -0.000000 0.000000 1.000000
vn -0.104528 0.994522 -0.000000
vn -0.104528 0.994522 -0.000000
vn -0.104528 0.994522 -0.000000
vn -0.104528 0.994522 -0.000000
vn 0.994522 0.104528 -0.000000
vn 0.994522 0.104528 -0.000000
vn 0.994522 0.104528 -0.000000
vn 0.994522 0.104528 -0.000000
vn 0.994522 0.104528 -0.000000
vn 0.994522 0.104528 -0.000000
vn 0.994522 0.104528 -0.000000
vn 0.994522 0.104528 -0.000000
vn 0.994522 0.104528 -0.000000
vn 0.994522 0.104528 -0.000000
vn 0.994522 0.104528 -0.000000
vn 0.994522 0.104528 -0.000000
vn 0.994522 0.104528 -0.000000
vn 0.994522 0.104528 -0.000000
vn 0.994522 0.104528 -0.000000
vn 0.994522 0.104528 -0.000000
vn 0.994522 0.104528 -0.000000
vn 0.994522 0.104528 -0.000000
vn 0.994522 0.104528 -0.000000
vn 0.994522 0.104528 -0.000000
vn 0.994522 0.104528 -0.000000
vn 0.994522 0.104528 -0.000000
vn 0.994522 0.104528 -0.000000
vn 0.994522 0.104528 -0.000000
vn 0.994522 0.104528 -0.000000
vn 0.994522 0.104528 -0.000000
vn 0.994522 0.104528 -0.000000
vn 0.994522 0.104528 -0.000000
vn 0.994522 0.104528 -0.000000
vn 0.994522 0.104528 -0.000000
vn 0.994522 0.104528 -0.000000
vn 0.994522 0.104528 -0.000000
vn 0.994522 0.104528 -0.000000
vn 0.994522 0.104528 -0.000000
vn 0.994522 0.104528 -0.000000
vn 0.994522 0.104528 -0.000000
vn 0.994522 0.104528 -0.000000
vn 0.994522 0.104528 -0.000000
vn 0.994522 0.104528 -0.000000
vn 0.994522 0.104528 -0.000000
vn 0.994522 0.104528 -0.000000
vn 0.994522 0.104528 -0.000000
vn 0.994522 0.104528 -0.000000
vn 0.994522 0.104528 -0.000000
vn 0.994522 0.104528 0.000000
vn 0.994522 0.104528 0.000000
vn 0.994522 0.104528 0.000000
vn 0.994522 0.104528 0.000000
vn 0.994522 0.104528 -0.000000
vn 0.994522 0.104528 -0.000000
vn 0.994522 0.104528 -0.000000
vn 0.994522 0.104528 -0.000000
vn 0.994522 0.104528 -0.000000
vn 0.994522 0.104528 -0.000000
vn 0.994522 0.104528 -0.000000
vn 0.994522 0.104528 -0.000000
vn 0.994522 0.104528 -0.000000
vn 0.994522 0.104528 -0.000000
vn 0.994522 0.104528 -0.000000
vn 0.994522 0.104528 -0.000000
vn 0.994522 0.104528 -0.000000
vn 0.994522 0.104528 -0.000000
vn 0.994522 0.104528 -0.000000
vn 0.994522 0.104528 -0.000000
vn 0.994522 0.104528 -0.000000
vn 0.994522 0.104528 -0.000000
vn 0.994522 0.104528 -0.000000
vn 0.994522 0.104528 -0.000000
vn -0.000000 0.000000 1.000000
vn -0.000000 0.000000 1.000000
vn -0.000000 0.000000 1.000000
vn -0.000000 0.000000 1.000000
vn 0.104528 -0.994522 0.000000
vn 0.104528 -0.994522 0.000000
vn 0.104528 -0.994522 0.000000
vn 0.104528 -0.994522 0.000000
vn -0.000000 0.000000 1.000000
vn -0.000000 0.000000 1.000000
vn -0.000000 0.000000 1.000000
vn -0.000000 0.000000 1.000000
vn -0.000000 0.000000 1.000000
vn -0.000000 0.000000 1.000000
vn -0.000000 0.000000 1.000000
vn -0.000000 0.000000 1.000000
vn -0.104528 0.994522 -0.000000
vn -0.104528 0.994522 -0.000000
vn -0.104528 0.994522 -0.000000
vn -0.104528 0.994522 -0.000000
vn 0.104528 -0.994522 0.000000
vn 0.104528 -0.994522 0.000000
vn 0.104528 -0.994522 0.000000
vn 0.104528 -0.994522 0.000000
vn 0.000000 -0.000000 -1.000000
vn 0.000000 -0.000000 -1.000000
vn 0.000000 -0.000000 -1.000000
vn 0.000000 -0.000000 -1.000000
vn -0.104528 0.994522 -0.000000
vn -0.104528 0.994522 -0.000000
vn -0.104528 0.994522 -0.000000
vn -0.104528 0.994522 -0.000000
vn -0.104528 0.994522 -0.000000
vn -0.104528 0.994522 -0.000000
vn -0.104528 0.994522 -0.000000
vn -0.104528 0.994522 -0.000000
vn -0.000000 0.000000 1.000000
vn -0.000000 0.000000 1.000000
vn -0.000000 0.000000 1.000000
vn -0.000000 0.000000 1.000000
vn 0.000000 -0.000000 -1.000000
vn 0.000000 -0.000000 -1.000000
vn 0.000000 -0.000000 -1.000000
vn 0.000000 -0.000000 -1.000000
vn 0.000000 -0.000000 -1.000000
vn 0.000000 -0.000000 -1.000000
vn 0.000000 -0.000000 -1.000000
vn 0.000000 -0.000000 -1.000000
vn 0.104528 -0.994522 0.000000
vn 0.104528 -0.994522 0.000000
vn 0.104528 -0.994522 0.000000
vn 0.104528 -0.994522 0.000000
vn -0.994522 -0.104528 0.000000
vn -0.994522 -0.104528 0.000000
vn -0.994522 -0.104528 0.000000
vn -0.994522 -0.104528 0.000000
vn 0.994522 0.104528 -0.000000
vn 0.994522 0.104528 -0.000000
vn 0.994522 0.104528 -0.000000
vn 0.994522 0.104528 -0.000000
vn -0.994522 -0.104528 0.000000
vn -0.994522 -0.104528 0.000000
vn -0.994522 -0.104528 0.000000
vn -0.994522 -0.104528 0.000000
vn 0.994522 0.104528 -0.000000
vn 0.994522 0.104528 -0.000000
vn 0.994522 0.104528 -0.000000
vn 0.994522 0.104528 -0.000000
vn 0.994522 0.104528 -0.000000
vn 0.994522 0.104528 -0.000000
vn 0.994522 0.104528 -0.000000
vn 0.994522 0.104528 -0.000000
vn 0.994522 0.104528 -0.000000
vn 0.994522 0.104528 -0.000000
vn 0.994522 0.104528 -0.000000
vn 0.994522 0.104528 -0.000000
vn -0.994522 -0.104528 0.000000
vn -0.994522 -0.104528 0.000000
vn -0.994522 -0.104528 0.000000
vn -0.994522 -0.104528 0.000000
vn -0.994522 -0.104528 0.000000
vn -0.994522 -0.104528 0.000000
vn -0.994522 -0.104528 0.000000
vn -0.994522 -0.104528 0.000000
vn -0.000000 0.000000 1.000000
vn -0.000000 0.000000 1.000000
vn -0.000000 0.000000 1.000000
vn -0.000000 0.000000 1.000000
vn -0.104528 0.994522 -0.000000
vn -0.104528 0.994522 -0.000000
vn -0.104528 0.994522 -0.000000
vn -0.104528 0.994522 -0.000000
s off
g wet_floor_sign group1
usemtl aiLambert1SG
f 24/13/1 68/78/2 4/80/3 10/17/4
f 10/17/5 4/80/6 8/76/7 11/21/8
f 5/82/9 17/86/10 45/50/11 43/70/12
f 12/71/13 6/73/14 2/79/15 9/2/16
f 14/4/17 17/86/18 5/82/19 1/1/20
f 20/101/21 67/103/22 2/3/23 6/75/24
f 5/69/25 12/71/26 9/2/27 1/1/28
f 18/85/29 7/19/30 38/20/31 39/36/32
f 3/16/33 10/17/34 11/21/35 7/81/36
f 13/12/37 24/13/38 10/17/39 3/16/40
f 1/1/41 9/2/42 23/5/43 14/4/44
f 21/84/45 18/35/46 39/36/47 36/38/48
f 22/83/49 17/49/50 14/4/51 23/5/52
f 8/23/53 4/18/54 68/102/55 19/100/56
f 20/55/57 70/57/58 74/58/59 65/95/60
f 3/16/61 7/19/62 18/85/63 13/12/64
f 18/35/65 21/84/66 24/13/67 13/12/68
f 69/43/69 19/41/70 62/96/71 73/94/72
f 7/81/73 11/21/74 37/91/75 38/92/76
f 9/2/77 2/79/78 67/77/79 23/5/80
f 23/5/81 67/77/82 68/78/83 24/13/84
f 23/5/85 24/13/86 21/37/87 22/51/88
f 47/31/89 27/33/90 56/34/91 52/32/92
f 30/63/93 31/67/94 58/68/95 50/64/96
f 31/67/97 34/61/98 60/62/99 58/68/100
f 48/59/101 47/31/102 52/32/103 49/60/104
f 28/53/105 29/65/106 57/66/107 54/54/108
f 11/21/109 8/76/110 44/90/111 37/91/112
f 17/49/113 22/83/114 33/97/115 45/50/116
f 20/101/117 6/75/118 41/74/119 70/99/120
f 6/73/121 12/71/122 42/88/123 41/89/124
f 22/51/125 21/37/126 36/38/127 33/52/128
f 12/71/129 5/69/130 43/87/131 42/88/132
f 8/23/133 19/100/134 69/98/135 44/24/136
f 25/27/137 26/25/138 38/20/139 37/22/140
f 26/25/141 27/33/142 39/36/143 38/20/144
f 29/65/145 28/53/146 70/99/147 41/74/148
f 31/67/149 30/63/150 42/72/151 43/70/152
f 32/29/153 25/27/154 37/22/155 44/24/156
f 30/63/157 29/65/158 41/74/159 42/72/160
f 34/61/161 31/67/162 43/70/163 45/50/164
f 35/39/165 32/29/166 44/24/167 69/98/168
f 28/53/169 35/39/170 69/98/171 70/99/172
f 47/31/173 48/59/174 33/52/175 36/38/176
f 27/33/177 47/31/178 36/38/179 39/36/180
f 48/59/181 34/61/182 45/50/183 33/97/184
f 49/60/185 54/54/186 57/66/187 50/64/188
f 60/62/189 49/60/190 50/64/191 58/68/192
f 55/26/193 51/28/194 52/32/195 56/34/196
f 51/28/197 59/30/198 53/40/199 52/32/200
f 52/32/201 53/40/202 54/54/203 49/60/204
f 26/25/205 25/27/206 51/28/207 55/26/208
f 32/29/209 35/39/210 53/40/211 59/30/212
f 25/27/213 32/29/214 59/30/215 51/28/216
f 34/61/217 48/59/218 49/60/219 60/62/220
f 27/33/221 26/25/222 55/26/223 56/34/224
f 35/39/225 28/53/226 54/54/227 53/40/228
f 29/65/229 30/63/230 50/64/231 57/66/232
f 62/42/233 72/104/234 71/7/235 65/56/236
f 62/42/237 65/56/238 74/93/239 73/44/240
f 67/6/241 20/55/242 65/95/243 71/105/244
f 15/8/245 63/9/246 66/47/247 40/48/248
f 19/41/249 68/14/250 72/15/251 62/96/252
f 61/46/253 66/47/254 63/9/255 64/10/256
f 15/8/257 16/11/258 68/14/259 67/6/260
f 46/45/261 40/48/262 70/57/263 69/43/264
f 64/107/265 63/106/266 71/7/267 72/104/268
f 66/47/269 61/46/270 73/44/271 74/93/272
f 61/46/273 46/45/274 69/43/275 73/94/276
f 40/48/277 66/47/278 74/58/279 70/57/280
f 63/9/281 15/8/282 67/6/283 71/105/284
f 16/11/285 64/10/286 72/15/287 68/14/288
f 64/10/289 16/11/290 46/45/291 61/46/292
f 40/48/293 46/45/294 16/11/295 15/8/296
