# This file uses meters as units for non-parametric coordinates.

mtllib window.mtl
g default
v 0.949047 88.014297 72.980835
v 5.378555 88.014297 72.980835
v 0.949047 262.462097 72.980835
v 5.378555 262.462097 72.980835
v 0.949047 262.462097 61.866119
v 5.378555 262.462097 61.866119
v 0.949047 88.014297 61.866119
v 5.378555 88.014297 61.866119
v 2.137608 166.669098 -155.850723
v 6.833321 166.669098 -155.850723
v 2.137608 166.669098 131.634506
v 6.833321 166.669098 131.634506
v 2.137608 177.783813 131.634506
v 6.833321 177.783813 131.634506
v 2.137608 177.783813 -155.850723
v 6.833321 177.783813 -155.850723
v 0.949047 88.014297 -6.042236
v 5.378555 88.014297 -6.042236
v 0.949047 262.462097 -6.042236
v 5.378555 262.462097 -6.042236
v 0.949047 262.462097 -17.156952
v 5.378555 262.462097 -17.156952
v 0.949047 88.014297 -17.156952
v 5.378555 88.014297 -17.156952
v 0.949047 88.014297 -82.378922
v 5.378555 88.014297 -82.378922
v 0.949047 262.462097 -82.378922
v 5.378555 262.462097 -82.378922
v 0.949047 262.462097 -93.493668
v 5.378555 262.462097 -93.493668
v 0.949047 88.014297 -93.493668
v 5.378555 88.014297 -93.493668
v 2.451322 90.169411 131.071915
v 2.451322 256.719604 131.071915
v 2.451322 256.719604 -155.117111
v 2.451322 90.169411 -155.117111
v -2.451322 81.186455 140.054855
v 2.451322 81.186455 140.054855
v 2.451322 265.702545 140.054855
v -2.451322 265.702545 140.054855
v 2.451322 265.702545 -164.100082
v -2.451322 265.702545 -164.100082
v 2.451322 81.186455 -164.100082
v -2.451322 81.186455 -164.100082
v 11.653776 90.169411 131.071915
v 11.653776 256.719604 131.071915
v 11.653776 265.702545 140.054855
v 11.653776 81.186455 140.054855
v 11.653776 256.719604 -155.117111
v 11.653776 265.702545 -164.100082
v 11.653776 90.169411 -155.117111
v 11.653776 81.186455 -164.100082
vt 0.617686 0.778487
vt 0.617419 0.810560
vt 0.114030 0.806369
vt 0.114297 0.774297
vt 0.113062 0.713471
vt 0.113666 0.681403
vt 0.943119 0.697027
vt 0.942515 0.729095
vt 0.616924 0.860596
vt 0.616361 0.892665
vt 0.113032 0.883815
vt 0.113596 0.851746
vt 0.616924 0.943399
vt 0.616360 0.975468
vt 0.113032 0.966619
vt 0.113596 0.934550
vt 0.913986 0.574305
vt 0.084773 0.570376
vt 0.086010 0.087230
vt 0.915223 0.091122
vt 0.931509 0.593139
vt 0.931291 0.071026
vt 0.958361 0.044607
vt 0.958155 0.619840
vt 0.068482 0.068400
vt 0.041821 0.041698
vt 0.068707 0.590471
vt 0.041639 0.616888
vt 0.112807 0.727019
vt 0.942260 0.742643
vt 0.943375 0.683479
vt 0.113921 0.667855
vt 0.958926 0.002948
vt 0.958720 0.017432
vt 0.042208 0.014490
vt 0.042383 0.000000
vt 0.041079 0.658545
vt 0.041282 0.644061
vt 0.957731 0.647050
vt 0.957519 0.661539
vt 0.617792 0.765705
vt 0.114403 0.761515
vt 0.113923 0.819151
vt 0.617312 0.823342
vt 0.617149 0.847816
vt 0.113820 0.838966
vt 0.112807 0.896596
vt 0.616136 0.905445
vt 0.617149 0.930619
vt 0.113820 0.921770
vt 0.112807 0.979400
vt 0.616136 0.988248
vt 0.999874 0.619151
vt 0.985382 0.619351
vt 0.985518 0.044423
vt 1.000000 0.044265
vt 0.000101 0.042395
vt 0.014593 0.042192
vt 0.014482 0.617078
vt 0.000000 0.617238
vn 0.000000 0.000000 1.000000
vn 0.000000 0.000000 1.000000
vn 0.000000 0.000000 1.000000
vn 0.000000 0.000000 1.000000
vn 0.000000 0.000000 -1.000000
vn 0.000000 0.000000 -1.000000
vn 0.000000 0.000000 -1.000000
vn 0.000000 0.000000 -1.000000
vn 1.000000 0.000000 0.000000
vn 1.000000 0.000000 0.000000
vn 1.000000 0.000000 0.000000
vn 1.000000 0.000000 0.000000
vn 0.000000 -1.000000 0.000000
vn 0.000000 -1.000000 0.000000
vn 0.000000 -1.000000 0.000000
vn 0.000000 -1.000000 0.000000
vn 0.000000 1.000000 0.000000
vn 0.000000 1.000000 0.000000
vn 0.000000 1.000000 0.000000
vn 0.000000 1.000000 0.000000
vn 1.000000 0.000000 0.000000
vn 1.000000 0.000000 0.000000
vn 1.000000 0.000000 0.000000
vn 1.000000 0.000000 0.000000
vn 0.000000 0.000000 1.000000
vn 0.000000 0.000000 1.000000
vn 0.000000 0.000000 1.000000
vn 0.000000 0.000000 1.000000
vn 0.000000 0.000000 -1.000000
vn 0.000000 0.000000 -1.000000
vn 0.000000 0.000000 -1.000000
vn 0.000000 0.000000 -1.000000
vn 1.000000 0.000000 0.000000
vn 1.000000 0.000000 0.000000
vn 1.000000 0.000000 0.000000
vn 1.000000 0.000000 0.000000
vn 0.000000 0.000000 1.000000
vn 0.000000 0.000000 1.000000
vn 0.000000 0.000000 1.000000
vn 0.000000 0.000000 1.000000
vn 0.000000 0.000000 -1.000000
vn 0.000000 0.000000 -1.000000
vn 0.000000 0.000000 -1.000000
vn 0.000000 0.000000 -1.000000
vn 1.000000 0.000000 0.000000
vn 1.000000 0.000000 0.000000
vn 1.000000 0.000000 0.000000
vn 1.000000 0.000000 0.000000
vn 0.000000 0.000000 1.000000
vn 0.000000 0.000000 1.000000
vn 0.000000 0.000000 1.000000
vn 0.000000 0.000000 1.000000
vn 0.000000 1.000000 0.000000
vn 0.000000 1.000000 0.000000
vn 0.000000 1.000000 0.000000
vn 0.000000 1.000000 0.000000
vn 0.000000 0.000000 -1.000000
vn 0.000000 0.000000 -1.000000
vn 0.000000 0.000000 -1.000000
vn 0.000000 0.000000 -1.000000
vn 0.000000 -1.000000 0.000000
vn 0.000000 -1.000000 0.000000
vn 0.000000 -1.000000 0.000000
vn 0.000000 -1.000000 0.000000
vn 1.000000 0.000000 0.000000
vn 1.000000 0.000000 0.000000
vn 1.000000 0.000000 0.000000
vn 1.000000 0.000000 0.000000
vn 1.000000 -0.000000 0.000000
vn 1.000000 0.000000 0.000000
vn 1.000000 0.000000 0.000000
vn 1.000000 -0.000000 0.000000
vn 1.000000 0.000000 0.000000
vn 1.000000 0.000000 0.000000
vn 1.000000 0.000000 0.000000
vn 1.000000 0.000000 0.000000
vn 1.000000 0.000000 0.000000
vn 1.000000 -0.000000 0.000000
vn 1.000000 -0.000000 0.000000
vn 1.000000 0.000000 0.000000
vn 1.000000 -0.000000 0.000000
vn 1.000000 -0.000000 0.000000
vn 1.000000 -0.000000 0.000000
vn 1.000000 -0.000000 0.000000
vn 0.000000 0.000000 -1.000000
vn 0.000000 0.000000 -1.000000
vn 0.000000 0.000000 -1.000000
vn 0.000000 0.000000 -1.000000
vn 0.000000 0.000000 1.000000
vn 0.000000 0.000000 1.000000
vn 0.000000 0.000000 1.000000
vn 0.000000 0.000000 1.000000
vn 0.000000 -1.000000 0.000000
vn 0.000000 -1.000000 0.000000
vn 0.000000 -1.000000 0.000000
vn 0.000000 -1.000000 0.000000
vn 0.000000 1.000000 0.000000
vn 0.000000 1.000000 0.000000
vn 0.000000 1.000000 0.000000
vn 0.000000 1.000000 0.000000
vn 0.000000 0.000000 1.000000
vn 0.000000 0.000000 1.000000
vn 0.000000 0.000000 1.000000
vn 0.000000 0.000000 1.000000
vn 0.000000 0.000000 -1.000000
vn 0.000000 0.000000 -1.000000
vn 0.000000 0.000000 -1.000000
vn 0.000000 0.000000 -1.000000
vn 0.000000 1.000000 0.000000
vn 0.000000 1.000000 0.000000
vn 0.000000 1.000000 0.000000
vn 0.000000 1.000000 0.000000
vn 0.000000 -1.000000 0.000000
vn 0.000000 -1.000000 0.000000
vn 0.000000 -1.000000 0.000000
vn 0.000000 -1.000000 0.000000
s off
g pCube5
usemtl pCube5SG
f 1/41/1 2/1/2 4/4/3 3/42/4
f 5/43/5 6/3/6 8/2/7 7/44/8
f 2/1/9 8/2/10 6/3/11 4/4/12
f 9/29/13 10/5/14 12/8/15 11/30/16
f 13/31/17 14/7/18 16/6/19 15/32/20
f 10/5/21 16/6/22 14/7/23 12/8/24
f 17/45/25 18/9/26 20/12/27 19/46/28
f 21/47/29 22/11/30 24/10/31 23/48/32
f 18/9/33 24/10/34 22/11/35 20/12/36
f 25/49/37 26/13/38 28/16/39 27/50/40
f 29/51/41 30/15/42 32/14/43 31/52/44
f 26/13/45 32/14/46 30/15/47 28/16/48
f 37/53/49 38/54/50 39/55/51 40/56/52
f 40/33/53 39/34/54 41/35/55 42/36/56
f 42/57/57 41/58/58 43/59/59 44/60/60
f 44/37/61 43/38/62 38/39/63 37/40/64
f 33/17/65 36/18/66 35/19/67 34/20/68
f 45/21/69 46/22/70 47/23/71 48/24/72
f 46/22/73 49/25/74 50/26/75 47/23/76
f 49/25/77 51/27/78 52/28/79 50/26/80
f 51/27/81 45/21/82 48/24/83 52/28/84
f 33/17/85 34/20/86 46/22/87 45/21/88
f 39/55/89 38/54/90 48/24/91 47/23/92
f 34/20/93 35/19/94 49/25/95 46/22/96
f 41/35/97 39/34/98 47/23/99 50/26/100
f 35/19/101 36/18/102 51/27/103 49/25/104
f 43/59/105 41/58/106 50/26/107 52/28/108
f 36/18/109 33/17/110 45/21/111 51/27/112
f 38/39/113 43/38/114 52/28/115 48/24/116
